<?xml version="1.0" encoding="utf-8"?>
<!-- Generator: Adobe Illustrator 23.0.3, SVG Export Plug-In . SVG Version: 6.00 Build 0)  -->
<svg version="1.1" id="Livello_1" xmlns="http://www.w3.org/2000/svg" xmlns:xlink="http://www.w3.org/1999/xlink" x="0px" y="0px"
	 viewBox="0 0 395 170" style="enable-background:new 0 0 395 170;" xml:space="preserve">
<style type="text/css">
	.st0{fill:#4D517A;}
	.st1{fill:#FFFFFF;}
</style>
<g>
	<g>
		<path class="st0" d="M220.5,84.7c1.7-2.2,2.9-4.3,3.6-6.2c0.8-1.9,1.2-3.9,1.2-5.9c0-4.3-1.5-7.9-4.4-10.8
			c-2.9-2.9-6.7-4.3-11.2-4.3c-5.1,0-9.7,1.9-13.6,5.7l3.9,4c3.1-2.9,6.3-4.4,9.7-4.4c2.9,0,5.2,0.9,7,2.7c1.8,1.8,2.6,4.2,2.6,7
			c0,1.7-0.3,3.1-0.9,4.5c-0.6,1.3-1.6,2.9-2.9,4.7l-19.8,26.4v4.1H227V107h-23.2L220.5,84.7z"/>
		<path class="st0" d="M266.8,75c-0.1-1.8-0.2-3.2-0.4-4.1c-0.2-0.9-0.4-2-0.8-3.2c-0.3-1.2-0.7-2.2-1.2-3c-0.5-0.8-1.1-1.7-1.9-2.5
			c-1.3-1.4-3-2.6-5-3.4c-2-0.8-4.2-1.2-6.6-1.2c-2.4,0-4.6,0.4-6.6,1.2c-2,0.8-3.7,2-5,3.4c-0.7,0.8-1.4,1.6-1.9,2.5
			c-0.5,0.8-0.9,1.9-1.2,3c-0.3,1.2-0.6,2.2-0.8,3.2c-0.2,0.9-0.3,2.3-0.4,4.1c-0.1,1.8-0.1,3.4-0.1,4.6c0,1.2,0,3.1,0,5.7
			c0,2.6,0,4.5,0,5.7c0,1.2,0.1,2.7,0.1,4.6c0.1,1.8,0.2,3.2,0.4,4.1c0.2,0.9,0.4,2,0.8,3.2c0.3,1.2,0.7,2.2,1.2,3
			c0.5,0.8,1.1,1.7,1.9,2.5c1.3,1.4,3,2.6,5,3.4c2,0.8,4.2,1.2,6.6,1.2c2.4,0,4.6-0.4,6.6-1.2c2-0.8,3.7-2,5-3.4
			c0.7-0.8,1.4-1.6,1.9-2.5c0.5-0.8,0.9-1.9,1.2-3c0.3-1.2,0.6-2.2,0.8-3.2c0.2-0.9,0.3-2.3,0.4-4.1c0.1-1.8,0.1-3.4,0.1-4.6
			c0-1.2,0-3.1,0-5.7c0-2.6,0-4.5,0-5.7C267,78.3,266.9,76.8,266.8,75z M261,91.2c0,1.2-0.1,2.8-0.2,4.5c-0.1,1.8-0.3,3.1-0.5,4
			c-0.2,0.9-0.5,1.8-0.9,2.8c-0.4,0.9-0.8,1.7-1.4,2.4c-1.7,1.9-4,2.8-7.1,2.8c-3.1,0-5.4-0.9-7.1-2.8c-0.6-0.6-1.1-1.4-1.4-2.4
			c-0.4-0.9-0.7-1.9-0.9-2.8c-0.2-0.9-0.4-2.2-0.5-4c-0.1-1.8-0.2-3.3-0.2-4.5c0-1.2,0-3.2,0-5.9c0-2.7,0-4.7,0-5.9
			c0-1.2,0.1-2.8,0.2-4.5c0.1-1.8,0.3-3.1,0.5-4c0.2-0.9,0.5-1.8,0.9-2.8c0.4-0.9,0.8-1.7,1.4-2.4c1.7-1.9,4-2.8,7.1-2.8
			c3.1,0,5.4,0.9,7.1,2.8c0.6,0.6,1.1,1.4,1.4,2.4c0.4,0.9,0.7,1.9,0.9,2.8c0.2,0.9,0.4,2.2,0.5,4c0.1,1.8,0.2,3.3,0.2,4.5
			c0,1.2,0,3.2,0,5.9C261,88,261,90,261,91.2z"/>
		<path class="st0" d="M290.4,107.8c-1.6,0-2.7-0.7-3.3-2.1c-0.2-0.6-0.3-2.2-0.3-5v-25h7.6V71h-7.6v-8.9h-5.7V71h-5.7v4.7h5.7v25
			c0,3.1,0.1,5.2,0.4,6.2c0.6,1.9,1.6,3.4,3.1,4.5c1.5,1,3.3,1.6,5.5,1.6c2.2,0,4.6-0.5,7-1.6l-2.2-4.7
			C293.1,107.4,291.7,107.8,290.4,107.8z"/>
		<path class="st0" d="M326.2,72.8c-2.5-1.6-5.5-2.4-8.9-2.4c-3.5,0-7.6,1.1-12.2,3.2l2.2,4.7c3.9-1.9,7.2-2.8,10-2.8
			c1.9,0,3.7,0.4,5.2,1.3c1.5,0.9,2.6,2.2,3.2,3.9c0.3,0.7,0.5,1.6,0.5,2.4c0.1,0.9,0.1,2.3,0.1,4.4h-5.8c-1.6,0-2.7,0-3.5,0
			c-0.8,0-1.7,0.1-2.7,0.2c-1,0.1-1.9,0.3-2.8,0.6c-2.9,0.9-5.1,2.4-6.6,4.5c-1.6,2.1-2.3,4.6-2.3,7.3c0,3.7,1.2,6.7,3.7,9.2
			c2.5,2.5,5.6,3.7,9.5,3.7c4.1,0,7.6-1.7,10.5-5v4.4h5.7V87.5c0-3.7-0.2-6.3-0.6-7.6C330.4,76.8,328.7,74.5,326.2,72.8z
			 M326.2,96.4c0,0.9-0.1,1.8-0.2,2.7c-0.1,1-0.3,1.8-0.5,2.6c-0.7,2.1-1.8,3.6-3.4,4.6c-1.6,1-3.5,1.5-5.6,1.5
			c-2.6,0-4.6-0.7-6.1-2.2c-1.4-1.5-2.2-3.3-2.2-5.5c0-1.8,0.4-3.3,1.3-4.6c0.9-1.3,2.2-2.2,3.8-2.7c1.2-0.4,3.6-0.5,7.3-0.5h5.5
			C326.2,94.2,326.2,95.5,326.2,96.4z"/>
		<path class="st0" d="M373.4,82.8c-0.4-2.3-1.2-4.4-2.5-6.3c-1.2-1.8-2.9-3.3-5-4.4c-2.1-1.1-4.5-1.7-7.1-1.7
			c-4.2,0-7.9,1.7-10.9,5V55.2h-5.7v57.2h5.7V108c3,3.3,6.7,5,10.9,5c2.6,0,5-0.6,7.1-1.7c2.1-1.1,3.8-2.6,5-4.4
			c1.3-1.9,2.1-4,2.5-6.3c0.4-2.3,0.6-5.2,0.6-8.9C374,88,373.8,85.1,373.4,82.8z M367.8,99.3c-0.3,1.9-0.9,3.5-1.9,4.8
			c-1.8,2.5-4.4,3.7-7.8,3.7c-3.4,0-6-1.2-7.8-3.7c-1-1.3-1.6-2.9-1.9-4.8c-0.3-1.9-0.4-4.4-0.4-7.6c0-3.2,0.1-5.7,0.4-7.6
			c0.3-1.9,0.9-3.5,1.9-4.8c1.8-2.5,4.4-3.7,7.8-3.7c3.4,0,6,1.2,7.8,3.7c1,1.3,1.6,2.9,1.9,4.8c0.3,1.9,0.4,4.4,0.4,7.6
			C368.3,94.9,368.1,97.4,367.8,99.3z"/>
	</g>
	<g>
		<path class="st0" d="M85,16.1C47,16.1,16.1,46.9,16.1,85S47,153.9,85,153.9c38.1,0,68.9-30.9,68.9-68.9S123.1,16.1,85,16.1z
			 M61.3,36.6c0-5.4,4.4-9.7,9.7-9.7c5.4,0,9.7,4.4,9.7,9.7c0,0.6-0.1,14.3-5.5,23c-0.1,0.1-6.2,10.1-7.6,18.5L79.2,78c0,0,0,0,0,0
			c1.6,0,2.9,1.3,3,2.9c0,1.6-1.3,3-2.9,3L64.4,84c0,0,0,0,0,0c-0.8,0-1.5-0.3-2.1-0.9c-0.6-0.6-0.9-1.3-0.9-2.1
			c0.1-10.4,8.4-24,8.8-24.5c4.6-7.2,4.6-19.8,4.6-19.9c0-2.1-1.7-3.8-3.8-3.8s-3.8,1.7-3.8,3.8v9.1c0,1.6-1.3,3-3,3
			c-1.6,0-3-1.3-3-3V36.6z M92.2,116.5l-13,13.2c-0.6,0.6-1.4,1.1-2.3,1.1c-1.8,0-3.2-1.5-3.2-3.3c0-0.9,0.3-1.7,1-2.4l7.4-7.5H64.6
			c-1.8,0-3.3-1.4-3.3-3.2c0-1.8,1.5-3.3,3.3-3.3H82l-7.5-7.4c-0.6-0.6-1-1.3-1-2.2c0-1.8,1.5-3.3,3.3-3.3c0.9,0,1.7,0.4,2.3,1
			l13,13c0.6,0.6,1,1.3,1,2.2S92.8,115.9,92.2,116.5z M105.5,138L105.5,138c0,1.8-1.5,3.3-3.3,3.3c-1.8,0-3.3-1.5-3.3-3.3v0V91.7h0
			c0-1.8,1.5-3.2,3.3-3.2c1.8,0,3.3,1.5,3.3,3.2V138z M105.8,75c0,5.4-4.4,9.7-9.7,9.7c-5.4,0-9.7-4.4-9.7-9.7V36.6
			c0-5.4,4.4-9.7,9.7-9.7c5.4,0,9.7,4.4,9.7,9.7V75z"/>
		<path class="st0" d="M96,32.8c-2.1,0-3.8,1.7-3.8,3.8V75c0,2.1,1.7,3.8,3.8,3.8s3.8-1.7,3.8-3.8V36.6C99.9,34.5,98.2,32.8,96,32.8
			z"/>
		<path class="st1" d="M79.2,99.2c-0.6-0.6-1.4-1-2.3-1c-1.8,0-3.3,1.5-3.3,3.3c0,0.9,0.4,1.6,1,2.2l7.5,7.4H64.6
			c-1.8,0-3.3,1.5-3.3,3.3c0,1.8,1.5,3.2,3.3,3.2h17.5l-7.4,7.5c-0.6,0.6-1,1.5-1,2.4c0,1.8,1.4,3.3,3.2,3.3c0.9,0,1.7-0.5,2.3-1.1
			l13-13.2c0.6-0.6,1-1.2,1-2.1s-0.4-1.6-1-2.2L79.2,99.2z"/>
		<path class="st1" d="M102.2,88.4c-1.8,0-3.3,1.5-3.3,3.2h0V138v0c0,1.8,1.5,3.3,3.3,3.3c1.8,0,3.3-1.5,3.3-3.3v0V91.7
			C105.5,89.9,104,88.4,102.2,88.4z"/>
		<path class="st1" d="M96,26.9c-5.4,0-9.7,4.4-9.7,9.7V75c0,5.4,4.4,9.7,9.7,9.7c5.4,0,9.7-4.4,9.7-9.7V36.6
			C105.8,31.3,101.4,26.9,96,26.9z M99.9,75c0,2.1-1.7,3.8-3.8,3.8s-3.8-1.7-3.8-3.8V36.6c0-2.1,1.7-3.8,3.8-3.8s3.8,1.7,3.8,3.8V75
			z"/>
		<path class="st1" d="M64.2,48.7c1.6,0,3-1.3,3-3v-9.1c0-2.1,1.7-3.8,3.8-3.8s3.8,1.7,3.8,3.8c0,0.1-0.1,12.6-4.6,19.9
			c-0.4,0.6-8.6,14.2-8.8,24.5c0,0.8,0.3,1.6,0.9,2.1c0.6,0.6,1.3,0.9,2.1,0.9c0,0,0,0,0,0l14.8-0.1c1.6,0,2.9-1.3,2.9-3
			c0-1.6-1.3-2.9-3-2.9c0,0,0,0,0,0l-11.5,0.1c1.4-8.4,7.5-18.4,7.6-18.5c5.5-8.7,5.5-22.4,5.5-23c0-5.4-4.4-9.7-9.7-9.7
			c-5.4,0-9.7,4.4-9.7,9.7v9.1C61.3,47.4,62.6,48.7,64.2,48.7z"/>
	</g>
</g>
</svg>
