<?xml version="1.0" encoding="UTF-8"?><svg id="a" xmlns="http://www.w3.org/2000/svg" viewBox="0 0 1910 860"><defs><style>.b{fill:#fff;}.c{fill:#54c5c1;}</style></defs><rect class="b" x="565.45" y="331.8" width="88.14" height="326.04"/><path class="b" d="M554.84,247.29c0,29.16,24.52,53.68,54.34,53.68s54.34-24.52,54.34-53.68-23.85-55-54.34-55-54.34,24.52-54.34,55Z"/><path class="b" d="M889.34,330.48c-6.82-.8-13.68-1.24-20.55-1.33-27.83,0-72.89,8-92.77,51v-48.35h-85.49v326h88.14v-149.06c0-70.25,39.1-92.11,84.16-92.11,8.9,0,17.78,.88,26.51,2.65v-88.8Z"/><rect class="b" x="1271.24" y="331.8" width="88.14" height="326.04"/><path class="b" d="M1069.14,586.94c-46.39,0-80.85-34.46-80.85-92.78s35.78-91.45,80.85-91.45,80.18,32.47,80.18,90.79c-.01,58.98-35.13,93.44-80.19,93.44h.01Zm78.86-391.85v169.18c-9.28-17.23-35.79-40.42-92.12-40.42-92.11,0-156.39,74.88-156.39,170.31s66.27,171.64,159,171.64c43.74,0,76.88-19.88,91.45-45.73,.04,12.66,1.15,25.3,3.32,37.77h84.16c-1.33-13.25-2.65-37.11-2.65-59V208.53l-86.77-13.44Z"/><path class="b" d="M366.83,586.94c-44.4,0-81.51-33.8-81.51-92.78s37.11-92.11,81.51-92.11,80.85,32.47,80.85,92.11-35.78,92.78-80.85,92.78Zm18.56-263.75c-48.38,0-84.16,21.2-98.74,44.4V195.59l-86.81,13.4v448.9h85.48v-39.81c17.23,27.84,51.69,47.72,96.76,47.72,92.77,0,153.74-73.56,153.74-172.3s-55-170.31-150.43-170.31Z"/><path class="b" d="M1477.56,457.87c2-29.83,27.17-64.29,72.89-64.29,50.37,0,71.58,31.81,72.9,64.29h-145.79Zm232.6,33.13c0-104.7-60.3-169-161-169-83.5,0-160.37,67.6-160.37,171.64,0,110,78.86,174.29,168.32,174.29,80.19,0,131.88-47,148.44-103.38l-73.55-21.89c-10.61,29.16-33.14,49.7-74.23,49.7-43.73,0-80.18-31.15-82.17-74.22h233.27c-.03-1.33,1.29-14.58,1.29-27.14Z"/><path class="c" d="M1430.59,246.54s-75.08,47.75-109.55,53.83c-3.84,.62-7.75,.76-11.63,.43-27.15-2.63-48.75-25.84-48.75-54.26s21.6-51.64,48.75-54.27c3.88-.33,7.79-.19,11.63,.43,34.47,6.08,109.55,53.84,109.55,53.84Z"/></svg>