<svg id="Layer_1" data-name="Layer 1" xmlns="http://www.w3.org/2000/svg" viewBox="0 0 733.51 140.04"><defs><style>.cls-1{fill:#fff;}</style></defs><path class="cls-1" d="M274.81,98.49l30.59,0s0-11.16,0-11.17H280.92Q277.86,92.9,274.81,98.49Z"/><path class="cls-1" d="M270.81,82.62V75.74h9.62l6.16-11.46H270.81v-7a4.46,4.46,0,0,1,4.47-4.46H292.8L299,41.69H275.28a15.66,15.66,0,0,0-15.69,15.63v25.3a15.59,15.59,0,0,0,9,14.09L274,86.88a4.46,4.46,0,0,1-3.23-4.26"/><path class="cls-1" d="M305.59,42.42l-5.77,10.44h1.23a4.48,4.48,0,0,1,4.5,4.46v7H293.46l-6.22,11.46h29.53V57.32a15.58,15.58,0,0,0-11.18-14.9"/><path class="cls-1" d="M167.05,41.65H141.59A15.7,15.7,0,0,0,125.83,57.3V82.64A15.71,15.71,0,0,0,141.59,98.3h25.46a15.7,15.7,0,0,0,15.74-15.66V57.3a15.7,15.7,0,0,0-15.74-15.65m.42,41a.41.41,0,0,1-.42.41H141.59a.42.42,0,0,1-.43-.41V57.3a.42.42,0,0,1,.43-.41h25.46a.42.42,0,0,1,.42.41Z"/><path class="cls-1" d="M100.91,82.68a.4.4,0,0,1-.4.41H75a.41.41,0,0,1-.41-.41V57.34a.4.4,0,0,1,.41-.4h25.47a.39.39,0,0,1,.4.4v4.13h15.34V57.34a15.69,15.69,0,0,0-15.74-15.65H75A15.71,15.71,0,0,0,59.29,57.34V82.68A15.71,15.71,0,0,0,75,98.34h25.47a15.69,15.69,0,0,0,15.74-15.66v-4H100.91Z"/><path class="cls-1" d="M249.74,59.29h0V57.34A15.7,15.7,0,0,0,234,41.69H208.51l-.4,0v0H192.78V57.05c0,.1,0,.19,0,.29V82.68c0,.11,0,.2,0,.3V98.34h15.33v0l.4,0H234a15.7,15.7,0,0,0,15.75-15.66V59.29ZM234.4,82.68a.4.4,0,0,1-.41.41H208.51a.4.4,0,0,1-.4-.37V57.31a.4.4,0,0,1,.4-.37H234a.4.4,0,0,1,.41.4v1.95h0v22h0Z"/><path class="cls-1" d="M656.85,41.71H631.63a15.69,15.69,0,0,0-15.75,15.65V98.44h11.24V57.36a4.48,4.48,0,0,1,4.51-4.47h25.22a4.47,4.47,0,0,1,4.5,4.47V98.41H672.6v-41a15.69,15.69,0,0,0-15.75-15.65"/><path class="cls-1" d="M457,41.68H431.53a15.78,15.78,0,0,0-15.74,15.75V82.77a15.7,15.7,0,0,0,15.74,15.66H457a15.71,15.71,0,0,0,15.74-15.66V57.43A15.78,15.78,0,0,0,457,41.68m4.49,40.82v.22A4.5,4.5,0,0,1,457,87.21H431.53A4.51,4.51,0,0,1,427,82.72V57.37a4.49,4.49,0,0,1,4.49-4.46H457a4.48,4.48,0,0,1,4.49,4.46V82.5Z"/><path class="cls-1" d="M590.17,41.68H564.7A15.79,15.79,0,0,0,549,57.43V82.77A15.71,15.71,0,0,0,564.7,98.43h25.47a15.71,15.71,0,0,0,15.76-15.66V57.43a15.79,15.79,0,0,0-15.76-15.75m4.5,40.82v.22a4.5,4.5,0,0,1-4.5,4.49H564.7a4.52,4.52,0,0,1-4.49-4.55V57.32a4.48,4.48,0,0,1,4.49-4.41h25.47a4.49,4.49,0,0,1,4.5,4.46V82.5Z"/><path class="cls-1" d="M498.6,87.3a4.79,4.79,0,0,1-4.54-4.78V64.33h19.18V52.84H494.06V41.65s0,0,0,0H482.82v41A15.83,15.83,0,0,0,498.55,98.5h19.51V87.3Z"/><rect class="cls-1" x="527.7" y="41.68" width="11.51" height="56.78"/><path class="cls-1" d="M390.38,41.68H376.3a15.42,15.42,0,0,0-10,3.66,15.42,15.42,0,0,0-10-3.66H342.25a15.69,15.69,0,0,0-15.52,15.78V98.39h11.1V57.46a4.5,4.5,0,0,1,4.42-4.54h14.13a4.51,4.51,0,0,1,4.42,4.38c0,.06,0,.1,0,.16V87.34H371.9V57.46c0-.06,0-.1,0-.16a4.49,4.49,0,0,1,4.42-4.38h14.08a4.51,4.51,0,0,1,4.42,4.54V98.39h11.08V57.46a15.68,15.68,0,0,0-15.5-15.78"/><path class="cls-1" d="M40.67,101.9a5.31,5.31,0,0,0,5.23,5.21h3.89v11H45.9A16.18,16.18,0,0,1,29.66,101.9V80.16c-1.61-.93-4.29-2.69-6.29-3.88V63.49l6.29-3.34V38.27A16.2,16.2,0,0,1,45.9,22h3.89V33.07H45.9a5.31,5.31,0,0,0-5.23,5.2V64.18L29.4,70l11.27,6.34Z"/><path class="cls-1" d="M692.84,38.15a5.32,5.32,0,0,0-5.23-5.22h-3.9V22h3.9a16.17,16.17,0,0,1,16.23,16.16V59.89c1.61.92,4.29,2.68,6.3,3.87v12.8l-6.3,3.33v21.88a16.21,16.21,0,0,1-16.23,16.29h-3.9V107h3.9a5.3,5.3,0,0,0,5.23-5.2V75.86L704.1,70l-11.26-6.34Z"/></svg>