<svg xmlns="http://www.w3.org/2000/svg" viewBox="0 0 1919.69 563.65">
    <title>primario</title>
    <g id="Livello_2" data-name="Livello 2">
        <g id="Livello_1-2" data-name="Livello 1">
            <path fill="#FFFFFF" d="M722,355.84c-12.83,18-32.8,34.07-67.22,34.07-41.08,0-71-29.93-73.94-67.48H792.64V294.85c0-89.78-56.91-149-141.41-149-85.67,0-146.11,61-146.11,151.39s60.44,156.09,149.63,156.09c71.39,0,106.86-37.2,125.71-61.59ZM650.64,209.18c38.14,0,62.79,23.47,66.9,61.61H581.4C586.09,233.82,609,209.18,650.64,209.18Z"/>
            <path fill="#FFFFFF" d="M1496.75,152.94c-46.36,0-73.36,20.55-89.8,52.23h-5.86c-12.33-29.34-39.93-52.23-84.52-52.23-42.84,0-68.67,18.2-82.18,43.44h-5.14c-2.76-22.65-20.53-39-44.76-39h-19.84v40.48h4q15.84,0,15.84,17.6v13.71h0V445.23h45.19V272.08c0-52.23,30.54-80.38,72.21-80.38,41.08,0,64.54,24.66,64.54,62.79V445.23h45.22V272.08c0-52.23,30.51-80.38,72.76-80.38,40.5,0,64.57,24.66,64.57,62.79V445.23h44.61V251C1593.6,190.5,1553.1,152.94,1496.75,152.94Z"/>
            <path fill="#FFFFFF" d="M472.82,378.14s-9.77.14-13.24-.32c-8.55-1.15-12.11-8-12.11-16.5v-40.9h0V45.94A45.94,45.94,0,0,0,401.52,0h-28V179.32h-5.85c-13.29-11.83-41.84-34.42-95.09-34C203.3,145.77,141.1,204,141.1,299.07S203.3,453,272.57,452.82c48.32-.12,77.95-14.42,96.35-39.19h5.85c9.82,22.75,25.54,31.79,55.6,32.45,20.23.44,42.47,0,42.47,0ZM294.87,389.4c-45.79,0-79.81-32.83-79.81-90.33s34-90.42,79.81-90.42,79.81,32.88,79.81,90.42S340.65,389.4,294.87,389.4Z"/>
            <path fill="#FFFFFF" d="M885.29,154.56l72.92,226.7h4.7l73-226.7h74.29l-94.88,291.78H905.87L811.05,154.56Z"/>
            <path fill="#FFFFFF" d="M1919.69,158.92,1755.7,544A32.33,32.33,0,0,1,1726,563.65h-28l48.83-110L1622.62,158.92H1672l95.89,234.14h5.88l95.89-234.14Z"/>
            <path fill="#f60" d="M51.05,351c29,0,51,20.94,51,51s-22,51.05-51,51.05-51-21-51-51.05S22,351,51.05,351Z"/>
        </g>
    </g>
</svg>
