<svg xmlns="http://www.w3.org/2000/svg" version="1.1" xmlns:xlink="http://www.w3.org/1999/xlink" width="1000" height="1000"><g clip-path="url(#SvgjsClipPath1211)"><rect width="1000" height="1000" fill="#ffffff"></rect><g transform="matrix(3.745318352059925,0,0,3.745318352059925,258.4269662921348,0)"><svg xmlns="http://www.w3.org/2000/svg" width="129" height="267" viewBox="0 0 129 267" fill="none"><path d="M127.909 57.1316C128.358 59.3485 128.487 61.5365 128.297 63.6954C127.704 70.4217 124.529 76.1197 118.775 80.7893C113.118 85.3843 106.419 87.7087 98.6759 87.7626C97.3816 87.8131 96.0498 87.7764 94.6783 87.6525C89.652 87.1985 84.9489 85.6855 80.5703 83.1137C76.1991 80.4589 72.7154 77.1309 70.1203 73.1299C67.6248 69.0542 66.5885 64.6081 67.0135 59.7918L67.0906 58.9199L83.13 60.3687C83.2392 63.3081 84.4543 65.7197 86.7753 67.6034C89.1948 69.4123 91.912 70.453 94.9278 70.7254C98.2188 71.0226 101.284 70.2114 104.125 68.2918C106.402 66.4887 107.618 64.7153 107.773 62.9714C107.941 61.0614 107.078 59.3514 105.185 57.8411C103.299 56.2478 100.585 55.1656 97.0422 54.5945C87.574 53.3207 80.1613 49.6378 74.803 43.5457C69.4448 37.4537 67.0767 30.8784 67.6997 23.82C68.007 20.3323 69.1343 16.9605 71.0796 13.7044C73.1158 10.4566 76.1359 7.54872 80.1399 4.98078C83.2617 3.00287 86.558 1.6684 90.0267 0.977375C93.5949 0.21156 97.1161 -0.0144871 100.589 0.299223C105.706 0.761533 110.505 2.24121 114.982 4.73824C119.46 7.23529 122.992 10.5258 125.58 14.6099C128.259 18.7021 129.364 23.4056 128.895 28.7202L128.873 28.9693L112.834 27.5204C112.725 24.581 111.461 22.2068 109.04 20.3979C106.719 18.5142 104.051 17.4362 101.035 17.1637C97.7456 16.8665 94.6794 17.6777 91.8392 19.5974C89.8575 21.1761 88.7934 22.7958 88.6467 24.4567C88.4711 26.4497 89.3222 28.2843 91.2011 29.9606C93.1785 31.5622 95.7521 32.6736 98.921 33.2947C116.384 36.8809 126.046 44.8266 127.909 57.1316Z" fill="#12142D"></path><path d="M67.8561 43.3889L64.1679 43.544L64.2086 44.537C64.3895 48.9227 64.1647 53.4499 63.5352 58.1182C62.9946 62.7001 61.7152 67.1057 59.6993 71.3352C57.6813 75.4818 54.7286 79.1289 50.8446 82.2765C45.8803 85.801 40.4385 87.6879 34.5191 87.937C31.6049 88.0597 28.6736 87.7685 25.7253 87.0637C16.57 84.0503 10.0954 78.5618 6.30149 70.5981C2.50757 62.6342 0.440499 54.5149 0.100482 46.24L0.0648297 45.3712C-0.132478 40.5717 0.120607 35.629 0.82387 30.543C1.61813 25.4531 3.20184 20.7032 5.57499 16.2928C8.03583 11.796 11.5728 7.95851 16.186 4.78027C20.9917 1.84263 26.1265 0.258834 31.5907 0.0288975C37.1465 -0.204863 42.4855 0.979593 47.6103 3.58229C52.8391 6.51214 56.9222 10.402 59.8578 15.2521C62.7944 20.102 64.8263 25.1557 65.9547 30.4133C67.0424 34.678 67.6762 39.0032 67.8561 43.3889ZM47.6425 54.3109C48.1435 50.974 48.3704 47.6074 48.3223 44.2109L44.6341 44.3661C44.5281 41.8008 44.2241 38.8296 43.7199 35.4522C43.2167 32.0748 42.22 28.9254 40.7319 26.0039C39.3348 23.0786 37.2878 21.0095 34.5925 19.7966C33.5805 19.5906 32.6192 19.5067 31.7085 19.545C28.3389 19.6868 25.7608 21.3288 23.9742 24.471C22.1841 27.5304 20.9677 31.2289 20.3249 35.5663C19.7697 39.8172 19.5687 43.8045 19.7217 47.5281C19.851 50.6725 20.184 53.2282 20.721 55.195C21.4204 58.8957 22.7102 62.5302 24.5901 66.0982C26.5577 69.5798 29.7374 71.4769 34.1292 71.7895C37.3167 71.6553 39.7833 70.6397 41.5305 68.7425C43.3676 66.8416 44.7348 64.5874 45.6308 61.9801C46.5237 59.29 47.195 56.7335 47.6425 54.3109Z" fill="#12142D"></path><path d="M45.7807 124.813C45.7807 126.893 45.7518 129.27 45.6918 131.945C45.633 134.545 45.603 136.922 45.603 139.076C45.603 146.43 43.7659 153.116 40.0906 159.133C36.4153 165.151 31.6739 169.161 25.865 171.168C23.4347 171.911 20.9453 172.282 18.3964 172.282H17.0628C15.0475 172.208 12.5876 172.133 9.6831 172.059C6.77873 172.059 4.34851 172.059 2.39246 172.059C2.45177 159.43 2.59993 146.505 2.83696 133.282C3.01478 120.132 3.1334 107.244 3.19261 94.6153L18.6631 94.8381V91.8295H18.8409C25.8354 91.8295 31.9702 95.061 37.246 101.524C42.5807 107.912 45.4253 115.675 45.7807 124.813ZM31.4664 143.422C31.822 141.045 31.9999 138.518 31.9999 135.845C31.9999 133.542 31.9406 131.275 31.822 129.047C31.7627 128.602 31.7331 128.155 31.7331 127.71C31.4961 123.104 30.2216 119.13 27.9099 115.787C25.5982 112.444 22.6642 110.772 19.1077 110.772H18.6631V107.764L13.9509 107.987C14.188 115.639 14.3362 123.735 14.3955 132.278C14.3955 140.822 14.514 148.918 14.7511 156.57C15.2846 156.496 15.9069 156.459 16.6182 156.459C17.3888 156.385 18.0111 156.348 18.4853 156.348C21.5083 156.348 24.235 155.159 26.6652 152.782C29.1547 150.33 30.7551 147.21 31.4664 143.422Z" fill="#12142D"></path><path d="M80.5746 130.607C80.6934 131.053 81.1377 133.393 81.9085 137.627C82.7382 141.862 83.6868 146.69 84.7531 152.113C85.8204 157.462 86.709 162.068 87.4209 165.931C88.013 168.828 88.3695 170.573 88.4872 171.168L78.4409 174.511L74.1725 155.679L61.5472 157.796L57.0133 176.962L42.6097 171.168C49.4849 146.207 56.509 120.059 63.6819 92.721H72.9285C75.8919 107.355 78.4409 119.984 80.5746 130.607ZM65.8156 139.967L70.7948 140.858C69.9052 137.145 68.8978 133.43 67.7715 129.715C67.6527 130.533 67.445 131.722 67.1484 133.282C66.853 134.767 66.5564 136.215 66.2599 137.627C66.0233 138.965 65.8744 139.745 65.8156 139.967Z" fill="#12142D"></path><path d="M114.211 97.9581L123.102 104.644L110.477 136.625L108.788 164.259H98.3847L96.3399 131.275L82.0252 106.204L95.006 96.3981L103.185 117.235L114.211 97.9581Z" fill="#12142D"></path><path d="M12.0269 267L1.62189 250.9C4.69991 249.355 7.79239 248.144 10.8994 247.266C13.852 241.05 17.5533 235.258 22.0037 229.895C24.5635 226.905 27.1955 223.994 29.8998 221.162C33.8542 217.242 37.4752 213.073 40.764 208.657C42.3335 206.406 43.2049 204.104 43.3773 201.749C43.4801 200.35 43.2563 199.149 42.705 198.146C42.2318 197.148 41.5305 196.614 40.5991 196.545C39.9011 196.492 39.1453 196.694 38.3316 197.151L36.9613 198.269C34.9937 200.639 33.9098 203.184 33.7101 205.907C33.586 207.6 34.0157 209.186 34.9995 210.667L18.8703 221.555C15.5022 216.418 14.0259 211.016 14.4415 205.349C14.7438 201.227 15.8914 197.279 17.8845 193.507C19.9606 189.667 22.6945 186.431 26.0862 183.798C31.0062 180.542 36.0652 179.109 41.264 179.499C44.9885 179.778 48.4122 180.961 51.5362 183.045C54.6601 185.13 57.0604 188.048 58.7348 191.801C60.0944 195.603 60.6532 199.161 60.4102 202.473C60.1351 206.226 59.0174 209.769 57.0561 213.1C55.1783 216.363 52.8434 219.481 50.0513 222.454C47.2581 225.426 44.3515 228.353 41.3314 231.235C36.5748 235.466 32.4714 239.82 29.0223 244.298C38.1978 243.655 47.3352 243.526 56.4351 243.914L57.009 256.834C55.1194 257.063 53.233 257.254 51.3488 257.408C44.5175 258.006 37.7011 258.937 30.8987 260.202C24.1017 261.394 17.8111 263.66 12.0269 267Z" fill="#12142D"></path><path d="M90.9138 263.21C86.1796 263.21 82.0457 262.426 78.5122 260.858C75.013 259.291 72.0798 257.16 69.7127 254.468C67.3799 251.741 65.6303 248.571 64.4639 244.959C63.3318 241.312 62.7657 237.443 62.7657 233.353C62.7657 230.149 63.1774 227.082 64.0008 224.151C64.8241 221.22 65.9219 218.391 67.2941 215.664C68.7007 212.937 70.3131 210.296 72.1313 207.74C73.9838 205.149 75.8878 202.627 77.8432 200.173C79.833 197.685 81.8399 195.248 83.864 192.862C85.888 190.476 87.792 188.091 89.5759 185.705C89.8504 185.364 90.1248 185.006 90.3993 184.631C90.708 184.222 91.0339 183.864 91.377 183.558C91.72 183.217 92.0803 182.944 92.4576 182.74C92.835 182.501 93.2638 182.382 93.7441 182.382H106.66C107.518 182.382 108.256 182.501 108.873 182.74C109.491 182.978 109.799 183.353 109.799 183.864C109.799 184.341 109.525 184.904 108.976 185.551C105.957 189.062 103.195 192.777 100.691 196.697C98.221 200.582 95.9054 204.672 93.7441 208.967C94.9791 208.626 96.1627 208.387 97.2948 208.251C98.4269 208.115 99.6276 208.046 100.897 208.046C104.671 208.046 107.947 208.779 110.726 210.245C113.539 211.71 115.854 213.619 117.673 215.971C119.525 218.288 120.897 220.913 121.789 223.844C122.716 226.741 123.179 229.638 123.179 232.535C123.179 237.136 122.493 241.329 121.12 245.112C119.748 248.861 117.707 252.082 114.997 254.774C112.287 257.433 108.907 259.495 104.859 260.961C100.845 262.46 96.197 263.21 90.9138 263.21ZM86.1796 236.114C86.1796 237.102 86.2654 238.244 86.4369 239.539C86.6084 240.8 86.9343 242.01 87.4146 243.169C87.9292 244.328 88.5982 245.316 89.4215 246.134C90.2792 246.918 91.377 247.31 92.7149 247.31C94.0185 247.31 95.1335 247.038 96.0598 246.492C97.0203 245.947 97.8265 245.231 98.4783 244.345C99.1301 243.459 99.6447 242.453 100.022 241.329C100.399 240.17 100.691 238.994 100.897 237.801C101.103 236.574 101.223 235.364 101.257 234.171C101.326 232.978 101.36 231.905 101.36 230.95C101.36 229.791 101.309 228.599 101.206 227.372C101.103 226.11 100.828 224.986 100.382 223.997C99.9706 223.009 99.336 222.191 98.4783 221.543C97.655 220.896 96.5057 220.572 95.0306 220.572C93.0751 220.572 91.5142 221.1 90.3478 222.157C89.1814 223.213 88.2894 224.526 87.6719 226.093C87.0544 227.661 86.6427 229.348 86.4369 231.155C86.2654 232.961 86.1796 234.614 86.1796 236.114Z" fill="#12142D"></path></svg></g></g><defs><clipPath id="SvgjsClipPath1211"><rect width="1000" height="1000" x="0" y="0" rx="150" ry="150"></rect></clipPath></defs></svg>