<?xml version="1.0" encoding="utf-8"?>
<!-- Generator: Adobe Illustrator 16.0.3, SVG Export Plug-In . SVG Version: 6.00 Build 0)  -->
<!DOCTYPE svg PUBLIC "-//W3C//DTD SVG 1.1//EN" "http://www.w3.org/Graphics/SVG/1.1/DTD/svg11.dtd">
<svg version="1.1" id="Layer_1" xmlns="http://www.w3.org/2000/svg" xmlns:xlink="http://www.w3.org/1999/xlink" x="0px" y="0px"
	 width="500px" height="500px" viewBox="0 0 500 500" style="enable-background:new 0 0 500 500;" xml:space="preserve">
<style type="text/css">
<![CDATA[
	.st0{fill:#FFFFFF;}
]]>
</style>
<g>
	<path class="st0" d="M255.4,193.2c0.2,1,0.3,1.9,0.3,3c0,8.3-6.8,15.1-15.1,15.1c-8.3,0-15.1-6.8-15.1-15.1c0-3.1,0.9-6,2.6-8.4
		l-35.6-7.1c-2.3,5.3-3.6,11.2-3.6,17.3c0,24,19.4,43.4,43.4,43.4c24,0,43.4-19.4,43.4-43.4c0-0.2,0-0.5,0-0.8L255.4,193.2z"/>
	<path class="st0" d="M329.6,229.6c-0.8-1.8-3.5-2-6.8-2.2c-3.1-0.2-7.1-0.3-11.4-0.3c-4.3,0-8.3,0.1-11.4,0.3
		c-3.5,0.2-6.3,0.5-6.9,2.5c-0.1,0.2-0.1,0.3-0.1,0.5c-0.4,1.7,0.6,2.8,3.8,6.2c1.7,1.8,3.7,4,5.6,6.3c2,2.5,3.4,4.6,4.5,6.3
		c1.8,2.7,2.7,4,4.5,4l0.2,0c2.8,0,9.7-5.7,13.5-10.3c4.1-5.1,5.6-10.1,5-12.4C329.9,230.2,329.8,229.9,329.6,229.6z"/>
	<path class="st0" d="M348.1,250.1c1-2.4-0.3-4.8-3-5.4c-2.6-0.5-5.6,1-6.6,3.5c-1,2.4,0.3,4.8,3,5.4
		C344.1,254.1,347,252.5,348.1,250.1z"/>
	<path class="st0" d="M240.6,202.4c3.5,0,6.3-2.8,6.3-6.3c0-2.2-1.1-4.1-2.8-5.2l-4.8-1c-2.9,0.6-5,3.1-5,6.2
		C234.3,199.6,237.1,202.4,240.6,202.4z"/>
	<path class="st0" d="M224.7,252.5c-3.3,0.7-4.9,3.7-3.7,6.7c1.3,3.1,4.9,5,8.2,4.3c3.3-0.7,5-3.7,3.7-6.7
		C231.7,253.8,228,251.9,224.7,252.5z"/>
	<path class="st0" d="M249.8,275.1c-3.3,0.7-5,3.6-3.7,6.7c1.3,3,5,5,8.3,4.3c3.3-0.7,4.9-3.7,3.7-6.7
		C256.8,276.4,253.1,274.5,249.8,275.1z"/>
	<path class="st0" d="M255.2,246.4c-3.3,0.7-5,3.7-3.7,6.7c1.3,3,5,5,8.3,4.3c3.3-0.7,4.9-3.7,3.7-6.7
		C262.2,247.7,258.5,245.8,255.2,246.4z"/>
	<path class="st0" d="M349.4,267.7c-2.6-0.5-5.6,1-6.6,3.5c-1,2.4,0.3,4.8,3,5.4c2.6,0.5,5.6-1,6.6-3.5
		C353.4,270.6,352.1,268.2,349.4,267.7z"/>
	<path class="st0" d="M369.5,249.6c-2.6-0.5-5.6,1-6.6,3.5c-1,2.4,0.3,4.8,3,5.4c2.6,0.5,5.6-1,6.6-3.5
		C373.5,252.5,372.1,250.1,369.5,249.6z"/>
	<path class="st0" d="M400,153.2L359.9,15.4l-30.4,104.4c-30.7-5.6-58.1-5.7-60.2-5.7c-0.1,0-0.1,0-0.1,0
		c-35.5,0.7-64.2,6.6-86.6,14l-147.9,0L90,202.3c-1.8,5.4-2.7,10.9-2.7,16.6c0,24.1,15.7,52.7,38.8,68.8
		c24,16.7,62.5,20.6,93.3,20.7c14,11.4,39.7,19,69.1,19h0c29.6,0,55.5-7.8,69.5-19.4c1.9,0.2,3.8,0.3,5.7,0.3c3.4,0,6.8-0.3,10.2-1
		c37.4-7.4,59.6-53.8,49.8-103.6C419.6,183.9,411.1,166.5,400,153.2z M294.9,316.4c-19.5,0-37.1-4.1-49.1-10.7
		c24-5,44.9-16.9,59.9-32.7c10.5,15.5,24.4,26.9,39.4,32.1C333,312,315,316.4,294.9,316.4z M373.8,295.2c-2.7,0.5-5.4,0.8-8.1,0.8
		c-17.5,0-35.6-11.7-48.3-31.3l-6.1-9.4l-7.5,8.2c-18.8,20.6-46.3,32.5-75.6,32.4c-26.2,0-48.1-3-64.9-8.8
		c-8.2-2.8-15.1-6.2-20.7-10.3c-19.4-14.1-33.5-39.9-33.5-61.3c0-15.8,9-32.4,25.4-47.2c7.1-1.4,19.4-3.4,32.3-4.3
		c15.7-1.1,32.4-0.4,42,5.3c0,0,3.4-19.7-7.4-38c6.9-2.2,14.4-4.1,22.5-5.8c20.4,7.1,71.6,27.1,84.9,50.8c0,0,18.4-22,16.7-52
		c5,0.9,10.2,1.8,15.3,3c7.8,8.6,18.3,22.1,19,32.7c0,0,12.5-5.6,18.4-18.8c2.3,1.3,4.1,2.4,4.9,3.1l0.2,0.2l0.4,0.3
		c15.4,12.9,26.7,33.8,31.2,57.2C423.2,247.1,404.9,288.8,373.8,295.2z"/>
	<path class="st0" d="M361.8,188.7c1.2,1.8,1.9,4,1.9,6.3c0,6.2-5.1,11.3-11.3,11.3c-6.2,0-11.3-5.1-11.3-11.3
		c0-0.8,0.1-1.5,0.2-2.2l-15.2,3c0,0.2,0,0.4,0,0.6c0,18,14.6,32.6,32.6,32.6c18,0,32.5-14.6,32.5-32.5c0-4.6-1-9-2.7-13
		L361.8,188.7z"/>
	<path class="st0" d="M347.7,195c0,2.6,2.1,4.7,4.7,4.7c2.6,0,4.7-2.1,4.7-4.7c0-2.3-1.6-4.2-3.8-4.6l-1.8,0.3l10.2-2l-12,2.4
		C348.5,191.9,347.7,193.4,347.7,195z"/>
	<polygon class="st0" points="344.5,192.1 341.3,192.8 341.3,192.8 341.6,192.7 	"/>
	<path class="st0" d="M274,463.3c-6.7,0.6-16.1,1.6-23.9,1.6c-27.9,0-42.1-3.4-50-12.5l-5.4-5.9c11.2-6.8,20.9-17.2,20.9-35.2
		c0-25.1-16-33.1-40-33.1h-31.7c-4.8,0-7.7,2.9-8.4,7.1l-12.7,96.9c-0.6,4.2,1.5,8,6.3,8H145c5,0,8.1-4,8.7-8.2l3.6-27.6h7.1
		l12.2,15.5c9.6,12.1,24,21.5,65.5,21.5c13,0,22.3-1.1,28.3-1.7c5.4-0.6,8.1-4.3,8.5-8.2l1.5-11.5C281,466.1,279.3,462.8,274,463.3z
		 M170.9,430.8h-10.5l3.4-26h9.1c8.2,0,14.4,3.6,14.4,11.3C187.3,426.1,179.9,430.8,170.9,430.8z M287,378.1h-11.3
		c-5,0-8.1,3.1-8.5,7.3l-5.1,38.6c-1.1,8.4-3.7,12.7-9,12.7c-5.3,0-7-4.3-5.9-12.7l4.9-37.8c0.6-4.2-1.4-8.1-6.3-8.1h-11.3
		c-5,0-7.9,3.9-8.5,8.1l-4.8,36.2c-3.1,23.4,5.3,36.2,28.9,36.2c23.9,0,35.5-12.9,38.6-36.2l4.8-36.4
		C294.2,381.8,292,378.1,287,378.1z M85.9,376.9c-36.7,0-52.3,25.5-52.3,71.7c0,29.7,12.2,42.9,37.3,42.9c33.1,0,43.5-19.5,46.1-41
		l1.5-11.8c0.5-4.2-1.9-7.3-6.7-7.3H86c-5.9,0-8.1,3.6-8.7,8.4l-0.5,3.4c-0.6,4.8,2.2,7.3,6.7,7.3h5.3l-0.2,1.1
		c-1.2,8.8-5.3,12.5-14.2,12.5c-6.4,0-9.6-5.7-9.6-18.6c0-20.3,3.7-41.2,17.5-41.2c5.9,0,10.2,5.4,10.2,13.9c0,5.9,2.3,6.5,7.9,5.6
		l13.3-2.2c6.7-1.1,8.1-3.1,8.1-11.3C121.8,391.6,113.9,376.9,85.9,376.9z M473.2,411.3c0-25.1-15.9-33.1-40-33.1h-33.3
		c-4,0-7.7,2.9-8.4,7.1L378.8,482c-0.6,5,2,8.2,6.5,8.2h15.5c4.6,0,8.2-3.1,8.8-8l3.3-24.8h9.6C451,457.4,473.2,442.2,473.2,411.3z
		 M428.4,430.8h-12.1l3.4-26h10.7c8.4,0,14.4,3.6,14.4,11.3C444.8,426.1,437.4,430.8,428.4,430.8z M465.1,473.2
		c-6.1,0-10.4,4.3-10.4,10.5c0,4.8,3,7.8,8,7.8c6.1,0,10.5-4.2,10.5-10.4C473.2,476.3,470.1,473.2,465.1,473.2z M463,489
		c-3.5,0-5.6-2.2-5.6-5.6c0-4.6,3-7.7,7.3-7.7c3.5,0,5.6,2.2,5.6,5.7C470.4,486,467.3,489,463,489z M338.3,402.7
		c7.3,0,11.6,4,11.6,11.6c0,2.8,2.3,3.1,6.3,2.5l15.3-2.5c5.6-0.9,7.6-4.5,7.4-8.5c-0.6-17.8-12.5-29-38.1-29
		c-30.3,0-44.4,20.9-44.4,39c0,35.3,45.7,27.1,45.7,40.3c0,4.2-1.9,9.6-12.1,9.6c-8.2,0-11-5.3-11-9.9c0-4.2-2.9-4.3-7.6-3.6
		l-14.2,2.3c-6.2,1.1-7.1,5.1-7,8.5c0.9,14.9,10.7,28.7,35.6,28.3c35.8-0.3,47.4-17.2,47.4-36.2c0-35-45.5-29.4-45.5-42.7
		C327.8,407.1,331,402.7,338.3,402.7z M464.8,476.9h-2.1c-1.1,0-1.5,0.7-1.7,1.5l-1,7.8c-0.1,0.7,0,1,0.8,1h1.1c0.8,0,0.9-0.3,1-1
		l0.3-2.2h0.4l0.7,2.3c0.2,0.7,0.4,1,1.3,1h1.2c0.7,0,0.7-0.4,0.5-1l-0.8-2.7c1.2-0.6,2-1.7,2-3.4
		C468.4,477.7,466.9,476.9,464.8,476.9z M464.2,481.6h-0.7l0.3-2.1h0.6c0.8,0,1.2,0.3,1.2,0.9C465.5,481.2,464.9,481.6,464.2,481.6z
		"/>
</g>
</svg>
