<?xml version="1.0" encoding="UTF-8" standalone="no"?>
<svg
   id="Layer_1"
   data-name="Layer 1"
   viewBox="0 0 178.11003 47"
   version="1.1"
   sodipodi:docname="haystack-logo-colored-on-dark.svg"
   width="178.11003"
   height="47"
   inkscape:version="1.2 (dc2aeda, 2022-05-15)"
   xmlns:inkscape="http://www.inkscape.org/namespaces/inkscape"
   xmlns:sodipodi="http://sodipodi.sourceforge.net/DTD/sodipodi-0.dtd"
   xmlns="http://www.w3.org/2000/svg"
   xmlns:svg="http://www.w3.org/2000/svg">
  <sodipodi:namedview
     id="namedview19"
     pagecolor="#ffffff"
     bordercolor="#000000"
     borderopacity="0.25"
     inkscape:showpageshadow="2"
     inkscape:pageopacity="0.0"
     inkscape:pagecheckerboard="0"
     inkscape:deskcolor="#d1d1d1"
     showgrid="false"
     inkscape:zoom="1.9504132"
     inkscape:cx="89.724576"
     inkscape:cy="23.584746"
     inkscape:window-width="1309"
     inkscape:window-height="456"
     inkscape:window-x="184"
     inkscape:window-y="44"
     inkscape:window-maximized="0"
     inkscape:current-layer="Layer_1" />
  <defs
     id="defs4">
    <style
       id="style2">.cls-1{fill:#06c2a0;}.cls-2{fill:#fff;}.cls-3{fill:#fefefd;}.cls-4,.cls-5{fill:#9090b2;}.cls-5{fill-opacity:0.3;}</style>
  </defs>
  <path
     class="cls-1"
     d="M 3.56,0 H 33.44 A 3.56,3.56 0 0 1 37,3.56 V 43.44 A 3.56,3.56 0 0 1 33.44,47 H 3.56 A 3.56,3.56 0 0 1 0,43.44 V 3.56 A 3.56,3.56 0 0 1 3.56,0 Z"
     id="path6" />
  <path
     class="cls-2"
     d="m 7,18.52 a 11.5,11.5 0 1 1 23,0 v 17 A 0.5,0.5 0 0 1 29.5,36.02 4.5,4.5 0 0 1 25,31.5 v -13 a 6.5,6.5 0 1 0 -13,0 v 5 a 0.49,0.49 0 0 0 0.49,0.5 h 3 A 0.5,0.5 0 0 0 16,23.5 v -4 a 2.5,2.5 0 0 1 5,0 v 20 A 0.51,0.51 0 0 1 20.48,40 4.48,4.48 0 0 1 16,35.5 v -6 A 0.51,0.51 0 0 0 15.49,29 h -3 A 0.49,0.49 0 0 0 12,29.5 v 2 A 4.5,4.5 0 0 1 7.5,36 0.5,0.5 0 0 1 7,35.5 Z"
     id="path8" />
  <path
     class="cls-2"
     d="M 61.91,11.17 A 4.9,4.9 0 0 0 57.38,13.8 V 5.11 A 0.43,0.43 0 0 0 56.92,4.65 h -3.3 a 0.43,0.43 0 0 0 -0.46,0.46 v 21 a 0.43,0.43 0 0 0 0.46,0.46 h 3.3 a 0.43,0.43 0 0 0 0.46,-0.46 V 18.3 c 0,-2.11 1.16,-3.24 2.94,-3.24 1.78,0 2.78,1.13 2.78,3.24 v 7.77 a 0.44,0.44 0 0 0 0.46,0.46 h 3.28 a 0.46,0.46 0 0 0 0.49,-0.46 v -8.72 c 0,-3.92 -2.33,-6.18 -5.42,-6.18 z M 76.69,26.9 a 5.63,5.63 0 0 0 4.9,-2.48 l 0.06,1.65 a 0.43,0.43 0 0 0 0.46,0.46 h 3 A 0.45,0.45 0 0 0 85.6,26.07 V 12 a 0.43,0.43 0 0 0 -0.45,-0.46 h -3 A 0.43,0.43 0 0 0 81.69,12 l -0.06,1.65 a 5.49,5.49 0 0 0 -4.9,-2.48 c -4.22,0 -7.13,3.43 -7.13,7.86 0,4.43 2.87,7.87 7.09,7.87 z m 0.89,-3.86 a 4,4 0 0 1 0,-8 3.71,3.71 0 0 1 3.79,4 3.7,3.7 0 0 1 -3.79,3.96 z m 17,9.3 a 0.56,0.56 0 0 0 0.55,-0.36 l 7.92,-19.92 c 0.13,-0.34 0,-0.52 -0.36,-0.52 h -3.37 a 0.56,0.56 0 0 0 -0.55,0.36 l -3.55,9.73 -3.58,-9.73 a 0.56,0.56 0 0 0 -0.55,-0.36 h -3.37 c -0.33,0 -0.49,0.18 -0.36,0.52 l 5.78,14.5 -2.14,5.26 c -0.16,0.34 0,0.52 0.36,0.52 z m 15.09,-5.44 c 3,0 5.6,-1.56 5.63,-4.59 0,-2.3 -1.47,-3.58 -3.36,-4.35 l -2.12,-0.82 c -0.82,-0.31 -1.43,-0.74 -1.43,-1.47 0,-0.73 0.45,-1.2 1.43,-1.2 a 4.3,4.3 0 0 1 2.73,1.26 c 0.27,0.21 0.49,0.24 0.7,0 l 1.35,-1.62 a 0.49,0.49 0 0 0 0,-0.65 6.44,6.44 0 0 0 -5,-2.29 c -2.78,0 -5.23,1.65 -5.23,4.53 0,2.08 1.34,3.33 3.27,4.1 l 1.9,0.76 c 1.1,0.46 1.56,0.83 1.56,1.56 0,0.73 -0.67,1.26 -1.68,1.26 a 5.7,5.7 0 0 1 -3.42,-1.47 0.47,0.47 0 0 0 -0.77,0.12 l -1.07,1.5 a 0.76,0.76 0 0 0 -0.06,0.89 7.16,7.16 0 0 0 5.62,2.48 z m 14,0 c 1,0 2.54,-0.19 2.54,-0.89 v -2.23 c 0,-0.31 -0.22,-0.46 -0.55,-0.43 -0.33,0.03 -0.68,0 -0.95,0 a 1.2,1.2 0 0 1 -1.32,-1.32 v -7.22 h 2.36 a 0.44,0.44 0 0 0 0.46,-0.46 V 12 a 0.44,0.44 0 0 0 -0.46,-0.46 h -2.36 V 8 A 0.43,0.43 0 0 0 122.93,7.54 H 119.6 A 0.43,0.43 0 0 0 119.14,8 v 3.52 h -1.9 a 0.43,0.43 0 0 0 -0.46,0.46 v 2.35 a 0.43,0.43 0 0 0 0.46,0.46 h 1.9 v 7.71 c 0.06,3.3 2.2,4.4 4.59,4.4 z m 11.45,0 a 5.63,5.63 0 0 0 4.9,-2.48 l 0.06,1.65 a 0.43,0.43 0 0 0 0.46,0.46 h 3 a 0.45,0.45 0 0 0 0.49,-0.46 V 12 a 0.43,0.43 0 0 0 -0.45,-0.46 h -3 A 0.43,0.43 0 0 0 140.12,12 l -0.06,1.65 a 5.48,5.48 0 0 0 -4.9,-2.48 c -4.22,0 -7.13,3.43 -7.13,7.86 0,4.43 2.97,7.87 7.15,7.87 z m 0.89,-3.86 a 4,4 0 0 1 0,-8 3.71,3.71 0 0 1 3.79,4 3.7,3.7 0 0 1 -3.73,3.96 z m 18.79,3.86 a 7.17,7.17 0 0 0 5.76,-2.7 0.44,0.44 0 0 0 -0.07,-0.64 l -1.83,-1.8 a 0.54,0.54 0 0 0 -0.8,0 3.85,3.85 0 0 1 -2.81,1.24 3.9,3.9 0 0 1 -4,-4 3.78,3.78 0 0 1 3.95,-3.94 3.85,3.85 0 0 1 2.94,1.25 0.56,0.56 0 0 0 0.8,0 l 1.83,-1.81 a 0.43,0.43 0 0 0 0.06,-0.64 7.19,7.19 0 0 0 -5.81,-2.69 7.63,7.63 0 0 0 -7.83,7.8 7.74,7.74 0 0 0 7.87,7.93 z m 12.5,-0.37 a 0.43,0.43 0 0 0 0.46,-0.46 v -3.18 l 1.87,-2.11 4,5.47 a 0.57,0.57 0 0 0 0.55,0.28 h 3.55 c 0.37,0 0.49,-0.24 0.27,-0.55 l -5.87,-8.11 5.08,-5.78 c 0.24,-0.31 0.15,-0.55 -0.25,-0.55 h -3.66 a 0.67,0.67 0 0 0 -0.55,0.24 l -4.93,5.82 V 5.11 A 0.43,0.43 0 0 0 167.36,4.65 H 164 a 0.43,0.43 0 0 0 -0.46,0.46 v 21 a 0.43,0.43 0 0 0 0.46,0.46 z"
     id="path10" />
  <path
     class="cls-3"
     d="m 61.91,11.18 a 4.9,4.9 0 0 0 -4.53,2.63 V 5.12 A 0.43,0.43 0 0 0 56.92,4.66 h -3.3 a 0.43,0.43 0 0 0 -0.46,0.46 v 21 a 0.43,0.43 0 0 0 0.46,0.46 h 3.3 a 0.43,0.43 0 0 0 0.46,-0.46 v -7.81 c 0,-2.11 1.16,-3.24 2.94,-3.24 1.78,0 2.78,1.13 2.78,3.24 v 7.77 a 0.44,0.44 0 0 0 0.46,0.46 h 3.28 a 0.46,0.46 0 0 0 0.49,-0.46 v -8.72 c 0,-3.92 -2.33,-6.18 -5.42,-6.18 z m 14.78,15.73 a 5.63,5.63 0 0 0 4.9,-2.48 l 0.06,1.65 a 0.43,0.43 0 0 0 0.46,0.46 h 3 A 0.45,0.45 0 0 0 85.6,26.08 V 12 a 0.43,0.43 0 0 0 -0.45,-0.46 h -3 A 0.43,0.43 0 0 0 81.69,12 l -0.06,1.65 a 5.49,5.49 0 0 0 -4.9,-2.48 c -4.22,0 -7.13,3.43 -7.13,7.86 0,4.43 2.87,7.88 7.09,7.88 z m 0.89,-3.86 a 4,4 0 0 1 0,-8 3.71,3.71 0 0 1 3.79,4 3.7,3.7 0 0 1 -3.79,4 z m 17,9.3 a 0.56,0.56 0 0 0 0.55,-0.36 l 7.92,-19.92 c 0.13,-0.34 0,-0.52 -0.36,-0.52 h -3.37 a 0.56,0.56 0 0 0 -0.55,0.36 l -3.55,9.73 -3.58,-9.73 a 0.56,0.56 0 0 0 -0.55,-0.36 h -3.37 c -0.33,0 -0.49,0.18 -0.36,0.52 l 5.78,14.5 -2.14,5.26 c -0.16,0.34 0,0.52 0.36,0.52 z m 15.09,-5.44 c 3,0 5.6,-1.56 5.63,-4.59 0,-2.3 -1.47,-3.58 -3.36,-4.35 l -2.12,-0.82 c -0.82,-0.31 -1.43,-0.74 -1.43,-1.47 0,-0.73 0.45,-1.2 1.43,-1.2 a 4.3,4.3 0 0 1 2.73,1.26 c 0.27,0.21 0.49,0.24 0.7,0 l 1.35,-1.62 a 0.49,0.49 0 0 0 0,-0.65 6.44,6.44 0 0 0 -5,-2.29 c -2.78,0 -5.23,1.65 -5.23,4.53 0,2.08 1.34,3.33 3.27,4.1 l 1.9,0.76 c 1.1,0.46 1.56,0.83 1.56,1.56 0,0.73 -0.67,1.26 -1.68,1.26 a 5.7,5.7 0 0 1 -3.42,-1.47 0.47,0.47 0 0 0 -0.77,0.12 l -1.07,1.5 a 0.76,0.76 0 0 0 -0.06,0.89 7.16,7.16 0 0 0 5.62,2.48 z m 14,0 c 1,0 2.54,-0.19 2.54,-0.89 v -2.23 c 0,-0.31 -0.22,-0.46 -0.55,-0.43 -0.33,0.03 -0.68,0 -0.95,0 a 1.2,1.2 0 0 1 -1.32,-1.32 v -7.22 h 2.36 a 0.44,0.44 0 0 0 0.46,-0.46 V 12 a 0.44,0.44 0 0 0 -0.46,-0.46 h -2.36 V 8 A 0.43,0.43 0 0 0 122.93,7.54 H 119.6 A 0.43,0.43 0 0 0 119.14,8 v 3.52 h -1.9 a 0.43,0.43 0 0 0 -0.46,0.46 v 2.35 a 0.43,0.43 0 0 0 0.46,0.46 h 1.9 v 7.71 c 0.06,3.31 2.2,4.41 4.59,4.41 z m 11.45,0 a 5.63,5.63 0 0 0 4.9,-2.48 l 0.06,1.65 a 0.43,0.43 0 0 0 0.46,0.46 h 3 a 0.45,0.45 0 0 0 0.49,-0.46 V 12 a 0.43,0.43 0 0 0 -0.45,-0.46 h -3 A 0.43,0.43 0 0 0 140.12,12 l -0.06,1.65 a 5.48,5.48 0 0 0 -4.9,-2.48 c -4.22,0 -7.13,3.43 -7.13,7.86 0,4.43 2.97,7.88 7.15,7.88 z m 0.89,-3.86 a 4,4 0 0 1 0,-8 3.71,3.71 0 0 1 3.79,4 3.7,3.7 0 0 1 -3.73,4 z m 18.79,3.86 a 7.17,7.17 0 0 0 5.76,-2.7 0.44,0.44 0 0 0 -0.07,-0.64 l -1.83,-1.8 a 0.54,0.54 0 0 0 -0.8,0 3.85,3.85 0 0 1 -2.81,1.23 3.9,3.9 0 0 1 -4,-4 3.78,3.78 0 0 1 3.95,-3.93 3.85,3.85 0 0 1 2.94,1.25 0.56,0.56 0 0 0 0.8,0 l 1.83,-1.81 a 0.43,0.43 0 0 0 0.06,-0.64 7.19,7.19 0 0 0 -5.81,-2.69 7.63,7.63 0 0 0 -7.83,7.8 7.74,7.74 0 0 0 7.87,7.93 z m 12.5,-0.37 a 0.43,0.43 0 0 0 0.46,-0.46 V 22.9 l 1.87,-2.11 4,5.47 a 0.57,0.57 0 0 0 0.55,0.28 h 3.55 c 0.37,0 0.49,-0.24 0.27,-0.55 l -5.87,-8.11 5.08,-5.78 c 0.24,-0.31 0.15,-0.55 -0.25,-0.55 h -3.66 a 0.67,0.67 0 0 0 -0.55,0.24 l -4.93,5.81 V 5.12 A 0.43,0.43 0 0 0 167.36,4.66 H 164 a 0.43,0.43 0 0 0 -0.46,0.46 v 21 a 0.43,0.43 0 0 0 0.46,0.46 z"
     id="path12" />
  <path
     class="cls-4"
     d="m 57.88,44.26 a 3.88,3.88 0 0 0 0,-7.71 2.7,2.7 0 0 0 -2.28,1 v -4 a 0.21,0.21 0 0 0 -0.22,-0.23 h -1.64 a 0.21,0.21 0 0 0 -0.22,0.23 v 10.3 a 0.22,0.22 0 0 0 0.24,0.23 h 1.47 a 0.21,0.21 0 0 0 0.22,-0.23 v -0.81 a 2.74,2.74 0 0 0 2.43,1.22 z m -0.43,-1.89 a 2,2 0 0 1 0,-3.93 2,2 0 0 1 0,3.93 z m 7.9,4.56 a 0.27,0.27 0 0 0 0.27,-0.18 L 69.51,37 c 0.06,-0.16 0,-0.25 -0.18,-0.25 h -1.65 a 0.27,0.27 0 0 0 -0.27,0.18 L 65.67,41.7 63.91,36.93 A 0.27,0.27 0 0 0 63.64,36.75 H 62 c -0.16,0 -0.24,0.09 -0.18,0.25 l 2.84,7.11 -1.07,2.58 c -0.07,0.17 0,0.26 0.18,0.26 z M 76.9,44.26 A 2.76,2.76 0 0 0 79.3,43 v 0.81 a 0.21,0.21 0 0 0 0.22,0.23 H 81 a 0.23,0.23 0 0 0 0.24,-0.23 V 33.58 a 0.22,0.22 0 0 0 -0.23,-0.23 h -1.63 a 0.22,0.22 0 0 0 -0.23,0.23 v 4 a 2.65,2.65 0 0 0 -2.26,-1 3.87,3.87 0 0 0 0,7.71 z m 0.43,-1.89 a 2,2 0 0 1 0,-3.93 2,2 0 0 1 0,3.93 z m 9.37,1.89 a 3.61,3.61 0 0 0 2.6,-0.93 C 89.44,43.21 89.46,43.1 89.38,43 l -0.56,-0.77 a 0.16,0.16 0 0 0 -0.25,-0.06 3.2,3.2 0 0 1 -1.71,0.45 2,2 0 0 1 -2.17,-1.44 h 4.47 c 0.64,0 0.81,-0.4 0.81,-1.12 a 3.39,3.39 0 0 0 -3.53,-3.51 3.67,3.67 0 0 0 -3.78,3.82 3.81,3.81 0 0 0 4.04,3.89 z m -2,-4.53 a 1.7,1.7 0 0 1 1.8,-1.47 1.56,1.56 0 0 1 1.66,1.47 z M 95,44.26 a 3.65,3.65 0 0 0 2.61,-0.93 C 97.74,43.21 97.76,43.1 97.68,43 L 97.13,42.23 A 0.18,0.18 0 0 0 96.87,42.17 3.2,3.2 0 0 1 95.16,42.62 2,2 0 0 1 93,41.18 h 4.47 c 0.64,0 0.81,-0.4 0.81,-1.12 a 3.39,3.39 0 0 0 -3.53,-3.51 3.67,3.67 0 0 0 -3.75,3.82 3.81,3.81 0 0 0 4,3.89 z m -2,-4.53 a 1.7,1.7 0 0 1 1.8,-1.47 1.56,1.56 0 0 1 1.66,1.47 z m 8.56,7.2 a 0.21,0.21 0 0 0 0.22,-0.23 v -3.49 a 2.76,2.76 0 0 0 2.22,1.05 3.88,3.88 0 0 0 0,-7.71 2.69,2.69 0 0 0 -2.4,1.21 v -0.81 a 0.21,0.21 0 0 0 -0.22,-0.22 H 99.9 a 0.21,0.21 0 0 0 -0.22,0.22 v 9.75 a 0.21,0.21 0 0 0 0.22,0.23 z m 2.07,-4.56 a 2,2 0 0 1 0,-3.93 2,2 0 0 1 0,3.93 z m 7.68,1.89 c 1.47,0 2.75,-0.77 2.76,-2.25 a 2.22,2.22 0 0 0 -1.65,-2.13 l -1,-0.41 c -0.41,-0.15 -0.71,-0.36 -0.71,-0.72 0,-0.36 0.23,-0.58 0.71,-0.58 a 2.12,2.12 0 0 1 1.33,0.61 c 0.14,0.11 0.24,0.12 0.35,0 l 0.66,-0.79 a 0.24,0.24 0 0 0 0,-0.32 3.16,3.16 0 0 0 -2.46,-1.12 2.32,2.32 0 0 0 -2.56,2.22 2.15,2.15 0 0 0 1.6,2 l 0.93,0.37 c 0.54,0.23 0.77,0.41 0.77,0.77 0,0.36 -0.33,0.61 -0.83,0.61 a 2.76,2.76 0 0 1 -1.69,-0.72 0.23,0.23 0 0 0 -0.38,0.06 l -0.52,0.74 a 0.35,0.35 0 0 0 0,0.43 3.5,3.5 0 0 0 2.67,1.23 z m 7.82,0 a 3.63,3.63 0 0 0 2.61,-0.93 c 0.14,-0.12 0.15,-0.23 0.08,-0.33 l -0.56,-0.77 a 0.17,0.17 0 0 0 -0.25,-0.06 3.2,3.2 0 0 1 -1.71,0.45 2,2 0 0 1 -2.18,-1.44 h 4.47 c 0.65,0 0.81,-0.4 0.81,-1.12 a 3.39,3.39 0 0 0 -3.52,-3.51 3.66,3.66 0 0 0 -3.78,3.82 3.81,3.81 0 0 0 4.01,3.89 z m -2,-4.53 a 1.7,1.7 0 0 1 1.8,-1.47 1.56,1.56 0 0 1 1.67,1.47 z m 9.48,4.53 c 0.5,0 1.25,-0.09 1.25,-0.44 v -1.09 c 0,-0.15 -0.11,-0.23 -0.27,-0.21 h -0.47 a 0.58,0.58 0 0 1 -0.64,-0.64 v -3.55 h 1.15 a 0.21,0.21 0 0 0 0.23,-0.22 V 37 a 0.21,0.21 0 0 0 -0.23,-0.22 h -1.15 V 35 a 0.21,0.21 0 0 0 -0.23,-0.22 h -1.63 A 0.21,0.21 0 0 0 124.39,35 v 1.73 h -0.93 a 0.21,0.21 0 0 0 -0.22,0.22 v 1.16 a 0.21,0.21 0 0 0 0.22,0.22 h 0.93 v 3.78 a 2,2 0 0 0 2.16,2.15 z"
     id="path14" />
  <path
     class="cls-5"
     d="m 57.88,44.26 a 3.88,3.88 0 0 0 0,-7.71 2.7,2.7 0 0 0 -2.28,1 v -4 a 0.21,0.21 0 0 0 -0.22,-0.23 h -1.64 a 0.21,0.21 0 0 0 -0.22,0.23 v 10.3 a 0.22,0.22 0 0 0 0.24,0.23 h 1.47 a 0.21,0.21 0 0 0 0.22,-0.23 v -0.81 a 2.74,2.74 0 0 0 2.43,1.22 z m -0.43,-1.89 a 2,2 0 0 1 0,-3.93 2,2 0 0 1 0,3.93 z m 7.9,4.56 a 0.27,0.27 0 0 0 0.27,-0.18 L 69.51,37 c 0.06,-0.16 0,-0.25 -0.18,-0.25 h -1.65 a 0.27,0.27 0 0 0 -0.27,0.18 L 65.67,41.7 63.91,36.93 A 0.27,0.27 0 0 0 63.64,36.75 H 62 c -0.16,0 -0.24,0.09 -0.18,0.25 l 2.84,7.11 -1.07,2.58 c -0.07,0.17 0,0.26 0.18,0.26 z M 76.9,44.26 A 2.76,2.76 0 0 0 79.3,43 v 0.81 a 0.21,0.21 0 0 0 0.22,0.23 H 81 a 0.23,0.23 0 0 0 0.24,-0.23 V 33.58 a 0.22,0.22 0 0 0 -0.23,-0.23 h -1.63 a 0.22,0.22 0 0 0 -0.23,0.23 v 4 a 2.65,2.65 0 0 0 -2.26,-1 3.87,3.87 0 0 0 0,7.71 z m 0.43,-1.89 a 2,2 0 0 1 0,-3.93 2,2 0 0 1 0,3.93 z m 9.37,1.89 a 3.61,3.61 0 0 0 2.6,-0.93 C 89.44,43.21 89.46,43.1 89.38,43 l -0.56,-0.77 a 0.16,0.16 0 0 0 -0.25,-0.06 3.2,3.2 0 0 1 -1.71,0.45 2,2 0 0 1 -2.17,-1.44 h 4.47 c 0.64,0 0.81,-0.4 0.81,-1.12 a 3.39,3.39 0 0 0 -3.53,-3.51 3.67,3.67 0 0 0 -3.78,3.82 3.81,3.81 0 0 0 4.04,3.89 z m -2,-4.53 a 1.7,1.7 0 0 1 1.8,-1.47 1.56,1.56 0 0 1 1.66,1.47 z M 95,44.26 a 3.65,3.65 0 0 0 2.61,-0.93 C 97.74,43.21 97.76,43.1 97.68,43 L 97.13,42.23 A 0.18,0.18 0 0 0 96.87,42.17 3.2,3.2 0 0 1 95.16,42.62 2,2 0 0 1 93,41.18 h 4.47 c 0.64,0 0.81,-0.4 0.81,-1.12 a 3.39,3.39 0 0 0 -3.53,-3.51 3.67,3.67 0 0 0 -3.75,3.82 3.81,3.81 0 0 0 4,3.89 z m -2,-4.53 a 1.7,1.7 0 0 1 1.8,-1.47 1.56,1.56 0 0 1 1.66,1.47 z m 8.56,7.2 a 0.21,0.21 0 0 0 0.22,-0.23 v -3.49 a 2.76,2.76 0 0 0 2.22,1.05 3.88,3.88 0 0 0 0,-7.71 2.69,2.69 0 0 0 -2.4,1.21 v -0.81 a 0.21,0.21 0 0 0 -0.22,-0.22 H 99.9 a 0.21,0.21 0 0 0 -0.22,0.22 v 9.75 a 0.21,0.21 0 0 0 0.22,0.23 z m 2.07,-4.56 a 2,2 0 0 1 0,-3.93 2,2 0 0 1 0,3.93 z m 7.68,1.89 c 1.47,0 2.75,-0.77 2.76,-2.25 a 2.22,2.22 0 0 0 -1.65,-2.13 l -1,-0.41 c -0.41,-0.15 -0.71,-0.36 -0.71,-0.72 0,-0.36 0.23,-0.58 0.71,-0.58 a 2.12,2.12 0 0 1 1.33,0.61 c 0.14,0.11 0.24,0.12 0.35,0 l 0.66,-0.79 a 0.24,0.24 0 0 0 0,-0.32 3.16,3.16 0 0 0 -2.46,-1.12 2.32,2.32 0 0 0 -2.56,2.22 2.15,2.15 0 0 0 1.6,2 l 0.93,0.37 c 0.54,0.23 0.77,0.41 0.77,0.77 0,0.36 -0.33,0.61 -0.83,0.61 a 2.76,2.76 0 0 1 -1.69,-0.72 0.23,0.23 0 0 0 -0.38,0.06 l -0.52,0.74 a 0.35,0.35 0 0 0 0,0.43 3.5,3.5 0 0 0 2.67,1.23 z m 7.82,0 a 3.63,3.63 0 0 0 2.61,-0.93 c 0.14,-0.12 0.15,-0.23 0.08,-0.33 l -0.56,-0.77 a 0.17,0.17 0 0 0 -0.25,-0.06 3.2,3.2 0 0 1 -1.71,0.45 2,2 0 0 1 -2.18,-1.44 h 4.47 c 0.65,0 0.81,-0.4 0.81,-1.12 a 3.39,3.39 0 0 0 -3.52,-3.51 3.66,3.66 0 0 0 -3.78,3.82 3.81,3.81 0 0 0 4.01,3.89 z m -2,-4.53 a 1.7,1.7 0 0 1 1.8,-1.47 1.56,1.56 0 0 1 1.67,1.47 z m 9.48,4.53 c 0.5,0 1.25,-0.09 1.25,-0.44 v -1.09 c 0,-0.15 -0.11,-0.23 -0.27,-0.21 h -0.47 a 0.58,0.58 0 0 1 -0.64,-0.64 v -3.55 h 1.15 a 0.21,0.21 0 0 0 0.23,-0.22 V 37 a 0.21,0.21 0 0 0 -0.23,-0.22 h -1.15 V 35 a 0.21,0.21 0 0 0 -0.23,-0.22 h -1.63 A 0.21,0.21 0 0 0 124.39,35 v 1.73 h -0.93 a 0.21,0.21 0 0 0 -0.22,0.22 v 1.16 a 0.21,0.21 0 0 0 0.22,0.22 h 0.93 v 3.78 a 2,2 0 0 0 2.16,2.15 z"
     id="path16" />
</svg>
