<svg width="200" height="200" viewBox="0 0 200 200" fill="none" xmlns="http://www.w3.org/2000/svg">
<path d="M129.787 35.9818C129.787 35.9818 137.276 47.1137 138.024 53.8766C138.773 60.6395 138.024 64.6457 138.024 64.6457" stroke="#7DA0F7" stroke-width="2.23627"/>
<rect x="111.399" y="18.0995" width="12.6941" height="30.1486" rx="2.98169" transform="rotate(-33.4434 111.399 18.0995)" fill="#CFDCFC"/>
<path d="M35 62.365H165L155.441 91.4439H44.5588L35 62.365Z" fill="#1D59F1"/>
<rect x="35" y="48.6809" width="130" height="13.6842" fill="#4D7CF4"/>
<rect x="48.6843" y="163.286" width="104.342" height="13.6842" fill="#4D7CF4"/>
<path d="M65.7896 147.891H135.921L153.026 163.286H48.6843L65.7896 147.891Z" fill="#7DA0F7"/>
<path d="M56.6667 74.2195H143.333L133.913 156.176H66.087L56.6667 74.2195Z" fill="#4D7CF4"/>
<path fill-rule="evenodd" clip-rule="evenodd" d="M100.28 85.1554C99.4067 85.2168 98.7453 85.9646 98.7908 86.8373V87.2647C98.8317 87.7488 98.9044 88.2284 98.9999 88.7034C99.1393 89.6131 99.1895 90.5342 99.1499 91.4536C99.0635 91.7559 98.8908 92.0287 98.6544 92.2378L98.6203 92.8787C97.6998 92.956 96.7861 93.0969 95.886 93.3015C92.0993 94.1561 88.6513 96.1199 85.9898 98.9497L85.4443 98.5633C85.1442 98.6542 84.8215 98.6201 84.5465 98.4724C83.8087 97.9263 83.1259 97.3097 82.5077 96.6313C82.1971 96.2603 81.8655 95.9074 81.5144 95.5744L81.178 95.3062C80.878 95.0653 80.5098 94.9266 80.1256 94.9085C79.6607 94.8838 79.212 95.0832 78.9187 95.4449C78.4051 96.1654 78.5733 97.1632 79.2915 97.6791L79.6052 97.9291C80.0089 98.1978 80.4278 98.4429 80.8598 98.6633C81.6644 99.1111 82.4236 99.6361 83.1282 100.254C83.3084 100.511 83.4131 100.814 83.4305 101.127L83.926 101.582C81.2507 105.596 80.1529 110.457 80.8393 115.233L80.2029 115.415C80.037 115.678 79.8165 115.903 79.5529 116.069C78.665 116.306 77.756 116.456 76.839 116.517C76.3524 116.527 75.8667 116.565 75.3844 116.631L74.9821 116.722H74.9366C74.3673 116.801 73.8909 117.193 73.705 117.737C73.519 118.281 73.6552 118.883 74.057 119.294C74.4626 119.703 75.0642 119.849 75.6117 119.67H75.6412L76.0503 119.624C76.5117 119.488 76.9663 119.319 77.4095 119.129C78.2619 118.788 79.146 118.526 80.0506 118.356C80.3643 118.374 80.6643 118.481 80.9189 118.663L81.6008 118.549C83.0782 123.133 86.183 127.018 90.3287 129.466L90.0514 130.045C90.1787 130.311 90.2265 130.607 90.1878 130.9C89.8128 131.768 89.3537 132.6 88.8173 133.382C88.523 133.77 88.2513 134.174 88.0036 134.593L87.8104 135.003C87.5245 135.498 87.5408 136.113 87.8525 136.592C88.1641 137.072 88.7186 137.337 89.2877 137.278C89.8583 137.214 90.3443 136.834 90.5447 136.296L90.7333 135.909C90.9061 135.455 91.0515 134.991 91.1697 134.523C91.2934 134.218 91.3997 133.905 91.5036 133.6L91.5036 133.6C91.7376 132.913 91.9594 132.261 92.3403 131.805C92.52 131.636 92.7466 131.525 92.9903 131.486L93.3313 130.866C97.8253 132.593 102.798 132.605 107.301 130.9L107.603 131.48C107.912 131.525 108.189 131.695 108.376 131.946C108.803 132.759 109.148 133.612 109.412 134.491C109.532 134.962 109.68 135.426 109.853 135.88L110.042 136.266C110.244 136.802 110.73 137.179 111.299 137.242C111.869 137.305 112.425 137.043 112.74 136.564C113.051 136.082 113.065 135.466 112.776 134.971L112.578 134.562C112.33 134.144 112.059 133.741 111.765 133.355C111.242 132.6 110.792 131.796 110.401 130.952C110.327 130.641 110.383 130.313 110.555 130.043C110.458 129.845 110.374 129.641 110.303 129.432C114.44 126.966 117.531 123.068 118.992 118.476L119.638 118.59C119.87 118.379 120.174 118.267 120.486 118.276C121.388 118.449 122.272 118.731 123.127 119.049C123.57 119.254 124.025 119.426 124.486 119.572C124.546 119.588 124.622 119.603 124.698 119.618C124.76 119.63 124.822 119.643 124.877 119.656H124.907C125.454 119.833 126.054 119.686 126.458 119.277C126.862 118.868 127.001 118.267 126.818 117.722C126.631 117.177 126.152 116.785 125.582 116.708L125.141 116.603C124.658 116.538 124.173 116.5 123.686 116.49C122.768 116.431 121.859 116.281 120.972 116.042C120.699 115.89 120.472 115.662 120.318 115.387L119.704 115.206C120.358 110.432 119.237 105.585 116.554 101.584L117.09 101.088C117.067 100.777 117.17 100.468 117.372 100.229C118.07 99.6293 118.826 99.0997 119.622 98.6474C120.054 98.4269 120.473 98.1818 120.877 97.9132L121.208 97.645C121.707 97.3355 121.984 96.767 121.919 96.1837C121.854 95.6003 121.46 95.106 120.906 94.913C120.352 94.7202 119.737 94.8626 119.324 95.2789L118.988 95.5471C118.637 95.8802 118.305 96.233 117.995 96.604C117.395 97.2905 116.731 97.9155 116.01 98.4746C115.72 98.593 115.402 98.6277 115.092 98.5747L114.517 98.9838C111.199 95.5062 106.728 93.347 101.936 92.9151C101.936 92.7548 101.922 92.538 101.912 92.3867C101.907 92.3234 101.904 92.2716 101.902 92.2401C101.646 92.0628 101.466 91.7923 101.407 91.4854C101.375 90.5675 101.433 89.6487 101.58 88.742C101.677 88.2647 101.746 87.7874 101.789 87.3033V86.8487C101.834 85.9759 101.175 85.2281 100.3 85.1668L100.28 85.1554ZM98.3853 96.8978L97.9307 104.838H97.8966C97.8739 105.329 97.5852 105.747 97.142 105.983C96.6987 106.22 96.1736 106.149 95.7781 105.86L89.2659 101.246C91.3387 99.2103 93.939 97.794 96.7737 97.157C97.3056 97.0433 97.8421 96.9569 98.3808 96.8978H98.3853ZM111.245 101.27C108.781 98.8587 105.596 97.3221 102.175 96.8971L102.625 104.828C102.632 105.337 102.928 105.801 103.389 106.019C103.85 106.237 104.396 106.173 104.794 105.855L111.245 101.27ZM86.9019 104.233L86.9024 104.233C85.0905 107.184 84.3122 110.654 84.6902 114.096L92.3321 111.898V111.875C92.8027 111.745 93.1709 111.366 93.28 110.886C93.3891 110.407 93.2277 109.904 92.8572 109.581V109.547L86.9024 104.233L86.9041 104.231L86.9019 104.233ZM115.893 114.067C116.225 110.628 115.424 107.175 113.615 104.232L113.624 104.25L107.714 109.539C107.344 109.867 107.185 110.365 107.291 110.844C107.398 111.324 107.762 111.703 108.239 111.833V111.862L115.893 114.067ZM99.0592 109.96H101.496L102.985 111.851L102.444 114.215L100.255 115.267L98.0613 114.215L97.5453 111.851L99.0592 109.96ZM107.171 116.41C107.092 116.399 106.967 116.399 106.864 116.41L106.855 116.444C106.42 116.47 106.024 116.705 105.794 117.075C105.564 117.445 105.528 117.904 105.698 118.306L108.744 125.68C111.672 123.809 113.915 121.013 115.052 117.74L107.171 116.41ZM93.6295 116.444C94.075 116.451 94.4864 116.681 94.7297 117.053C94.9729 117.426 95.0115 117.894 94.8365 118.304V118.333L91.8088 125.648C88.9107 123.791 86.7104 121.029 85.5397 117.79L93.3522 116.465C93.4386 116.456 93.5272 116.456 93.6159 116.465L93.6295 116.444ZM101.45 120.326C101.209 119.881 100.736 119.61 100.23 119.626L100.25 119.67C99.7798 119.681 99.3479 119.931 99.1138 120.34L95.2496 127.289C98.0023 128.225 100.959 128.378 103.792 127.73L105.331 127.275L101.48 120.326H101.45Z" fill="white"/>
<path d="M98.7908 86.8373H98.9774L98.9769 86.8277L98.7908 86.8373ZM100.28 85.1554L100.37 84.9925L100.322 84.9656L100.266 84.9695L100.28 85.1554ZM98.7908 87.2647H98.6044V87.2725L98.6051 87.2803L98.7908 87.2647ZM98.9999 88.7034L99.1843 88.6751L99.1826 88.6667L98.9999 88.7034ZM99.1499 91.4536L99.3291 91.5048L99.3351 91.4837L99.3361 91.4617L99.1499 91.4536ZM98.6544 92.2378L98.5309 92.0982L98.4725 92.1499L98.4683 92.2279L98.6544 92.2378ZM98.6203 92.8787L98.6359 93.0644L98.7978 93.0509L98.8064 92.8886L98.6203 92.8787ZM95.886 93.3015L95.927 93.4833L95.9273 93.4832L95.886 93.3015ZM85.9898 98.9497L85.882 99.1018L86.0144 99.1955L86.1255 99.0774L85.9898 98.9497ZM85.4443 98.5633L85.552 98.4112L85.4775 98.3585L85.3902 98.3849L85.4443 98.5633ZM84.5465 98.4724L84.4356 98.6222L84.4464 98.6302L84.4583 98.6365L84.5465 98.4724ZM82.5077 96.6313L82.3646 96.751L82.3699 96.7568L82.5077 96.6313ZM81.5144 95.5744L81.6426 95.4392L81.6368 95.4337L81.6306 95.4287L81.5144 95.5744ZM81.178 95.3062L81.0613 95.4515L81.0618 95.4519L81.178 95.3062ZM80.1256 94.9085L80.1158 95.0945L80.1168 95.0946L80.1256 94.9085ZM78.9187 95.4449L78.7737 95.3273L78.767 95.3367L78.9187 95.4449ZM79.2915 97.6791L79.4078 97.5332L79.4002 97.5278L79.2915 97.6791ZM79.6052 97.9291L79.489 98.0749L79.4953 98.0799L79.5019 98.0843L79.6052 97.9291ZM80.8598 98.6633L80.9505 98.5004L80.9445 98.4973L80.8598 98.6633ZM83.1282 100.254L83.2807 100.147L83.2679 100.129L83.2511 100.114L83.1282 100.254ZM83.4305 101.127L83.2444 101.137L83.2486 101.213L83.3045 101.264L83.4305 101.127ZM83.926 101.582L84.081 101.685L84.1695 101.552L84.0519 101.444L83.926 101.582ZM80.8393 115.233L80.8905 115.412L81.0469 115.367L81.0238 115.206L80.8393 115.233ZM80.2029 115.415L80.1517 115.235L80.0832 115.255L80.0452 115.315L80.2029 115.415ZM79.5529 116.069L79.601 116.249L79.6282 116.242L79.6521 116.227L79.5529 116.069ZM76.839 116.517L76.8428 116.704L76.8513 116.703L76.839 116.517ZM75.3844 116.631L75.3592 116.446L75.3512 116.447L75.3433 116.449L75.3844 116.631ZM74.9821 116.722V116.908H75.0028L75.0231 116.903L74.9821 116.722ZM74.9366 116.722V116.535H74.9237L74.911 116.537L74.9366 116.722ZM73.705 117.737L73.8813 117.798L73.8813 117.798L73.705 117.737ZM74.057 119.294L73.9237 119.425L73.9247 119.426L74.057 119.294ZM75.6117 119.67V119.483H75.5819L75.5537 119.492L75.6117 119.67ZM75.6412 119.67V119.856H75.6515L75.6618 119.855L75.6412 119.67ZM76.0503 119.624L76.0709 119.809L76.0873 119.807L76.1031 119.803L76.0503 119.624ZM77.4095 119.129L77.3403 118.955L77.3358 118.957L77.4095 119.129ZM80.0506 118.356L80.0614 118.17L80.0386 118.168L80.0161 118.173L80.0506 118.356ZM80.9189 118.663L80.8106 118.814L80.8734 118.859L80.9495 118.846L80.9189 118.663ZM81.6008 118.549L81.7781 118.492L81.7288 118.339L81.5701 118.365L81.6008 118.549ZM90.3287 129.466L90.4968 129.546L90.5706 129.392L90.4235 129.305L90.3287 129.466ZM90.0514 130.045L89.8833 129.965L89.8449 130.045L89.8834 130.126L90.0514 130.045ZM90.1878 130.9L90.3589 130.974L90.3692 130.95L90.3726 130.924L90.1878 130.9ZM88.8173 133.382L88.9659 133.495L88.9709 133.487L88.8173 133.382ZM88.0036 134.593L87.8431 134.499L87.8387 134.506L87.835 134.514L88.0036 134.593ZM87.8104 135.003L87.9718 135.096L87.9756 135.089L87.9789 135.082L87.8104 135.003ZM89.2877 137.278L89.3071 137.463L89.3086 137.463L89.2877 137.278ZM90.5447 136.296L90.3772 136.214L90.3732 136.222L90.37 136.231L90.5447 136.296ZM90.7333 135.909L90.9008 135.991L90.9045 135.984L90.9075 135.976L90.7333 135.909ZM91.1697 134.523L90.997 134.453L90.9922 134.465L90.989 134.477L91.1697 134.523ZM91.5036 133.6L91.68 133.66L91.6804 133.659L91.5036 133.6ZM91.5036 133.6L91.3272 133.54L91.3268 133.541L91.5036 133.6ZM92.3403 131.805L92.2126 131.669L92.2044 131.677L92.1972 131.685L92.3403 131.805ZM92.9903 131.486L93.0193 131.67L93.1096 131.656L93.1536 131.576L92.9903 131.486ZM93.3313 130.866L93.3981 130.692L93.2463 130.634L93.1679 130.776L93.3313 130.866ZM107.301 130.9L107.466 130.814L107.389 130.667L107.235 130.726L107.301 130.9ZM107.603 131.48L107.438 131.566L107.482 131.65L107.576 131.664L107.603 131.48ZM108.376 131.946L108.541 131.859L108.534 131.846L108.525 131.834L108.376 131.946ZM109.412 134.491L109.593 134.445L109.591 134.438L109.412 134.491ZM109.853 135.88L109.679 135.946L109.682 135.954L109.686 135.962L109.853 135.88ZM110.042 136.266L110.216 136.201L110.213 136.192L110.209 136.185L110.042 136.266ZM111.299 137.242L111.279 137.427L111.279 137.427L111.299 137.242ZM112.74 136.564L112.895 136.666L112.896 136.665L112.74 136.564ZM112.776 134.971L112.608 135.052L112.611 135.058L112.615 135.065L112.776 134.971ZM112.578 134.562L112.746 134.481L112.743 134.473L112.739 134.467L112.578 134.562ZM111.765 133.355L111.611 133.461L111.616 133.468L111.765 133.355ZM110.401 130.952L110.219 130.995L110.224 131.014L110.232 131.031L110.401 130.952ZM110.555 130.043L110.712 130.144L110.769 130.055L110.723 129.961L110.555 130.043ZM110.303 129.432L110.208 129.272L110.078 129.349L110.127 129.492L110.303 129.432ZM118.992 118.476L119.025 118.293L118.864 118.264L118.815 118.42L118.992 118.476ZM119.638 118.59L119.606 118.773L119.696 118.789L119.763 118.728L119.638 118.59ZM120.486 118.276L120.521 118.093L120.506 118.09L120.491 118.09L120.486 118.276ZM123.127 119.049L123.205 118.88L123.198 118.877L123.192 118.874L123.127 119.049ZM124.486 119.572L124.43 119.75L124.437 119.752L124.486 119.572ZM124.698 119.618L124.662 119.801L124.662 119.801L124.698 119.618ZM124.877 119.656L124.833 119.837L124.855 119.842H124.877V119.656ZM124.907 119.656L124.964 119.479L124.936 119.47H124.907V119.656ZM126.458 119.277L126.325 119.146L126.325 119.146L126.458 119.277ZM126.818 117.722L126.995 117.662L126.994 117.661L126.818 117.722ZM125.582 116.708L125.539 116.889L125.548 116.891L125.557 116.893L125.582 116.708ZM125.141 116.603L125.184 116.422L125.175 116.42L125.166 116.419L125.141 116.603ZM123.686 116.49L123.674 116.676L123.682 116.676L123.686 116.49ZM120.972 116.042L120.881 116.205L120.901 116.216L120.924 116.222L120.972 116.042ZM120.318 115.387L120.48 115.296L120.443 115.23L120.37 115.209L120.318 115.387ZM119.704 115.206L119.519 115.18L119.497 115.339L119.651 115.384L119.704 115.206ZM116.554 101.584L116.427 101.447L116.31 101.555L116.399 101.688L116.554 101.584ZM117.09 101.088L117.216 101.225L117.282 101.164L117.276 101.075L117.09 101.088ZM117.372 100.229L117.25 100.088L117.239 100.098L117.23 100.109L117.372 100.229ZM119.622 98.6474L119.537 98.4812L119.53 98.4854L119.622 98.6474ZM120.877 97.9132L120.98 98.0684L120.987 98.0636L120.994 98.0582L120.877 97.9132ZM121.208 97.645L121.11 97.4867L121.1 97.4928L121.091 97.5001L121.208 97.645ZM121.919 96.1837L121.734 96.2042L121.734 96.2042L121.919 96.1837ZM120.906 94.913L120.967 94.737L120.967 94.737L120.906 94.913ZM119.324 95.2789L119.44 95.4246L119.449 95.4179L119.457 95.4102L119.324 95.2789ZM118.988 95.5471L118.872 95.4014L118.865 95.4064L118.86 95.4119L118.988 95.5471ZM117.995 96.604L118.135 96.7267L118.137 96.7237L117.995 96.604ZM116.01 98.4746L116.081 98.6472L116.104 98.6376L116.125 98.6219L116.01 98.4746ZM115.092 98.5747L115.124 98.391L115.047 98.3779L114.984 98.4228L115.092 98.5747ZM114.517 98.9838L114.382 99.1124L114.494 99.2292L114.625 99.1356L114.517 98.9838ZM101.936 92.9151H101.75V93.0854L101.92 93.1007L101.936 92.9151ZM101.912 92.3867L101.726 92.3993L101.726 92.3993L101.912 92.3867ZM101.902 92.2401L102.089 92.2321L102.085 92.1394L102.008 92.0867L101.902 92.2401ZM101.407 91.4854L101.221 91.4918L101.221 91.5064L101.224 91.5207L101.407 91.4854ZM101.58 88.742L101.397 88.7046L101.396 88.7123L101.58 88.742ZM101.789 87.3033L101.974 87.3199L101.975 87.3116V87.3033H101.789ZM101.789 86.8487L101.602 86.839V86.8487H101.789ZM100.3 85.1668L100.209 85.3297L100.246 85.3498L100.287 85.3527L100.3 85.1668ZM97.9307 104.838V105.024H98.1067L98.1168 104.848L97.9307 104.838ZM98.3853 96.8978L98.5714 96.9085L98.5826 96.7115H98.3853V96.8978ZM97.8966 104.838V104.651H97.7187L97.7104 104.829L97.8966 104.838ZM97.142 105.983L97.2297 106.148L97.2297 106.148L97.142 105.983ZM95.7781 105.86L95.888 105.71L95.8859 105.708L95.7781 105.86ZM89.2659 101.246L89.1353 101.113L88.9763 101.269L89.1581 101.398L89.2659 101.246ZM96.7737 97.157L96.7348 96.9747L96.7329 96.9751L96.7737 97.157ZM98.3808 96.8978V96.7115H98.3706L98.3604 96.7126L98.3808 96.8978ZM102.175 96.8971L102.198 96.7122L101.976 96.6846L101.989 96.9076L102.175 96.8971ZM111.245 101.27L111.353 101.422L111.534 101.293L111.375 101.137L111.245 101.27ZM102.625 104.828L102.812 104.825L102.811 104.817L102.625 104.828ZM103.389 106.019L103.469 105.85L103.469 105.85L103.389 106.019ZM104.794 105.855L104.686 105.703L104.677 105.71L104.794 105.855ZM86.9019 104.233L86.7701 104.101L86.6306 104.241L86.7778 104.372L86.9019 104.233ZM84.6902 114.096L84.5049 114.116L84.5291 114.336L84.7417 114.275L84.6902 114.096ZM92.3321 111.898L92.3837 112.077L92.5185 112.038V111.898H92.3321ZM92.3321 111.875L92.2827 111.695L92.1458 111.733V111.875H92.3321ZM93.28 110.886L93.0983 110.845L93.0983 110.845L93.28 110.886ZM92.8572 109.581H92.6709V109.666L92.7348 109.722L92.8572 109.581ZM92.8572 109.547H93.0436V109.464L92.9813 109.408L92.8572 109.547ZM86.9041 104.231L87.0629 104.328L86.7724 104.099L86.9041 104.231ZM113.615 104.232L113.774 104.134L113.448 104.315L113.615 104.232ZM115.893 114.067L115.841 114.246L116.057 114.308L116.078 114.085L115.893 114.067ZM113.624 104.25L113.748 104.389L113.854 104.294L113.791 104.167L113.624 104.25ZM107.714 109.539L107.838 109.679L107.839 109.678L107.714 109.539ZM107.291 110.844L107.11 110.885L107.11 110.885L107.291 110.844ZM108.239 111.833H108.426V111.69L108.288 111.653L108.239 111.833ZM108.239 111.862H108.053V112.003L108.188 112.042L108.239 111.862ZM101.496 109.96L101.642 109.844L101.586 109.773H101.496V109.96ZM99.0592 109.96V109.773H98.9697L98.9137 109.843L99.0592 109.96ZM102.985 111.851L103.166 111.892L103.186 111.806L103.131 111.736L102.985 111.851ZM102.444 114.215L102.524 114.383L102.605 114.344L102.625 114.256L102.444 114.215ZM100.255 115.267L100.174 115.435L100.255 115.474L100.336 115.435L100.255 115.267ZM98.0613 114.215L97.8793 114.254L97.8987 114.343L97.9807 114.383L98.0613 114.215ZM97.5453 111.851L97.3999 111.734L97.3443 111.804L97.3633 111.891L97.5453 111.851ZM106.864 116.41L106.844 116.225L106.717 116.239L106.684 116.362L106.864 116.41ZM107.171 116.41L107.202 116.226L107.197 116.226L107.171 116.41ZM106.855 116.444L106.866 116.63L107.001 116.623L107.035 116.492L106.855 116.444ZM105.794 117.075L105.952 117.174L105.952 117.174L105.794 117.075ZM105.698 118.306L105.87 118.235L105.87 118.233L105.698 118.306ZM108.744 125.68L108.572 125.751L108.657 125.957L108.844 125.837L108.744 125.68ZM115.052 117.74L115.228 117.801L115.3 117.593L115.083 117.556L115.052 117.74ZM94.7297 117.053L94.8857 116.952L94.8857 116.952L94.7297 117.053ZM93.6295 116.444L93.6324 116.258L93.5308 116.256L93.4744 116.341L93.6295 116.444ZM94.8365 118.304L94.6651 118.23L94.6501 118.265V118.304H94.8365ZM94.8365 118.333L95.0087 118.404L95.0228 118.37V118.333H94.8365ZM91.8088 125.648L91.7083 125.805L91.8958 125.925L91.981 125.719L91.8088 125.648ZM85.5397 117.79L85.5086 117.606L85.2887 117.643L85.3645 117.853L85.5397 117.79ZM93.3522 116.465L93.3326 116.279L93.321 116.281L93.3522 116.465ZM93.6159 116.465L93.5968 116.65L93.7086 116.662L93.7709 116.568L93.6159 116.465ZM100.23 119.626L100.224 119.44L99.9396 119.449L100.061 119.706L100.23 119.626ZM101.45 120.326L101.287 120.415L101.34 120.513H101.45V120.326ZM100.25 119.67L100.255 119.856L100.541 119.849L100.419 119.59L100.25 119.67ZM99.1138 120.34L98.952 120.247L98.9509 120.249L99.1138 120.34ZM95.2496 127.289L95.0867 127.198L94.9782 127.393L95.1896 127.465L95.2496 127.289ZM103.792 127.73L103.833 127.912L103.844 127.908L103.792 127.73ZM105.331 127.275L105.383 127.454L105.606 127.388L105.494 127.185L105.331 127.275ZM101.48 120.326L101.643 120.236L101.59 120.14H101.48V120.326ZM98.9769 86.8277C98.9367 86.0564 99.5211 85.3955 100.293 85.3413L100.266 84.9695C99.2924 85.038 98.5539 85.8727 98.6047 86.847L98.9769 86.8277ZM98.9771 87.2647V86.8373H98.6044V87.2647H98.9771ZM99.1826 88.6667C99.0883 88.1974 99.0167 87.7249 98.9765 87.249L98.6051 87.2803C98.6467 87.7726 98.7206 88.2593 98.8172 88.7401L99.1826 88.6667ZM99.3361 91.4617C99.3762 90.5301 99.3253 89.5968 99.1841 88.6752L98.8157 88.7316C98.9532 89.6293 99.0028 90.5383 98.9637 91.4456L99.3361 91.4617ZM98.7779 92.3774C99.0406 92.1449 99.2329 91.8416 99.3291 91.5048L98.9707 91.4024C98.8942 91.6702 98.741 91.9124 98.5309 92.0982L98.7779 92.3774ZM98.8064 92.8886L98.8405 92.2477L98.4683 92.2279L98.4342 92.8688L98.8064 92.8886ZM95.9273 93.4832C96.8188 93.2806 97.724 93.141 98.6359 93.0644L98.6047 92.693C97.6756 92.771 96.7533 92.9133 95.8447 93.1198L95.9273 93.4832ZM86.1255 99.0774C88.7615 96.2748 92.1765 94.3298 95.927 93.4833L95.845 93.1197C92.0222 93.9825 88.5412 95.965 85.854 98.822L86.1255 99.0774ZM85.3365 98.7154L85.882 99.1018L86.0975 98.7976L85.552 98.4112L85.3365 98.7154ZM84.4583 98.6365C84.7763 98.8074 85.1502 98.8471 85.4983 98.7416L85.3902 98.3849C85.1383 98.4613 84.8667 98.4328 84.6346 98.3082L84.4583 98.6365ZM82.3699 96.7568C82.9963 97.4442 83.6881 98.0689 84.4356 98.6222L84.6573 98.3226C83.9293 97.7837 83.2555 97.1753 82.6454 96.5058L82.3699 96.7568ZM81.3862 95.7096C81.7321 96.0377 82.0588 96.3853 82.3647 96.7509L82.6506 96.5117C82.3354 96.1352 81.9989 95.7771 81.6426 95.4392L81.3862 95.7096ZM81.0618 95.4519L81.3982 95.7201L81.6306 95.4287L81.2942 95.1605L81.0618 95.4519ZM80.1168 95.0946C80.4618 95.1109 80.7922 95.2354 81.0613 95.4515L81.2947 95.1609C80.9638 94.8952 80.5577 94.7423 80.1345 94.7223L80.1168 95.0946ZM79.0635 95.5622C79.3192 95.2469 79.7104 95.073 80.1158 95.0945L80.1355 94.7224C79.611 94.6945 79.1048 94.9195 78.774 95.3275L79.0635 95.5622ZM79.4002 97.5278C78.7649 97.0714 78.6167 96.1895 79.0705 95.553L78.767 95.3367C78.1934 96.1412 78.3816 97.255 79.1828 97.8305L79.4002 97.5278ZM79.7213 97.7834L79.4076 97.5334L79.1753 97.8249L79.489 98.0749L79.7213 97.7834ZM80.9445 98.4973C80.5189 98.2802 80.1062 98.0387 79.7084 97.774L79.5019 98.0843C79.9116 98.3569 80.3367 98.6056 80.7751 98.8293L80.9445 98.4973ZM83.2511 100.114C82.5358 99.4867 81.7657 98.9541 80.9504 98.5005L80.7692 98.8261C81.5631 99.268 82.3113 99.7855 83.0053 100.394L83.2511 100.114ZM83.6165 101.117C83.5973 100.769 83.481 100.433 83.2807 100.147L82.9756 100.361C83.1359 100.59 83.229 100.859 83.2444 101.137L83.6165 101.117ZM84.0519 101.444L83.5564 100.99L83.3045 101.264L83.8 101.719L84.0519 101.444ZM81.0238 115.206C80.3439 110.476 81.4313 105.661 84.081 101.685L83.7709 101.478C81.0702 105.531 79.9619 110.439 80.6549 115.259L81.0238 115.206ZM80.2541 115.594L80.8905 115.412L80.7881 115.054L80.1517 115.235L80.2541 115.594ZM79.6521 116.227C79.9405 116.045 80.1806 115.8 80.3607 115.514L80.0452 115.315C79.8934 115.557 79.6925 115.761 79.4536 115.912L79.6521 116.227ZM76.8513 116.703C77.7804 116.641 78.7013 116.49 79.601 116.249L79.5048 115.889C78.6286 116.123 77.7316 116.271 76.8267 116.331L76.8513 116.703ZM75.4096 116.815C75.8848 116.75 76.3633 116.713 76.8428 116.703L76.8352 116.331C76.3414 116.341 75.8486 116.379 75.3592 116.446L75.4096 116.815ZM75.0231 116.903L75.4254 116.812L75.3433 116.449L74.941 116.54L75.0231 116.903ZM74.9366 116.908H74.9821V116.535H74.9366V116.908ZM73.8813 117.798C74.0445 117.32 74.4625 116.975 74.9622 116.906L74.911 116.537C74.272 116.626 73.7373 117.067 73.5286 117.677L73.8813 117.798ZM74.1902 119.164C73.8376 118.803 73.7181 118.275 73.8813 117.798L73.5286 117.677C73.3199 118.287 73.4727 118.963 73.9237 119.425L74.1902 119.164ZM75.5537 119.492C75.0733 119.65 74.5453 119.522 74.1893 119.163L73.9247 119.426C74.3799 119.885 75.0551 120.048 75.6696 119.847L75.5537 119.492ZM75.6412 119.483H75.6117V119.856H75.6412V119.483ZM76.0297 119.439L75.6206 119.484L75.6618 119.855L76.0709 119.809L76.0297 119.439ZM77.3358 118.957C76.8985 119.146 76.4509 119.311 75.9975 119.445L76.1031 119.803C76.5725 119.664 77.0341 119.493 77.4832 119.3L77.3358 118.957ZM80.0161 118.173C79.0992 118.345 78.2034 118.61 77.3403 118.956L77.4787 119.302C78.3203 118.965 79.1929 118.707 80.0852 118.539L80.0161 118.173ZM81.0272 118.511C80.7443 118.309 80.4105 118.19 80.0614 118.17L80.0399 118.542C80.3181 118.558 80.5844 118.653 80.8106 118.814L81.0272 118.511ZM81.5701 118.365L80.8883 118.479L80.9495 118.846L81.6314 118.733L81.5701 118.365ZM90.4235 129.305C86.317 126.881 83.2416 123.033 81.7781 118.492L81.4234 118.606C82.9148 123.234 86.0489 127.155 90.234 129.626L90.4235 129.305ZM90.2196 130.126L90.4968 129.546L90.1606 129.385L89.8833 129.965L90.2196 130.126ZM90.3726 130.924C90.416 130.595 90.3623 130.263 90.2195 129.965L89.8834 130.126C89.9952 130.359 90.0369 130.619 90.0031 130.876L90.3726 130.924ZM88.9709 133.487C89.5141 132.696 89.9791 131.853 90.3589 130.974L90.0167 130.826C89.6465 131.683 89.1932 132.505 88.6636 133.277L88.9709 133.487ZM88.164 134.688C88.4081 134.275 88.6758 133.877 88.9657 133.495L88.6688 133.269C88.3702 133.663 88.0945 134.073 87.8431 134.499L88.164 134.688ZM87.9789 135.082L88.1721 134.673L87.835 134.514L87.6418 134.923L87.9789 135.082ZM88.0088 136.491C87.7353 136.07 87.721 135.531 87.9718 135.096L87.6489 134.91C87.3281 135.466 87.3464 136.155 87.6962 136.694L88.0088 136.491ZM89.2684 137.092C88.7689 137.145 88.2823 136.912 88.0088 136.491L87.6962 136.694C88.046 137.233 88.6683 137.53 89.3071 137.463L89.2684 137.092ZM90.37 136.231C90.1942 136.703 89.7677 137.036 89.2669 137.093L89.3086 137.463C89.949 137.391 90.4944 136.965 90.7193 136.361L90.37 136.231ZM90.5659 135.828L90.3772 136.214L90.7121 136.378L90.9008 135.991L90.5659 135.828ZM90.989 134.477C90.8726 134.939 90.7293 135.396 90.5591 135.843L90.9075 135.976C91.0829 135.514 91.2305 135.044 91.3504 134.569L90.989 134.477ZM91.3272 133.54C91.223 133.846 91.1184 134.153 90.997 134.453L91.3424 134.593C91.4685 134.282 91.5764 133.964 91.68 133.66L91.3272 133.54ZM91.3268 133.541L91.3268 133.541L91.6804 133.659L91.6804 133.659L91.3268 133.541ZM92.1972 131.685C91.7896 132.174 91.5578 132.862 91.3272 133.54L91.6801 133.66C91.9174 132.963 92.1292 132.348 92.4834 131.924L92.1972 131.685ZM92.9614 131.302C92.6806 131.346 92.4197 131.474 92.2126 131.669L92.4679 131.94C92.6204 131.797 92.8125 131.703 93.0193 131.67L92.9614 131.302ZM93.1679 130.776L92.827 131.397L93.1536 131.576L93.4946 130.956L93.1679 130.776ZM107.235 130.726C102.775 132.415 97.8494 132.403 93.3981 130.692L93.2644 131.04C97.8012 132.784 102.821 132.796 107.367 131.074L107.235 130.726ZM107.768 131.393L107.466 130.814L107.135 130.986L107.438 131.566L107.768 131.393ZM108.525 131.834C108.31 131.546 107.99 131.348 107.63 131.295L107.576 131.664C107.834 131.702 108.068 131.845 108.226 132.057L108.525 131.834ZM109.591 134.438C109.324 133.547 108.974 132.683 108.541 131.859L108.211 132.032C108.632 132.835 108.973 133.676 109.234 134.545L109.591 134.438ZM110.027 135.813C109.856 135.366 109.711 134.909 109.593 134.445L109.232 134.537C109.353 135.015 109.503 135.486 109.679 135.946L110.027 135.813ZM110.209 136.185L110.021 135.798L109.686 135.962L109.874 136.348L110.209 136.185ZM111.32 137.057C110.82 137.002 110.394 136.671 110.216 136.201L109.867 136.332C110.094 136.934 110.64 137.357 111.279 137.427L111.32 137.057ZM112.584 136.462C112.308 136.882 111.82 137.112 111.32 137.057L111.279 137.427C111.918 137.498 112.543 137.204 112.895 136.666L112.584 136.462ZM112.615 135.065C112.869 135.5 112.856 136.04 112.583 136.463L112.896 136.665C113.246 136.124 113.261 135.433 112.937 134.877L112.615 135.065ZM112.41 134.643L112.608 135.052L112.944 134.89L112.746 134.481L112.41 134.643ZM111.616 133.468C111.906 133.848 112.174 134.245 112.418 134.657L112.739 134.467C112.487 134.043 112.211 133.634 111.913 133.242L111.616 133.468ZM110.232 131.031C110.627 131.882 111.082 132.696 111.611 133.461L111.918 133.249C111.402 132.504 110.957 131.709 110.57 130.874L110.232 131.031ZM110.398 129.943C110.199 130.255 110.134 130.635 110.219 130.995L110.582 130.909C110.52 130.647 110.567 130.371 110.712 130.144L110.398 129.943ZM110.127 129.492C110.2 129.708 110.288 129.92 110.388 130.125L110.723 129.961C110.629 129.77 110.548 129.573 110.48 129.372L110.127 129.492ZM118.815 118.42C117.367 122.968 114.305 126.829 110.208 129.272L110.399 129.592C114.574 127.102 117.695 123.167 119.17 118.533L118.815 118.42ZM119.67 118.406L119.025 118.293L118.96 118.66L119.606 118.773L119.67 118.406ZM120.491 118.09C120.132 118.079 119.78 118.208 119.512 118.452L119.763 118.728C119.959 118.549 120.217 118.455 120.48 118.463L120.491 118.09ZM123.192 118.874C122.332 118.554 121.437 118.269 120.521 118.093L120.451 118.459C121.339 118.629 122.212 118.907 123.062 119.224L123.192 118.874ZM124.542 119.394C124.088 119.251 123.64 119.081 123.205 118.88L123.049 119.218C123.5 119.426 123.962 119.602 124.43 119.75L124.542 119.394ZM124.734 119.435C124.656 119.42 124.587 119.406 124.535 119.392L124.437 119.752C124.505 119.77 124.587 119.786 124.662 119.801L124.734 119.435ZM124.921 119.475C124.861 119.46 124.795 119.447 124.734 119.435L124.662 119.801C124.724 119.813 124.783 119.825 124.833 119.837L124.921 119.475ZM124.907 119.47H124.877V119.842H124.907V119.47ZM126.325 119.146C125.97 119.505 125.444 119.634 124.964 119.479L124.849 119.833C125.463 120.032 126.137 119.867 126.59 119.408L126.325 119.146ZM126.641 117.781C126.802 118.259 126.68 118.787 126.325 119.146L126.59 119.408C127.044 118.949 127.2 118.274 126.995 117.662L126.641 117.781ZM125.557 116.893C126.057 116.96 126.477 117.304 126.642 117.782L126.994 117.661C126.784 117.05 126.247 116.61 125.606 116.523L125.557 116.893ZM125.098 116.785L125.539 116.889L125.625 116.527L125.184 116.422L125.098 116.785ZM123.682 116.676C124.162 116.686 124.64 116.723 125.115 116.788L125.166 116.419C124.676 116.352 124.184 116.313 123.69 116.303L123.682 116.676ZM120.924 116.222C121.822 116.464 122.743 116.616 123.674 116.676L123.698 116.304C122.792 116.245 121.895 116.097 121.021 115.862L120.924 116.222ZM120.155 115.479C120.326 115.783 120.578 116.035 120.881 116.205L121.063 115.879C120.821 115.744 120.618 115.541 120.48 115.296L120.155 115.479ZM119.651 115.384L120.265 115.566L120.37 115.209L119.757 115.027L119.651 115.384ZM116.399 101.688C119.057 105.651 120.167 110.452 119.519 115.18L119.888 115.231C120.549 110.412 119.417 105.519 116.708 101.48L116.399 101.688ZM116.964 100.952L116.427 101.447L116.68 101.721L117.216 101.225L116.964 100.952ZM117.23 100.109C116.996 100.384 116.878 100.741 116.904 101.102L117.276 101.075C117.257 100.813 117.343 100.552 117.514 100.35L117.23 100.109ZM119.53 98.4854C118.724 98.9435 117.957 99.4799 117.25 100.088L117.493 100.371C118.182 99.7786 118.929 99.2559 119.714 98.8094L119.53 98.4854ZM120.773 97.7581C120.376 98.0227 119.963 98.2642 119.537 98.4814L119.707 98.8134C120.145 98.5896 120.57 98.3409 120.98 98.0684L120.773 97.7581ZM121.091 97.5001L120.76 97.7683L120.994 98.0582L121.326 97.79L121.091 97.5001ZM121.734 96.2042C121.79 96.7161 121.548 97.2151 121.11 97.4867L121.307 97.8034C121.866 97.456 122.177 96.8179 122.104 96.1632L121.734 96.2042ZM120.845 95.089C121.331 95.2584 121.677 95.6922 121.734 96.2042L122.104 96.1632C122.032 95.5085 121.59 94.9536 120.967 94.737L120.845 95.089ZM119.457 95.4102C119.819 95.0447 120.359 94.9198 120.845 95.089L120.967 94.737C120.346 94.5206 119.655 94.6804 119.192 95.1477L119.457 95.4102ZM119.104 95.6928L119.44 95.4246L119.208 95.1332L118.872 95.4014L119.104 95.6928ZM118.137 96.7237C118.444 96.3581 118.77 96.0105 119.116 95.6823L118.86 95.4119C118.503 95.7499 118.167 96.108 117.852 96.4844L118.137 96.7237ZM116.125 98.6219C116.854 98.0555 117.527 97.4222 118.135 96.7267L117.854 96.4814C117.262 97.1587 116.607 97.7756 115.896 98.3274L116.125 98.6219ZM115.061 98.7583C115.404 98.8172 115.758 98.7787 116.081 98.6472L115.94 98.302C115.682 98.4073 115.399 98.4381 115.124 98.391L115.061 98.7583ZM114.625 99.1356L115.2 98.7265L114.984 98.4228L114.409 98.8319L114.625 99.1356ZM101.92 93.1007C106.666 93.5285 111.095 95.6675 114.382 99.1124L114.652 98.8551C111.302 95.345 106.79 93.1654 101.953 92.7295L101.92 93.1007ZM101.726 92.3993C101.736 92.5526 101.75 92.7625 101.75 92.9151H102.123C102.123 92.7472 102.108 92.5235 102.097 92.3741L101.726 92.3993ZM101.716 92.248C101.718 92.2824 101.721 92.3373 101.726 92.3993L102.097 92.3741C102.093 92.3095 102.09 92.2607 102.089 92.2321L101.716 92.248ZM101.224 91.5207C101.292 91.8765 101.5 92.189 101.797 92.3934L102.008 92.0867C101.791 91.9365 101.64 91.7081 101.59 91.4502L101.224 91.5207ZM101.396 88.7123C101.247 89.631 101.189 90.5619 101.221 91.4918L101.593 91.4791C101.562 90.5732 101.619 89.6665 101.764 88.7718L101.396 88.7123ZM101.603 87.2867C101.561 87.7643 101.493 88.2347 101.397 88.7047L101.762 88.7794C101.861 88.2948 101.931 87.8105 101.974 87.3199L101.603 87.2867ZM101.602 86.8487V87.3033H101.975V86.8487H101.602ZM100.287 85.3527C101.061 85.4069 101.643 86.0675 101.603 86.839L101.975 86.8584C102.026 85.8843 101.29 85.0493 100.313 84.9809L100.287 85.3527ZM100.189 85.3183L100.209 85.3297L100.391 85.0039L100.37 84.9925L100.189 85.3183ZM98.1168 104.848L98.5714 96.9085L98.1993 96.8872L97.7446 104.827L98.1168 104.848ZM97.8966 105.024H97.9307V104.651H97.8966V105.024ZM97.2297 106.148C97.7245 105.884 98.0567 105.41 98.0828 104.846L97.7104 104.829C97.6911 105.247 97.4459 105.61 97.0543 105.819L97.2297 106.148ZM95.6683 106.011C96.1138 106.336 96.7154 106.422 97.2297 106.148L97.0543 105.819C96.6821 106.017 96.2335 105.962 95.888 105.71L95.6683 106.011ZM89.1581 101.398L95.6704 106.012L95.8859 105.708L89.3736 101.094L89.1581 101.398ZM96.7329 96.9751C93.8643 97.6197 91.2328 99.053 89.1353 101.113L89.3965 101.379C91.4445 99.3675 94.0138 97.9682 96.8146 97.3388L96.7329 96.9751ZM98.3604 96.7126C97.8155 96.7724 97.2728 96.8597 96.7348 96.9747L96.8127 97.3392C97.3384 97.2269 97.8686 97.1415 98.4011 97.0831L98.3604 96.7126ZM98.3853 96.7115H98.3808V97.0842H98.3853V96.7115ZM102.152 97.082C105.533 97.502 108.679 99.0204 111.114 101.404L111.375 101.137C108.882 98.697 105.66 97.1423 102.198 96.7122L102.152 97.082ZM102.811 104.817L102.361 96.8865L101.989 96.9076L102.439 104.838L102.811 104.817ZM103.469 105.85C103.072 105.663 102.817 105.264 102.812 104.825L102.439 104.83C102.447 105.41 102.783 105.938 103.309 106.187L103.469 105.85ZM104.677 105.71C104.335 105.983 103.866 106.038 103.469 105.85L103.309 106.187C103.835 106.436 104.457 106.363 104.91 106.001L104.677 105.71ZM111.137 101.119L104.686 105.703L104.902 106.007L111.353 101.422L111.137 101.119ZM87.0265 104.094L87.0259 104.094L86.7778 104.372L86.7783 104.373L87.0265 104.094ZM84.8754 114.075C84.5019 110.675 85.2709 107.246 87.0612 104.331L86.7436 104.136C84.91 107.122 84.1224 110.633 84.5049 114.116L84.8754 114.075ZM92.2806 111.719L84.6387 113.917L84.7417 114.275L92.3837 112.077L92.2806 111.719ZM92.1458 111.875V111.898H92.5185V111.875H92.1458ZM93.0983 110.845C93.0046 111.257 92.6878 111.584 92.2827 111.695L92.3816 112.055C92.9175 111.907 93.3372 111.475 93.4617 110.927L93.0983 110.845ZM92.7348 109.722C93.053 109.999 93.1923 110.431 93.0983 110.845L93.4617 110.927C93.5859 110.382 93.4024 109.809 92.9796 109.441L92.7348 109.722ZM92.6709 109.547V109.581H93.0436V109.547H92.6709ZM86.7783 104.373L92.7331 109.686L92.9813 109.408L87.0265 104.094L86.7783 104.373ZM86.7453 104.133L86.7436 104.136L87.0612 104.331L87.0629 104.328L86.7453 104.133ZM87.0336 104.365L87.0359 104.362L86.7724 104.099L86.7701 104.101L87.0336 104.365ZM113.456 104.329C115.244 107.238 116.035 110.651 115.707 114.049L116.078 114.085C116.414 110.606 115.604 107.112 113.774 104.134L113.456 104.329ZM113.791 104.167L113.782 104.149L113.448 104.315L113.457 104.333L113.791 104.167ZM107.839 109.678L113.748 104.389L113.5 104.111L107.59 109.401L107.839 109.678ZM107.473 110.804C107.381 110.39 107.518 109.961 107.838 109.679L107.591 109.4C107.169 109.772 106.988 110.339 107.11 110.885L107.473 110.804ZM108.288 111.653C107.877 111.541 107.565 111.215 107.473 110.804L107.11 110.885C107.232 111.432 107.647 111.865 108.191 112.013L108.288 111.653ZM108.426 111.862V111.833H108.053V111.862H108.426ZM115.944 113.888L108.291 111.683L108.188 112.042L115.841 114.246L115.944 113.888ZM101.496 109.773H99.0592V110.146H101.496V109.773ZM103.131 111.736L101.642 109.844L101.349 110.075L102.838 111.966L103.131 111.736ZM102.625 114.256L103.166 111.892L102.803 111.809L102.262 114.173L102.625 114.256ZM100.336 115.435L102.524 114.383L102.363 114.047L100.174 115.099L100.336 115.435ZM97.9807 114.383L100.174 115.435L100.335 115.099L98.1419 114.047L97.9807 114.383ZM97.3633 111.891L97.8793 114.254L98.2434 114.175L97.7274 111.811L97.3633 111.891ZM98.9137 109.843L97.3999 111.734L97.6908 111.967L99.2047 110.076L98.9137 109.843ZM106.885 116.595C106.976 116.585 107.084 116.586 107.145 116.595L107.197 116.226C107.099 116.212 106.957 116.212 106.844 116.225L106.885 116.595ZM107.035 116.492L107.044 116.458L106.684 116.362L106.675 116.396L107.035 116.492ZM105.952 117.174C106.151 116.855 106.491 116.652 106.866 116.63L106.844 116.258C106.349 116.287 105.898 116.555 105.636 116.977L105.952 117.174ZM105.87 118.233C105.723 117.888 105.754 117.492 105.952 117.174L105.636 116.977C105.374 117.399 105.333 117.921 105.527 118.379L105.87 118.233ZM108.916 125.609L105.87 118.235L105.526 118.377L108.572 125.751L108.916 125.609ZM114.876 117.679C113.753 120.911 111.537 123.674 108.644 125.523L108.844 125.837C111.806 123.944 114.077 121.115 115.228 117.801L114.876 117.679ZM107.14 116.594L115.021 117.924L115.083 117.556L107.202 116.226L107.14 116.594ZM94.8857 116.952C94.6091 116.528 94.1405 116.266 93.6324 116.258L93.6266 116.631C94.0095 116.636 94.3638 116.834 94.5736 117.155L94.8857 116.952ZM95.0078 118.377C95.2071 117.911 95.1634 117.377 94.8857 116.952L94.5736 117.155C94.7824 117.475 94.816 117.878 94.6651 118.23L95.0078 118.377ZM95.0228 118.333V118.304H94.6501V118.333H95.0228ZM91.981 125.719L95.0087 118.404L94.6643 118.262L91.6366 125.576L91.981 125.719ZM85.3645 117.853C86.549 121.131 88.7755 123.925 91.7083 125.805L91.9093 125.491C89.0459 123.656 86.8717 120.927 85.715 117.727L85.3645 117.853ZM93.321 116.281L85.5086 117.606L85.5709 117.974L93.3834 116.648L93.321 116.281ZM93.6349 116.279C93.5338 116.269 93.4322 116.269 93.3327 116.279L93.3717 116.65C93.4449 116.642 93.5207 116.642 93.5968 116.65L93.6349 116.279ZM93.4744 116.341L93.4608 116.361L93.7709 116.568L93.7846 116.548L93.4744 116.341ZM100.236 119.813C100.672 119.799 101.078 120.032 101.287 120.415L101.614 120.237C101.339 119.73 100.801 119.422 100.224 119.44L100.236 119.813ZM100.419 119.59L100.398 119.547L100.061 119.706L100.082 119.749L100.419 119.59ZM99.2755 120.433C99.4763 120.082 99.8475 119.866 100.255 119.856L100.246 119.483C99.712 119.496 99.2195 119.78 98.952 120.247L99.2755 120.433ZM95.4125 127.379L99.2766 120.431L98.9509 120.249L95.0867 127.198L95.4125 127.379ZM103.75 127.548C100.952 128.188 98.0296 128.038 95.3096 127.112L95.1896 127.465C97.975 128.413 100.967 128.567 103.833 127.911L103.75 127.548ZM105.278 127.096L103.739 127.551L103.844 127.908L105.383 127.454L105.278 127.096ZM101.317 120.417L105.168 127.365L105.494 127.185L101.643 120.236L101.317 120.417ZM101.45 120.513H101.48V120.14H101.45V120.513Z" fill="white"/>
</svg>
