<svg width="107" height="107" viewBox="0 0 107 107" fill="none" xmlns="http://www.w3.org/2000/svg">
<g clip-path="url(#clip0_1311_32)">
<path d="M45.3737 9.78955L48.5258 15.1499H60.8348L63.903 9.92799L90.2585 22.4657C91.9018 23.2491 93.1259 24.7074 93.6081 26.4566L93.6719 26.7084L101.823 62.0872C102.261 63.8535 101.875 65.7113 100.801 67.1639L100.635 67.3787L77.7921 95.7504C76.6444 97.1415 74.9421 98.0167 73.1262 98.0945L72.853 98.1001H36.1959C34.3754 98.1084 32.6438 97.3375 31.4394 95.9844L31.2628 95.7771L8.40769 67.4113C8.28302 67.2513 8.1643 67.0854 8.0515 66.9135C7.14359 65.5751 6.81411 63.9558 7.10019 62.3866L7.16105 62.0931L15.2583 26.744C15.6887 24.8833 16.9442 23.322 18.6717 22.5013C18.6717 22.5013 45.3491 9.80021 45.3737 9.78955Z" fill="#326CE5"/>
<path d="M54.195 6.10527H54.1653C55.1196 6.06678 56.0689 6.24362 56.943 6.62094L57.2315 6.75412L63.903 9.9281L60.8348 15.15H48.5258L45.374 9.7881L51.7522 6.75116C52.4196 6.42177 53.139 6.21244 53.8775 6.13188L54.195 6.10527Z" fill="white"/>
<path opacity="0.28497" d="M46.5828 83.4506L58.9442 94.8131C59.3604 95.1957 60.0002 95.1957 60.4164 94.8131L72.7777 83.4506C73.2046 83.0582 73.4167 82.4846 73.3477 81.909L60.8347 19.1672H58.5257L46.0128 81.909C45.9439 82.4846 46.156 83.0583 46.5828 83.4506Z" fill="white"/>
<path d="M41.5828 83.4506L53.9442 94.8131C54.3604 95.1957 55.0002 95.1957 55.4164 94.8131L67.7777 83.4506C68.2046 83.0582 68.4167 82.4846 68.3477 81.909L60.8347 19.1672H48.5257L41.0128 81.909C40.9439 82.4846 41.156 83.0583 41.5828 83.4506Z" fill="white"/>
</g>
<defs>
<clipPath id="clip0_1311_32">
<rect width="107" height="107" fill="white"/>
</clipPath>
</defs>
</svg>
