<?xml version="1.0" encoding="UTF-8" standalone="no"?>
<!-- Generator: Adobe Illustrator 16.0.0, SVG Export Plug-In . SVG Version: 6.00 Build 0)  -->

<svg
   version="1.1"
   x="0px"
   y="0px"
   width="359.949px"
   height="359.958px"
   viewBox="0 0 359.949 359.958"
   enable-background="new 0 0 359.949 359.958"
   xml:space="preserve"
   id="svg894"
   sodipodi:docname="logo-gdg-pisa.svg"
   inkscape:version="1.1.2 (b8e25be8, 2022-02-05)"
   xmlns:inkscape="http://www.inkscape.org/namespaces/inkscape"
   xmlns:sodipodi="http://sodipodi.sourceforge.net/DTD/sodipodi-0.dtd"
   xmlns="http://www.w3.org/2000/svg"
   xmlns:svg="http://www.w3.org/2000/svg"><defs
   id="defs898">
	
	
	
	
	
	
	
	
	
	
	
		
	
</defs><sodipodi:namedview
   id="namedview896"
   pagecolor="#ffffff"
   bordercolor="#666666"
   borderopacity="1.0"
   inkscape:pageshadow="2"
   inkscape:pageopacity="0.0"
   inkscape:pagecheckerboard="0"
   showgrid="false"
   inkscape:zoom="1.574403"
   inkscape:cx="168.31777"
   inkscape:cy="176.89245"
   inkscape:window-width="1920"
   inkscape:window-height="969"
   inkscape:window-x="0"
   inkscape:window-y="25"
   inkscape:window-maximized="0"
   inkscape:current-layer="svg894" />
<g
   id="grafica_dietro">
	<g
   id="paesaggio_cipressi3">
	</g>
	<g
   id="paesaggio_cipressi2">
	</g>
	<g
   id="paesaggio_cipressi1">
	</g>
	<g
   id="torre_vet">
	</g>
	<g
   id="curve_nuove">
	</g>
</g>
<g
   id="google">
</g>
<g
   id="gdg">
</g>
<g
   id="tavola_3">
	<g
   id="giallo-verde">
	</g>
	<g
   id="rosso-blu">
	</g>
</g>
<path
   fill="#a7a9ac"
   d="m 119.46,234.526 c 0,0 34.019,-1.738 46.615,-1.587 10.779,0.129 42.209,5.698 42.209,5.698 0,0 2.264,-11.922 -3.059,-12.904 l 0.969,-16.5 c 0,0 7.348,-2.676 1.795,-9.57 0,0 6.674,-5.945 -0.826,-11.359 l 1.887,-13.857 c 0,0 5.855,-3.875 0.531,-8.311 l 2.176,-12.066 c 0,0 8.098,-4.682 1.693,-9.848 l 1.697,-13.055 c 0,0 4.842,-3.938 -0.242,-7.879 l 0.672,-12.602 c 0,0 6.588,-4.883 1.223,-8.912 l 0.775,-14.191 c 0,0 9.422,-3.693 2.414,-7.884 l -0.324,-15.267 c 0,0 6.127,-2.215 2.971,-7.388 l -9.107,-3.746 c 0,0 0.533,-16.931 2.232,-18.552 4.229,-4.028 3.256,-13.162 3.256,-13.162 l -56.381,-7.142 c 0,0 -3.623,12.56 0.008,15.021 0,0 -1.459,17.975 -1.459,17.979 l -12.334,2.708 c 0,0 -2.662,3.939 1.695,5.91 l -0.973,16.009 c 0,0 -5.564,3.443 -0.969,7.879 l -2.176,14.281 c 0,0 -7.014,1.727 -2.898,7.391 l -0.244,13.787 c 0,0 -8.713,3.449 -2.42,9.111 l -1.455,12.559 c 0,0 -5.561,2.709 -0.969,7.389 l -0.727,12.805 c 0,0 -6.77,2.461 -1.932,7.633 l -1.934,16.254 c 0,0 -6.584,2.469 -3.199,10.1 0,0 -5.328,4.01 -1.404,8.861 l -3.148,19.947 c -10.327,10.636 -6.638,14.46 -6.638,14.46 z"
   id="path835" /><g
   id="g839">
		<path
   fill="#f4bf18"
   d="m 255.681,195.681 c 3.405,0 6.855,-0.867 10.017,-2.693 l 72.71,-40.694 -51.357,-17.985 -41.424,23.916 c -9.6,5.542 -12.889,17.818 -7.347,27.418 3.717,6.438 10.464,10.038 17.401,10.038 z"
   id="path837" />
	</g><g
   id="g843">
		<path
   fill="#279d4d"
   d="m 326.129,154.986 c 6.937,0 15.907,-3.599 19.625,-10.039 5.542,-9.6 2.253,-21.875 -7.347,-27.417 l -72.71,-40.696 c -9.601,-5.542 -21.874,-2.254 -27.418,7.347 -5.542,9.599 -2.253,21.874 7.347,27.417 l 70.485,40.696 c 3.161,1.824 6.613,2.692 10.018,2.692 z"
   id="path841" />
	</g><g
   id="g847">
		<path
   fill="#e5472d"
   d="m 69.746,134.911 40.792,-23.551 c 9.601,-5.542 12.89,-17.818 7.347,-27.417 -5.542,-9.6 -17.816,-12.89 -27.417,-7.347 l -70.486,40.696 z"
   id="path845" />
	</g><g
   id="g851">
		<path
   fill="#577abc"
   d="m 100.483,195.443 c 6.938,0 13.684,-3.601 17.401,-10.039 5.543,-9.6 2.254,-21.876 -7.347,-27.418 L 40.051,117.292 c -9.601,-5.546 -19.65,-2.253 -25.193,7.347 -5.542,9.601 -4.478,21.875 5.123,27.417 l 70.486,40.695 c 3.161,1.825 6.612,2.692 10.016,2.692 z"
   id="path849" />
	</g><g
   id="g859">
		<path
   fill="#a7a9ac"
   d="m 323.57,186.018 c 0,0 7.135,29.145 0.968,30.232 l 0.121,5.683 h -1.089 v -5.804 c 0,0 -6.167,2.903 0,-30.111"
   id="path853" />
		<g
   id="g857">
			<path
   fill="#a7a9ac"
   d="m 323.57,188.518 c 0.987,4.061 1.794,8.176 2.441,12.304 0.251,1.602 0.478,3.207 0.653,4.819 0.115,1.062 0.146,2.152 0.285,3.205 0.304,2.284 0.575,-1.781 -0.006,0.117 -0.532,1.738 -0.206,4.154 -2.406,4.787 -0.246,0.07 -0.022,4.231 -0.013,4.658 0.04,1.895 0.08,3.789 0.121,5.684 0.004,-1.553 0.008,-3.106 0.013,-4.659 -0.363,0 -0.727,0 -1.089,0 0.009,0.834 0.017,1.667 0.024,2.5 0,-1.935 0,-3.869 0,-5.804 0,-0.188 -0.147,-2.446 -0.024,-2.5 -1.094,0.479 -1.758,-1.069 -2.066,-1.79 -0.298,-0.695 -0.378,-1.528 -0.481,-2.271 -0.093,-0.669 -0.094,-1.342 -0.159,-2.012 0.343,3.524 0.021,0.714 0.096,-0.24 0.496,-6.321 1.468,-12.562 2.611,-18.798 0.297,-1.618 -0.295,-3.396 0,-5 -1.785,9.733 -3.476,19.876 -2.665,29.827 0.074,0.909 0.48,6.24 2.665,5.284 -0.009,-0.833 -0.017,-1.667 -0.025,-2.5 0,1.935 0,3.869 0,5.804 0,0.143 -0.004,2.5 0.025,2.5 0.362,0 0.726,0 1.089,0 0.045,0 0.021,-4.281 0.013,-4.658 -0.041,-1.895 -0.081,-3.789 -0.122,-5.684 -0.004,1.553 -0.008,3.105 -0.012,4.659 4.177,-1.2 2.602,-12.438 2.36,-15.648 -0.494,-6.583 -1.77,-13.173 -3.328,-19.584 0.38,1.565 -0.384,3.419 0,5 z"
   id="path855" />
		</g>
	</g><g
   id="g867">
		<path
   fill="#a7a9ac"
   d="m 314.127,175.633 c 0,0 8.566,34.99 1.162,36.297 l 0.146,6.825 h -1.308 v -6.971 c 0,0.001 -7.404,3.486 0,-36.151"
   id="path861" />
		<g
   id="g865">
			<path
   fill="#a7a9ac"
   d="m 314.127,178.133 c 1.225,5.027 2.219,10.126 3.006,15.239 0.297,1.931 0.563,3.868 0.765,5.812 0.126,1.212 0.149,2.47 0.307,3.672 0.298,2.266 0.449,-2.174 -0.018,0.909 -0.309,2.041 -0.488,5.019 -2.897,5.665 -0.233,0.062 -0.021,4.237 -0.013,4.658 0.049,2.275 0.098,4.55 0.146,6.825 0.005,-1.553 0.009,-3.105 0.013,-4.658 -0.436,0 -0.871,0 -1.308,0 0.009,0.833 0.017,1.666 0.025,2.5 0,-2.324 0,-4.647 0,-6.971 0,-0.188 -0.149,-2.444 -0.025,-2.5 -1.298,0.576 -2.134,-1.282 -2.479,-2.148 -0.334,-0.84 -0.452,-1.783 -0.576,-2.674 -0.074,-0.541 -0.199,-3.618 -0.195,-1.396 -0.002,-0.969 0.085,-1.946 0.15,-2.911 0.503,-7.397 1.759,-14.739 3.099,-22.022 0.298,-1.618 -0.295,-3.396 0,-5 -2.105,11.444 -4.206,23.46 -3.174,35.168 0.094,1.064 0.656,7.101 3.174,5.983 -0.008,-0.833 -0.017,-1.666 -0.024,-2.5 0,2.323 0,4.646 0,6.971 0,0.142 -0.004,2.5 0.024,2.5 0.437,0 0.872,0 1.308,0 0.046,0 0.021,-4.282 0.013,-4.659 -0.049,-2.274 -0.097,-4.55 -0.146,-6.825 -0.004,1.554 -0.008,3.106 -0.013,4.659 4.896,-1.314 3.11,-14.183 2.826,-17.873 -0.605,-7.876 -2.12,-15.754 -3.988,-23.424 0.381,1.565 -0.385,3.419 0,5 z"
   id="path863" />
		</g>
	</g><g
   id="g875">
		<path
   fill="#a7a9ac"
   d="m 304.438,183.627 c 0,0 7.943,26.212 1.077,27.19 l 0.135,5.111 -1.212,0.652 v -5.221 c 0,0.002 -6.866,1.96 0,-27.732"
   id="path869" />
		<g
   id="g873">
			<path
   fill="#a7a9ac"
   d="m 304.438,186.127 c 1.119,3.719 2.042,7.516 2.771,11.329 0.271,1.419 0.514,2.844 0.702,4.276 0.102,0.774 0.18,1.548 0.262,2.324 0.243,2.3 -0.46,1.324 0.035,-0.035 -0.646,1.772 -0.42,3.748 -2.692,4.296 -0.224,0.054 -0.019,4.45 -0.007,4.91 0.045,1.704 0.09,3.408 0.135,5.112 0.003,-1.638 0.005,-3.274 0.007,-4.911 -0.404,0.218 -0.808,0.436 -1.212,0.652 0.009,0.834 0.017,1.667 0.025,2.5 0,-1.74 0,-3.48 0,-5.221 0,-0.155 -0.089,-2.483 -0.025,-2.5 -1.134,0.29 -1.867,-1.001 -2.267,-1.812 -0.317,-0.644 -0.432,-1.415 -0.553,-2.113 -0.118,-0.686 -0.144,-1.377 -0.199,-2.071 0.206,2.567 0.058,0.751 0.222,-0.96 0.509,-5.319 1.618,-10.571 2.796,-15.776 0.36,-1.593 -0.357,-3.424 0,-5 -0.094,0.412 -6.73,34.452 0,32.733 -0.008,-0.833 -0.017,-1.666 -0.025,-2.5 0,1.74 0,3.48 0,5.221 0,0.21 0.177,2.419 0.025,2.5 0.404,-0.217 0.808,-0.435 1.212,-0.652 0.396,-0.213 0.021,-4.336 0.007,-4.91 -0.045,-1.704 -0.09,-3.408 -0.135,-5.112 -0.002,1.638 -0.005,3.274 -0.007,4.911 4.212,-1.015 2.93,-10.178 2.726,-13.361 -0.405,-6.353 -1.973,-12.745 -3.803,-18.829 0.458,1.516 -0.462,3.461 0,4.999 z"
   id="path871" />
		</g>
	</g><g
   id="g881">
		<g
   id="g879">
			<path
   fill="#a8a9ad"
   d="m 55.553,247.123 c 8.045,-4.108 17.229,-6.082 26.042,-7.743 12.553,-2.365 25.299,-3.687 38.041,-4.478 27.382,-1.699 55.469,-1.31 82.519,3.631 11.637,2.126 23.706,5.021 33.928,11.199 2.07,1.251 3.957,-1.99 1.893,-3.238 -20.07,-12.132 -46.568,-14.199 -69.412,-15.512 -27.746,-1.595 -56.028,-0.621 -83.467,3.981 -10.639,1.784 -21.748,3.974 -31.436,8.921 -2.15,1.098 -0.256,4.334 1.892,3.239 z"
   id="path877" />
		</g>
	</g><g
   id="g887">
		<g
   id="g885">
			<path
   fill="#a8a9ad"
   d="m 230.051,243.883 c 28.076,-21.354 66.313,-31.203 99.937,-17.372 2.229,0.917 3.201,-2.709 0.997,-3.616 -34.431,-14.163 -74.066,-4.124 -102.827,17.75 -1.896,1.442 -0.03,4.7 1.893,3.238 z"
   id="path883" />
		</g>
	</g><g
   aria-label="GDG "
   id="text889"
   style="font-size:81.2913px;font-family:ProductSans-Regular;fill:#f2f2f2;stroke:#58595b;stroke-width:2;stroke-miterlimit:10"><g
     id="path3205"
     style="fill:#f2f2f2"><path
       style="color:#000000;-inkscape-font-specification:'Product Sans';stroke:none;-inkscape-stroke:none;fill:#f2f2f2"
       d="m 67.365578,294.10816 q 0,12.19369 -7.234926,19.42862 -8.129129,8.61688 -21.379611,8.61688 -12.681443,0 -21.460903,-8.77946 -8.7794599,-8.77946 -8.7794599,-21.62349 0,-12.84402 8.7794599,-21.62348 8.77946,-8.77946 21.460903,-8.77946 6.422013,0 12.112403,2.27615 5.690391,2.27616 9.3485,6.42202 l -5.365226,5.36522 q -2.682613,-3.25165 -6.991052,-5.04006 -4.227147,-1.8697 -9.104625,-1.8697 -9.511082,0 -16.095677,6.5846 -6.503304,6.66588 -6.503304,16.66471 0,9.99883 6.503304,16.66472 6.584595,6.58459 16.095677,6.58459 8.698169,0 14.469851,-4.87747 5.771682,-4.87748 6.665886,-13.41307 H 38.751041 v -6.99105 h 28.20808 q 0.406457,2.27616 0.406457,4.38973 z"
       id="path3232" /><path
       style="color:#000000;-inkscape-font-specification:'Product Sans';stroke:none;-inkscape-stroke:none;fill:#f2f2f2"
       d="m 38.751953,260.34766 c -8.685056,0 -16.144772,3.04907 -22.167969,9.07226 -6.025379,6.02538 -9.0742184,13.53956 -9.0742184,22.33008 0,8.79053 3.0488394,16.30665 9.0742184,22.33203 6.023197,6.0232 13.482913,9.07227 22.167969,9.07227 9.046734,0 16.492915,-2.98875 22.097656,-8.92578 5.012573,-5.02052 7.515625,-11.80193 7.515625,-20.1211 0,-1.47315 -0.141488,-2.99428 -0.421875,-4.56445 l -0.146484,-0.82422 H 37.751953 v 8.99023 H 58.6875 c -0.735138,4.92577 -2.723479,8.78742 -6.111328,11.65039 C 48.917546,312.45117 44.363811,314 38.751953,314 c -6.106058,0 -11.16298,-2.06913 -15.380859,-6.2832 l -0.0039,-0.004 c -0.0013,-0.001 -0.0026,-0.003 -0.0039,-0.004 C 19.20756,303.4454 17.152344,298.195 17.152344,291.75 c 0,-6.445 2.055216,-11.69345 6.210937,-15.95703 l 0.0039,-0.004 c 0.0013,-0.001 0.0026,-0.003 0.0039,-0.004 4.217879,-4.21409 9.274801,-6.28321 15.380859,-6.28321 3.123871,0 6.011246,0.5943 8.699219,1.78321 l 0.0098,0.006 0.01172,0.004 c 2.741965,1.13818 4.925078,2.71749 6.603516,4.75195 l 0.699219,0.84961 6.808593,-6.80859 -0.623047,-0.70312 c -2.548863,-2.88872 -5.807193,-5.12171 -9.726562,-6.68946 -3.914032,-1.56561 -8.082941,-2.34765 -12.482422,-2.34765 z m 0,2 c 4.163195,0 8.067087,0.73582 11.740234,2.20507 3.343073,1.33724 6.03873,3.22101 8.265625,5.53125 l -3.941406,3.94141 C 53.029608,272.1213 50.8793,270.54846 48.25,269.45508 c -2.94567,-1.30134 -6.12209,-1.95313 -9.498047,-1.95313 -6.571484,0 -12.242779,2.317 -16.802734,6.87696 l -0.0059,0.004 -0.0039,0.004 c -4.510059,4.62281 -6.787109,10.4806 -6.787109,17.36328 0,6.88268 2.27705,12.74047 6.787109,17.36328 l 0.0039,0.006 0.0059,0.004 C 26.509174,313.683 32.180469,316 38.751953,316 c 5.985689,0 11.078292,-1.70179 15.115234,-5.11328 4.047992,-3.42084 6.396364,-8.17977 7.013672,-14.07227 l 0.115235,-1.10547 H 39.751953 v -4.99023 h 26.298828 c 0.16886,1.15917 0.314453,2.30685 0.314453,3.38867 0,7.93134 -2.316752,14.098 -6.941406,18.72266 l -0.0098,0.01 -0.01172,0.01 c -5.233307,5.54731 -12.033514,8.30469 -20.650391,8.30469 -8.223518,0 -15.071168,-2.80359 -20.753906,-8.48633 -5.680556,-5.68056 -8.4882814,-12.58314 -8.4882814,-20.91797 0,-8.33482 2.8077254,-15.23546 8.4882814,-20.91602 5.682738,-5.68273 12.530388,-8.48632 20.753906,-8.48632 z"
       id="path3234" /></g><g
     id="path3207"
     style="fill:#f2f2f2"><path
       style="color:#000000;-inkscape-font-specification:'Product Sans';stroke:none;-inkscape-stroke:none;fill:#f2f2f2"
       d="m 76.452424,320.853 v -58.20457 h 17.802794 q 13.331772,0 21.379612,8.04784 8.12913,8.04783 8.12913,21.05444 0,13.0879 -8.12913,21.13574 -8.04784,7.96655 -21.379612,7.96655 z m 7.478799,-51.05094 v 43.8973 h 10.323995 q 10.161412,0 16.014382,-5.77168 5.85298,-5.85297 5.85298,-16.17697 0,-10.2427 -5.85298,-16.09567 -5.85297,-5.85298 -16.014382,-5.85298 z"
       id="path3238" /><path
       style="color:#000000;-inkscape-font-specification:'Product Sans';stroke:none;-inkscape-stroke:none;fill:#f2f2f2"
       d="m 75.453125,261.64844 v 60.20508 h 1 17.802734 c 9.087031,0 16.520601,-2.75061 22.082031,-8.25586 5.61202,-5.55591 8.42578,-12.91536 8.42578,-21.84766 0,-8.8794 -2.81495,-16.20896 -8.42578,-21.76367 -5.56012,-5.55841 -12.99464,-8.33789 -22.082031,-8.33789 z m 2,2 h 16.802734 c 8.686621,0 15.501881,2.58586 20.671871,7.75586 h 0.002 l 0.002,0.002 c 5.228,5.17572 7.83203,11.88102 7.83203,20.34375 0,8.51822 -2.60522,15.25124 -7.83203,20.42578 -5.16901,5.1168 -11.98713,7.67774 -20.675781,7.67774 H 77.453125 Z m 5.478516,5.15429 v 1 44.89649 h 11.324218 c 6.963601,0 12.608811,-2.00767 16.716801,-6.0586 l 0.002,-0.004 0.002,-0.002 c 4.10986,-4.10986 6.14649,-9.81313 6.14649,-16.88477 0,-7.01894 -2.03827,-12.69452 -6.14649,-16.80273 -4.10658,-4.10659 -9.75443,-6.14454 -16.720701,-6.14454 z m 2,2 h 9.324218 c 6.582271,0 11.609271,1.86122 15.306641,5.5586 3.69574,3.69574 5.56055,8.75069 5.56055,15.38867 0,6.69368 -1.86644,11.7766 -5.56055,15.4707 -3.69542,3.64077 -8.72522,5.47852 -15.306641,5.47852 h -9.324218 z"
       id="path3240" /></g><g
     id="path3209"
     style="fill:#f2f2f2"><path
       style="color:#000000;-inkscape-font-specification:'Product Sans';stroke:none;-inkscape-stroke:none;fill:#f2f2f2"
       d="m 188.66744,294.10816 q 0,12.19369 -7.23492,19.42862 -8.12913,8.61688 -21.37961,8.61688 -12.68145,0 -21.46091,-8.77946 -8.77946,-8.77946 -8.77946,-21.62349 0,-12.84402 8.77946,-21.62348 8.77946,-8.77946 21.46091,-8.77946 6.42201,0 12.1124,2.27615 5.69039,2.27616 9.3485,6.42202 l -5.36523,5.36522 q -2.68261,-3.25165 -6.99105,-5.04006 -4.22715,-1.8697 -9.10462,-1.8697 -9.51109,0 -16.09568,6.5846 -6.50331,6.66588 -6.50331,16.66471 0,9.99883 6.50331,16.66472 6.58459,6.58459 16.09568,6.58459 8.69816,0 14.46985,-4.87747 5.77168,-4.87748 6.66588,-13.41307 h -21.13573 v -6.99105 h 28.20808 q 0.40645,2.27616 0.40645,4.38973 z"
       id="path3244" /><path
       style="color:#000000;-inkscape-font-specification:'Product Sans';stroke:none;-inkscape-stroke:none;fill:#f2f2f2"
       d="m 160.05273,260.34766 c -8.68506,0 -16.14477,3.04907 -22.16796,9.07226 -6.02538,6.02538 -9.07227,13.53956 -9.07227,22.33008 0,8.79053 3.04689,16.30665 9.07227,22.33203 6.02319,6.0232 13.4829,9.07227 22.16796,9.07227 9.04362,0 16.48967,-2.98697 22.09375,-8.91993 5.01592,-5.02101 7.52149,-11.80501 7.52149,-20.12695 0,-1.47314 -0.14149,-2.99428 -0.42188,-4.56445 l -0.14843,-0.82422 h -30.04493 v 8.99023 h 20.93555 c -0.73513,4.92577 -2.72348,8.78742 -6.11133,11.65039 -3.65863,3.0918 -8.21236,4.64063 -13.82422,4.64063 -6.10553,0 -11.16125,-2.06986 -15.3789,-6.2832 -4.16101,-4.26503 -6.22071,-9.51772 -6.22071,-15.9668 0,-6.44908 2.0597,-11.69982 6.22071,-15.96484 4.21765,-4.21335 9.27337,-6.28321 15.3789,-6.28321 3.12387,0 6.0132,0.59429 8.70118,1.78321 l 0.01,0.006 0.01,0.004 c 2.74196,1.13818 4.92508,2.71749 6.60351,4.75195 l 0.70117,0.84961 6.80665,-6.80859 -0.6211,-0.70312 c -2.54886,-2.88872 -5.80719,-5.12171 -9.72656,-6.68946 -3.91403,-1.56561 -8.0849,-2.34765 -12.48438,-2.34765 z m 0,2 c 4.1632,0 8.06709,0.73582 11.74024,2.20507 3.34343,1.33738 6.03861,3.22261 8.26562,5.53321 l -3.93945,3.93945 c -1.7868,-1.90409 -3.93711,-3.47693 -6.56641,-4.57031 -2.94567,-1.30134 -6.12404,-1.95313 -9.5,-1.95313 -6.57148,0 -12.24278,2.317 -16.80273,6.87696 l -0.004,0.004 -0.004,0.004 c -4.51007,4.62281 -6.78907,10.4806 -6.78907,17.36328 0,6.88268 2.279,12.74047 6.78907,17.36328 l 0.004,0.006 0.004,0.004 C 147.80995,313.683 153.48125,316 160.05273,316 c 5.98569,0 11.07829,-1.70179 15.11524,-5.11328 4.04799,-3.42084 6.39832,-8.17977 7.01562,-14.07227 l 0.11524,-1.10547 h -21.2461 v -4.99023 h 26.30079 c 0.16885,1.15917 0.31445,2.30685 0.31445,3.38867 0,7.93134 -2.31871,14.098 -6.94336,18.72266 l -0.01,0.01 -0.01,0.01 c -5.23331,5.54731 -12.03547,8.30469 -20.65235,8.30469 -8.22352,0 -15.07116,-2.80359 -20.7539,-8.48633 -5.68056,-5.68056 -8.48633,-12.58314 -8.48633,-20.91797 0,-8.33482 2.80577,-15.23546 8.48633,-20.91602 5.68274,-5.68273 12.53038,-8.48632 20.7539,-8.48632 z"
       id="path3246" /></g></g><g
   aria-label="Pisa"
   transform="scale(0.99498745,1.0050378)"
   id="text891"
   style="font-size:87.1891px;font-family:ProductSans-Regular;fill:#f2f2f2;stroke-width:0.994987"><path
     d="m 217.34711,295.86619 v 25.28484 h -8.0214 v -62.4274 h 21.27414 q 8.10859,0 13.77588,5.40573 5.75448,5.40572 5.75448,13.16555 0,7.93421 -5.75448,13.25275 -5.5801,5.31853 -13.77588,5.31853 z m 0,-29.46991 v 21.79727 h 13.42712 q 4.7954,0 7.93421,-3.226 3.226,-3.22599 3.226,-7.67264 0,-4.35945 -3.226,-7.58545 -3.13881,-3.31318 -7.93421,-3.31318 z"
     style="font-family:'Product Sans';-inkscape-font-specification:'Product Sans';fill:#f2f2f2"
     id="path3293" /><path
     d="m 267.52035,263.69341 q 0,2.35411 -1.65659,4.0107 -1.6566,1.65659 -4.0107,1.65659 -2.35411,0 -4.0107,-1.65659 -1.65659,-1.65659 -1.65659,-4.0107 0,-2.3541 1.65659,-4.0107 1.65659,-1.65659 4.0107,-1.65659 2.3541,0 4.0107,1.65659 1.65659,1.6566 1.65659,4.0107 z m -1.65659,14.73496 v 42.72266 h -8.0214 v -42.72266 z"
     style="font-family:'Product Sans';-inkscape-font-specification:'Product Sans';fill:#f2f2f2"
     id="path3290" /><path
     d="m 309.08367,309.29331 q 0,5.58011 -4.88259,9.41643 -4.88259,3.83632 -12.29366,3.83632 -6.452,0 -11.33459,-3.31319 -4.88259,-3.40037 -6.97513,-8.89329 l 7.14951,-3.05162 q 1.5694,3.83632 4.53383,6.01605 3.05162,2.09254 6.62638,2.09254 3.83632,0 6.3648,-1.65659 2.61567,-1.6566 2.61567,-3.92351 0,-4.09789 -6.27761,-6.01605 l -7.32389,-1.83097 q -12.46804,-3.13881 -12.46804,-12.0321 0,-5.84167 4.70821,-9.32923 4.7954,-3.57475 12.20648,-3.57475 5.66729,0 10.20112,2.70286 4.62102,2.70286 6.452,7.23669 l -7.14951,2.96443 q -1.22065,-2.70286 -4.0107,-4.18507 -2.70286,-1.56941 -6.10324,-1.56941 -3.1388,0 -5.66729,1.56941 -2.44129,1.5694 -2.44129,3.83632 0,3.66194 6.88794,5.23134 l 6.45199,1.6566 q 12.72961,3.1388 12.72961,12.81679 z"
     style="font-family:'Product Sans';-inkscape-font-specification:'Product Sans';fill:#f2f2f2"
     id="path3287" /><path
     d="m 322.41815,308.07267 q 0,3.1388 2.61568,5.23134 2.70286,2.09254 6.27761,2.09254 5.05697,0 8.98048,-3.74913 4.0107,-3.74913 4.0107,-8.8061 -3.74913,-2.96443 -10.46269,-2.96443 -4.88259,0 -8.19578,2.35411 -3.226,2.3541 -3.226,5.84167 z m 10.37551,-31.03932 q 8.89328,0 14.03744,4.7954 5.14416,4.70821 5.14416,12.99117 v 26.33111 h -7.67264 v -5.92886 h -0.34876 q -4.96978,7.32389 -13.25274,7.32389 -7.06232,0 -11.85772,-4.18508 -4.70821,-4.18508 -4.70821,-10.46269 0,-6.62637 4.96978,-10.54988 5.05697,-3.92351 13.42712,-3.92351 7.14951,0 11.77053,2.61567 v -1.83097 q 0,-4.18508 -3.31319,-7.06232 -3.31318,-2.96443 -7.75983,-2.96443 -6.71356,0 -10.63707,5.66729 l -7.06232,-4.44664 q 5.84167,-8.37015 17.26345,-8.37015 z"
     style="font-family:'Product Sans';-inkscape-font-specification:'Product Sans';fill:#f2f2f2"
     id="path3284" /></g>
</svg>
