<?xml version="1.0" encoding="utf-8"?>
<!-- Generator: Adobe Illustrator 16.0.0, SVG Export Plug-In . SVG Version: 6.00 Build 0)  -->
<!DOCTYPE svg PUBLIC "-//W3C//DTD SVG 1.1//EN" "http://www.w3.org/Graphics/SVG/1.1/DTD/svg11.dtd">
<svg version="1.1" xmlns="http://www.w3.org/2000/svg" xmlns:xlink="http://www.w3.org/1999/xlink" x="0px" y="0px"
	 width="359.949px" height="359.958px" viewBox="0 0 359.949 359.958" enable-background="new 0 0 359.949 359.958"
	 xml:space="preserve">
<g id="grafica_dietro">
	<g id="paesaggio_cipressi3">
	</g>
	<g id="paesaggio_cipressi2">
	</g>
	<g id="paesaggio_cipressi1">
	</g>
	<g id="torre_vet">
	</g>
	<g id="curve_nuove">
	</g>
</g>
<g id="google">
</g>
<g id="gdg">
</g>
<g id="tavola_3">
	<g id="giallo-verde">
	</g>
	<g id="rosso-blu">
	</g>
</g>
<g id="tavola_2">
	<path fill="#A7A9AC" d="M119.46,234.526c0,0,34.019-1.738,46.615-1.587c10.779,0.129,42.209,5.698,42.209,5.698
		s2.264-11.922-3.059-12.904l0.969-16.5c0,0,7.348-2.676,1.795-9.57c0,0,6.674-5.945-0.826-11.359l1.887-13.857
		c0,0,5.855-3.875,0.531-8.311l2.176-12.066c0,0,8.098-4.682,1.693-9.848l1.697-13.055c0,0,4.842-3.938-0.242-7.879l0.672-12.602
		c0,0,6.588-4.883,1.223-8.912l0.775-14.191c0,0,9.422-3.693,2.414-7.884l-0.324-15.267c0,0,6.127-2.215,2.971-7.388l-9.107-3.746
		c0,0,0.533-16.931,2.232-18.552c4.229-4.028,3.256-13.162,3.256-13.162l-56.381-7.142c0,0-3.623,12.56,0.008,15.021
		c0,0-1.459,17.975-1.459,17.979l-12.334,2.708c0,0-2.662,3.939,1.695,5.91l-0.973,16.009c0,0-5.564,3.443-0.969,7.879
		l-2.176,14.281c0,0-7.014,1.727-2.898,7.391l-0.244,13.787c0,0-8.713,3.449-2.42,9.111l-1.455,12.559c0,0-5.561,2.709-0.969,7.389
		l-0.727,12.805c0,0-6.77,2.461-1.932,7.633l-1.934,16.254c0,0-6.584,2.469-3.199,10.1c0,0-5.328,4.01-1.404,8.861l-3.148,19.947
		C115.771,230.702,119.46,234.526,119.46,234.526z"/>
	<g>
		<path fill="#F4BF18" d="M255.681,195.681c3.405,0,6.855-0.867,10.017-2.693l72.71-40.694l-51.357-17.985l-41.424,23.916
			c-9.6,5.542-12.889,17.818-7.347,27.418C241.997,192.081,248.744,195.681,255.681,195.681z"/>
	</g>
	<g>
		<path fill="#279D4D" d="M326.129,154.986c6.937,0,15.907-3.599,19.625-10.039c5.542-9.6,2.253-21.875-7.347-27.417l-72.71-40.696
			c-9.601-5.542-21.874-2.254-27.418,7.347c-5.542,9.599-2.253,21.874,7.347,27.417l70.485,40.696
			C319.272,154.118,322.724,154.986,326.129,154.986z"/>
	</g>
	<g>
		<path fill="#E5472D" d="M69.746,134.911l40.792-23.551c9.601-5.542,12.89-17.818,7.347-27.417
			c-5.542-9.6-17.816-12.89-27.417-7.347l-70.486,40.696L69.746,134.911z"/>
	</g>
	<g>
		<path fill="#577ABC" d="M100.483,195.443c6.938,0,13.684-3.601,17.401-10.039c5.543-9.6,2.254-21.876-7.347-27.418l-70.486-40.694
			c-9.601-5.546-19.65-2.253-25.193,7.347c-5.542,9.601-4.478,21.875,5.123,27.417l70.486,40.695
			C93.628,194.576,97.079,195.443,100.483,195.443z"/>
	</g>
	<g>
		<path fill="#A7A9AC" d="M323.57,186.018c0,0,7.135,29.145,0.968,30.232l0.121,5.683h-1.089v-5.804
			C323.57,216.129,317.403,219.032,323.57,186.018"/>
		<g>
			<path fill="#A7A9AC" d="M323.57,188.518c0.987,4.061,1.794,8.176,2.441,12.304c0.251,1.602,0.478,3.207,0.653,4.819
				c0.115,1.062,0.146,2.152,0.285,3.205c0.304,2.284,0.575-1.781-0.006,0.117c-0.532,1.738-0.206,4.154-2.406,4.787
				c-0.246,0.07-0.022,4.231-0.013,4.658c0.04,1.895,0.08,3.789,0.121,5.684c0.004-1.553,0.008-3.106,0.013-4.659
				c-0.363,0-0.727,0-1.089,0c0.009,0.834,0.017,1.667,0.024,2.5c0-1.935,0-3.869,0-5.804c0-0.188-0.147-2.446-0.024-2.5
				c-1.094,0.479-1.758-1.069-2.066-1.79c-0.298-0.695-0.378-1.528-0.481-2.271c-0.093-0.669-0.094-1.342-0.159-2.012
				c0.343,3.524,0.021,0.714,0.096-0.24C321.455,200.995,322.427,194.754,323.57,188.518c0.297-1.618-0.295-3.396,0-5
				c-1.785,9.733-3.476,19.876-2.665,29.827c0.074,0.909,0.48,6.24,2.665,5.284c-0.009-0.833-0.017-1.667-0.025-2.5
				c0,1.935,0,3.869,0,5.804c0,0.143-0.004,2.5,0.025,2.5c0.362,0,0.726,0,1.089,0c0.045,0,0.021-4.281,0.013-4.658
				c-0.041-1.895-0.081-3.789-0.122-5.684c-0.004,1.553-0.008,3.105-0.012,4.659c4.177-1.2,2.602-12.438,2.36-15.648
				c-0.494-6.583-1.77-13.173-3.328-19.584C323.95,185.083,323.186,186.937,323.57,188.518L323.57,188.518z"/>
		</g>
	</g>
	<g>
		<path fill="#A7A9AC" d="M314.127,175.633c0,0,8.566,34.99,1.162,36.297l0.146,6.825h-1.308v-6.971
			C314.127,211.785,306.723,215.27,314.127,175.633"/>
		<g>
			<path fill="#A7A9AC" d="M314.127,178.133c1.225,5.027,2.219,10.126,3.006,15.239c0.297,1.931,0.563,3.868,0.765,5.812
				c0.126,1.212,0.149,2.47,0.307,3.672c0.298,2.266,0.449-2.174-0.018,0.909c-0.309,2.041-0.488,5.019-2.897,5.665
				c-0.233,0.062-0.021,4.237-0.013,4.658c0.049,2.275,0.098,4.55,0.146,6.825c0.005-1.553,0.009-3.105,0.013-4.658
				c-0.436,0-0.871,0-1.308,0c0.009,0.833,0.017,1.666,0.025,2.5c0-2.324,0-4.647,0-6.971c0-0.188-0.149-2.444-0.025-2.5
				c-1.298,0.576-2.134-1.282-2.479-2.148c-0.334-0.84-0.452-1.783-0.576-2.674c-0.074-0.541-0.199-3.618-0.195-1.396
				c-0.002-0.969,0.085-1.946,0.15-2.911C311.531,192.758,312.787,185.416,314.127,178.133c0.298-1.618-0.295-3.396,0-5
				c-2.105,11.444-4.206,23.46-3.174,35.168c0.094,1.064,0.656,7.101,3.174,5.983c-0.008-0.833-0.017-1.666-0.024-2.5
				c0,2.323,0,4.646,0,6.971c0,0.142-0.004,2.5,0.024,2.5c0.437,0,0.872,0,1.308,0c0.046,0,0.021-4.282,0.013-4.659
				c-0.049-2.274-0.097-4.55-0.146-6.825c-0.004,1.554-0.008,3.106-0.013,4.659c4.896-1.314,3.11-14.183,2.826-17.873
				c-0.605-7.876-2.12-15.754-3.988-23.424C314.508,174.698,313.742,176.552,314.127,178.133L314.127,178.133z"/>
		</g>
	</g>
	<g>
		<path fill="#A7A9AC" d="M304.438,183.627c0,0,7.943,26.212,1.077,27.19l0.135,5.111l-1.212,0.652v-5.221
			C304.438,211.361,297.572,213.319,304.438,183.627"/>
		<g>
			<path fill="#A7A9AC" d="M304.438,186.127c1.119,3.719,2.042,7.516,2.771,11.329c0.271,1.419,0.514,2.844,0.702,4.276
				c0.102,0.774,0.18,1.548,0.262,2.324c0.243,2.3-0.46,1.324,0.035-0.035c-0.646,1.772-0.42,3.748-2.692,4.296
				c-0.224,0.054-0.019,4.45-0.007,4.91c0.045,1.704,0.09,3.408,0.135,5.112c0.003-1.638,0.005-3.274,0.007-4.911
				c-0.404,0.218-0.808,0.436-1.212,0.652c0.009,0.834,0.017,1.667,0.025,2.5c0-1.74,0-3.48,0-5.221c0-0.155-0.089-2.483-0.025-2.5
				c-1.134,0.29-1.867-1.001-2.267-1.812c-0.317-0.644-0.432-1.415-0.553-2.113c-0.118-0.686-0.144-1.377-0.199-2.071
				c0.206,2.567,0.058,0.751,0.222-0.96C302.151,196.584,303.26,191.332,304.438,186.127c0.36-1.593-0.357-3.424,0-5
				c-0.094,0.412-6.73,34.452,0,32.733c-0.008-0.833-0.017-1.666-0.025-2.5c0,1.74,0,3.48,0,5.221c0,0.21,0.177,2.419,0.025,2.5
				c0.404-0.217,0.808-0.435,1.212-0.652c0.396-0.213,0.021-4.336,0.007-4.91c-0.045-1.704-0.09-3.408-0.135-5.112
				c-0.002,1.638-0.005,3.274-0.007,4.911c4.212-1.015,2.93-10.178,2.726-13.361c-0.405-6.353-1.973-12.745-3.803-18.829
				C304.896,182.644,303.976,184.589,304.438,186.127L304.438,186.127z"/>
		</g>
	</g>
	<g>
		<g>
			<path fill="#A8A9AD" d="M55.553,247.123c8.045-4.108,17.229-6.082,26.042-7.743c12.553-2.365,25.299-3.687,38.041-4.478
				c27.382-1.699,55.469-1.31,82.519,3.631c11.637,2.126,23.706,5.021,33.928,11.199c2.07,1.251,3.957-1.99,1.893-3.238
				c-20.07-12.132-46.568-14.199-69.412-15.512c-27.746-1.595-56.028-0.621-83.467,3.981c-10.639,1.784-21.748,3.974-31.436,8.921
				C51.511,244.982,53.405,248.218,55.553,247.123L55.553,247.123z"/>
		</g>
	</g>
	<g>
		<g>
			<path fill="#A8A9AD" d="M230.051,243.883c28.076-21.354,66.313-31.203,99.937-17.372c2.229,0.917,3.201-2.709,0.997-3.616
				c-34.431-14.163-74.066-4.124-102.827,17.75C226.262,242.087,228.128,245.345,230.051,243.883L230.051,243.883z"/>
		</g>
	</g>
	
		<text transform="matrix(1 0 0 1 5.5029 310.853)" fill="#58595B" stroke="#58595B" stroke-width="2" stroke-miterlimit="10" font-family="'ProductSans-Regular'" font-size="81.2913">GDG </text>
	<text transform="matrix(0.99 0 0 1 202.0303 312.769)" fill="#58595B" font-family="'ProductSans-Regular'" font-size="87.6283">Pisa</text>
</g>
</svg>
