<?xml version="1.0" encoding="utf-8"?>
<!-- Generator: Adobe Illustrator 25.1.0, SVG Export Plug-In . SVG Version: 6.00 Build 0)  -->
<svg version="1.1" id="Livello_1" xmlns="http://www.w3.org/2000/svg" xmlns:xlink="http://www.w3.org/1999/xlink" x="0px" y="0px"
	 viewBox="0 0 2000 640.86" style="enable-background:new 0 0 2000 640.86;" xml:space="preserve">
<style type="text/css">
	.st0{fill:#0A14EB;}
</style>
<g>
	<polygon class="st0" points="740.77,119.19 809.87,119.19 809.87,299.59 878.97,299.59 878.97,50.09 671.66,50.09 671.66,299.59 
		740.77,299.59 	"/>
	<path class="st0" d="M1111.44,299.59h16.02l-0.08-249.5h-158.8v69.07h89.81v20.78H920.72v159.65h160.33H1111.44z M1058.38,230.15
		h-68.96v-20.98h68.96V230.15z"/>
	<path class="st0" d="M1221.4,590.42h16.02l-0.08-249.5h-158.8v69.07h89.81v20.78h-137.66v159.65h160.33H1221.4z M1168.35,520.98
		h-68.96V500h68.96V520.98z"/>
	<polygon class="st0" points="1237.85,119.19 1306.95,119.19 1306.95,299.59 1376.05,299.59 1376.05,50.09 1168.74,50.09 
		1168.74,299.59 1237.85,299.59 	"/>
	<polygon class="st0" points="1348.45,410.02 1417.55,410.02 1417.55,590.42 1486.65,590.42 1486.65,340.92 1279.34,340.92 
		1279.34,590.42 1348.45,590.42 	"/>
	<path class="st0" d="M1608.52,299.59h16.02l-0.08-249.5h-158.8v69.07h89.81v20.78h-137.66v159.65h160.33H1608.52z M1555.46,230.15
		h-68.96v-20.98h68.96V230.15z"/>
	<path class="st0" d="M1932.54,590.42h16.02l-0.08-249.5h-158.8v69.07h89.81v20.78h-137.66v159.65h160.33H1932.54z M1879.48,520.98
		h-68.96V500h68.96V520.98z"/>
	<polygon class="st0" points="1527.79,590.42 1700.48,590.42 1700.48,520.94 1596.83,520.94 1596.83,410.16 1700.48,410.16 
		1700.48,340.93 1527.79,340.93 	"/>
	<rect x="920.5" y="340.93" class="st0" width="68.82" height="249.49"/>
	<path class="st0" d="M445.61,419.83c-7.04-7.34-10.48-17.29-10.68-27.49v-73.36v-73c0.2-10.23,3.7-20.34,10.68-27.68L583.87,81.4
		c7.19-7.18,7.19-18.85,0-26.06h-0.07l-0.01-0.07c-7.22-7.2-18.86-7.2-26.05,0L419.5,192.15c-7.31,7.04-17.35,12.48-27.54,12.66
		h-73.13h-71.96c-10.19-0.18-21.43-5.65-28.79-12.67L81.06,55.28c-7.15-7.2-18.78-7.2-25.98,0l-0.06,0.05l-0.06,0.01
		c-7.19,7.2-7.19,18.87,0,26.06l137,136.85c7.04,7.33,11.07,17.11,11.2,27.31l0.05,73.42l-0.05,73.51
		c-0.13,10.2-4.16,19.92-11.2,27.25l-137,139.28c-7.19,7.16-7.19,18.82,0,26.02l0.06,0.03l0.06,0.04c7.19,7.18,18.89,7.18,26.02,0
		l136.98-139.25c7.35-7.01,17.29-9.36,27.51-9.48h73.23h73.99c10.21,0.16,20.94,4.07,28.24,11.12l136.71,137.62
		c7.18,7.18,18.82,7.18,26.04,0l0.01-0.04h0.07c7.19-7.24,7.19-18.9,0-26.02L445.61,419.83z"/>
	<path class="st0" d="M878.71,590.42V410.16H740.68v-69.23h-69.02v249.49H878.71z M809.7,520.94h-69.02V479.4h69.02V520.94z"/>
</g>
</svg>
