<svg xmlns="http://www.w3.org/2000/svg" viewBox="0 0 324.64 47.47"><defs><style>.cls-1{fill:#fff;fill-rule:evenodd}</style></defs><g id="Layer_2" data-name="Layer 2"><g id="Layer_1-2" data-name="Layer 1"><path class="cls-1" d="M48.06 37 35.44 20.49V3.41h10.43a2.19 2.19 0 0 1 2.19 2.19zM46 44h-9.45a6.84 6.84 0 0 1-5.42-2.68L4.1 6.05a1.64 1.64 0 0 1 1.3-2.64h9.4a6.83 6.83 0 0 1 5.42 2.67l27.08 35.3A1.65 1.65 0 0 1 46 44zm-30.08 0H5.5a2.2 2.2 0 0 1-2.19-2.19V10.33l12.61 16.58zM45.8 0H33.9a1.71 1.71 0 0 0-1.7 1.71v14.56L22.86 4a10.16 10.16 0 0 0-8.09-4H5.54A5.54 5.54 0 0 0 0 5.54v36.39a5.54 5.54 0 0 0 5.54 5.54h11.92a1.71 1.71 0 0 0 1.71-1.71V31l9.28 12.4a10.2 10.2 0 0 0 8.14 4.07h9.21a5.53 5.53 0 0 0 5.53-5.54V5.54A5.53 5.53 0 0 0 45.8 0zM114.8 43.4h-7.58L88.37 21.82V43.4H78.6V4.07h7.46l18.97 22.15V4.07h9.77V43.4zM125.23 26.62h11.45a5.19 5.19 0 0 0-5.55-4.68 5.73 5.73 0 0 0-5.9 4.68m20.07 5.32-.06.18h-19.89a6.05 6.05 0 0 0 6.3 4.51 4.81 4.81 0 0 0 4.28-2h9.25c-1.33 5.79-6.71 9.43-13.65 9.43-9.19 0-15.32-6.13-15.32-14.69s6-14.63 14.92-14.63c8.15 0 14.34 5.61 14.34 14.05a20 20 0 0 1-.17 3.18M168.09 33.68V25a7.24 7.24 0 0 0-5.84-2.66 6.69 6.69 0 0 0-6.59 7 6.64 6.64 0 0 0 6.59 6.94 7.2 7.2 0 0 0 5.84-2.6zm9.37 9.71h-9.37v-1.56A14 14 0 0 1 160.4 44c-7.57 0-13.93-6.3-13.93-14.63s6.36-14.63 13.93-14.63a14 14 0 0 1 7.69 2.14v-1.5h9.37zM198.66 23.79c-4.57.17-7.46 1.39-9.66 3.59v16h-9.37v-28H189v3a14 14 0 0 1 9.66-3.48zM229.3 12.69V4.07H200V43.4h9.78V29.52h14.66v-.17a17.05 17.05 0 0 1 2.07-8.35h-16.75v-8.31zM276.52 23.79c-4.57.17-7.46 1.39-9.66 3.59v16h-9.36v-28h9.36v3a14 14 0 0 1 9.66-3.48zM324.64 27.38v16h-9.43v-14.5c0-4-1.91-5.9-5-5.9a5.48 5.48 0 0 0-4.28 2.31c.06.7.12 1.39.12 2.09v16h-9.37v-14.5c0-4-2-5.9-5-5.9-1.45 0-2.84.7-4.23 2.49v17.92H278v-28h9.36V17a9.89 9.89 0 0 1 7-2.55 11 11 0 0 1 8.64 3.79 13.7 13.7 0 0 1 10-3.76c6.71 0 11.69 4.92 11.69 12.9M247.49 29.4a6.34 6.34 0 1 0-12.66 0c0 3.76 2.55 6.77 6.36 6.77s6.3-3 6.3-6.77m8.85-.06c0 8.56-6.36 14.92-15.21 14.92s-15.2-6.36-15.2-14.92 6.36-14.63 15.2-14.63 15.21 6.19 15.21 14.63"/></g></g></svg>