<?xml version="1.0" encoding="utf-8"?>
<!-- Generator: Adobe Illustrator 18.1.0, SVG Export Plug-In . SVG Version: 6.00 Build 0)  -->
<!DOCTYPE svg PUBLIC "-//W3C//DTD SVG 1.1//EN" "http://www.w3.org/Graphics/SVG/1.1/DTD/svg11.dtd">
<svg version="1.1" id="nephila_x5F_logo_1_" xmlns="http://www.w3.org/2000/svg" xmlns:xlink="http://www.w3.org/1999/xlink"
	 x="0px" y="0px" viewBox="0 0 250 46" enable-background="new 0 0 250 46" xml:space="preserve">
<g>
	<rect x="100" fill="#FFFFFF" width="2" height="46"/>
	<polygon fill="#FFFFFF" points="128,12 112,12 112,34 118,34 118,16 124,16 124,34 130,34 130,14 128,14 	"/>
	<path fill="#FFFFFF" d="M152,12h-16v22h18v-4h-12v-4h12V14h-2V12z M148,22h-6v-6h6V22z"/>
	<path fill="#FFFFFF" d="M248,12h-12v4h8v4h-12v14h18V14h-2V12z M244,30h-6v-6h6V30z"/>
	<path fill="#FFFFFF" d="M176,12h-16v28h6v-6h12V14h-2V12z M172,30h-6V16h6V30z"/>
	<polygon fill="#FFFFFF" points="200,12 190,12 190,6 184,6 184,34 190,34 190,16 196,16 196,34 202,34 202,14 200,14 	"/>
	<rect x="208" y="12" fill="#FFFFFF" width="6" height="22"/>
	<rect x="208" y="6" fill="#FFFFFF" width="6" height="4"/>
	<rect x="220" y="6" fill="#FFFFFF" width="6" height="28"/>
	<path fill="#FFFFFF" d="M88,22v-2h-2v-2h-2v-2h-2v-2h-2v-2h-2v-2h-4V8h-2V6h-2V4h-4v2h-2v2h-2v2h-2v2h-2v2h-2v-2h-2v-2h-2V8H38v2
		h-2v2h-2v2h-2v-2h-2v-2h-2V8h-2V6h-2V4h-4v2h-2v2h-2v2h-4v2h-2v2H8v2H6v2H4v2H2v2H0v8h4v-6h2v-2h2v-2h2v-2h2v-2h2v-2h4v2h2v2h2v2h6
		v2h-8v-2h-6v4h-2v4h-2v4H8v10h4V32h2v-4h2v-4h4v2h8v-2h2v-2h2v2h-2v2h-2v4h-2v4h-2v6h4v-6h2v-4h2v-2h2v-2h2v-2h2v2h14v-2h2v2h2v2h2
		v2h2v4h2v6h4v-6h-2v-4h-2v-4h-2v-2h-2v-2h2v2h2v2h8v-2h4v4h2v4h2v10h4V32h-2v-4h-2v-4h-2v-4h-6v2h-8v-2h6v-2h2v-2h2v-2h4v2h2v2h2v2
		h2v2h2v2h2v6h4v-8H88z M28,16h-4v-2h-2v-2h-2v-2h4v2h2v2h2V16z M44,18h-2v-4h2V18z M52,18h-2v-4h2V18z M70,12h-2v2h-2v2h-4v-2h2v-2
		h2v-2h4V12z"/>
</g>
</svg>
