<svg width="288" height="56" viewBox="0 0 288 56" fill="none" xmlns="http://www.w3.org/2000/svg">
<rect width="100%" height="100%" fill="#000" fill-opacity="0" />
<path fill-rule="evenodd" clip-rule="evenodd" d="M75.1667 14H79.4505L92.9765 35.6927V14H96.4219V40.7787H92.3568L78.6302 19.1042V40.7787H75.1667V14ZM109.941 14H129.464V17.2813H113.477V25.4115H128.261V28.5104H113.477V37.5886H129.738V40.7787H109.941V14ZM161.449 17.1901V14H139.72V17.1901H148.743V40.7787H152.426V17.1901H161.449ZM182.515 37.6797C183.742 37.6797 184.751 37.5521 185.541 37.2969C186.95 36.8229 188.105 35.9115 189.004 34.5625C189.721 33.4809 190.238 32.0955 190.554 30.4063C190.736 29.3976 190.827 28.4618 190.827 27.599C190.827 24.2812 190.168 21.7049 188.849 19.8698C187.531 18.0347 185.407 17.1172 182.478 17.1172H176.043V37.6797H182.515ZM172.397 14H183.244C186.926 14 189.782 15.3064 191.811 17.9193C193.622 20.2769 194.528 23.2969 194.528 26.9792C194.528 29.8229 193.993 32.3932 192.923 34.6901C191.04 38.7492 187.801 40.7787 183.207 40.7787H172.397V14ZM216.341 17.974L220.406 29.8047H212.02L216.341 17.974ZM218.546 14H214.445L204.364 40.7787H208.083L210.981 32.7578H221.572L224.288 40.7787H228.262L218.546 14ZM255.763 14V17.1901H246.74V40.7787H243.057V17.1901H234.034V14H255.763ZM273.474 17.974L277.54 29.8047H269.154L273.474 17.974ZM275.68 14H271.579L261.498 40.7787H265.217L268.115 32.7578H278.706L281.422 40.7787H285.396L275.68 14Z" fill="white"/>
<path fill-rule="evenodd" clip-rule="evenodd" d="M34.9472 51.3334H23.6506L0.5 7H33.3617C46.1398 7.0233 56.4932 17.2969 56.5 29.9707C56.4795 41.7815 46.84 51.3334 34.9472 51.3334Z" fill="#00AB44"/>
<defs>
<clipPath id="clip0_2_10795">
<rect width="212.333" height="28" fill="white" transform="translate(75.1667 14)"/>
</clipPath>
</defs>
</svg>
