<svg id="Layer_1" data-name="Layer 1" xmlns="http://www.w3.org/2000/svg" viewBox="0 0 335.51 163.62"><defs><style>.cls-1,.cls-2{fill:#fff;}.cls-1{fill-rule:evenodd;}</style></defs><title>OVHcloud_stacked_logo_white_RGB</title><path class="cls-1" d="M272.42,42.2a65,65,0,0,1-6.07,72.17H231.57l10.71-18.92H228.12L244.81,66h14.25L272.42,42.2Zm-68.69,72.17H168.27A64.26,64.26,0,0,1,162.12,42l23,40,25.35-44.16h37.34l-44.06,76.52h0l0,0Z" transform="translate(-49.43 -37.83)"/><path class="cls-2" d="M49.43,171.31c0-20.41,10.16-30.22,26.87-30.22s26.86,9.81,26.86,30.22c0,20.24-10.16,30.14-26.86,30.14S49.43,191.55,49.43,171.31Zm6,0c0,16.79,7.66,24.8,20.84,24.8s20.84-8,20.84-24.8-7.67-24.89-20.84-24.89S55.46,154.43,55.46,171.31Z" transform="translate(-49.43 -37.83)"/><path class="cls-2" d="M147.08,143.5a3,3,0,0,1,2.76-1.9,2.91,2.91,0,0,1,2.93,2.93,4.39,4.39,0,0,1-.26,1.29L132.36,199a2.91,2.91,0,0,1-5.51,0L106.7,145.82a4.09,4.09,0,0,1-.26-1.29,2.9,2.9,0,0,1,2.92-2.93,3,3,0,0,1,2.76,1.9l17.48,46.33Z" transform="translate(-49.43 -37.83)"/><path class="cls-2" d="M165,173.21V198a2.93,2.93,0,0,1-5.86,0V144.53a2.93,2.93,0,0,1,5.86,0v23.34h30V144.53a2.93,2.93,0,0,1,5.86,0V198a2.93,2.93,0,0,1-5.86,0v-24.8Z" transform="translate(-49.43 -37.83)"/><path class="cls-2" d="M228.46,159.94c7.67,0,11.89,4.05,13.27,5.95a2.56,2.56,0,0,1,.6,1.63,2.45,2.45,0,0,1-2.5,2.5,2.61,2.61,0,0,1-2.07-1c-1.29-1.47-3.61-4.05-9.3-4.05-7.92,0-12.14,5.08-12.14,15.67,0,10.77,4.22,15.76,12.14,15.76a15.7,15.7,0,0,0,10-3.7,2.6,2.6,0,0,1,1.64-.61,2.5,2.5,0,0,1,2.5,2.5,2.66,2.66,0,0,1-1.12,2.15,19.66,19.66,0,0,1-13,4.65c-11.11,0-17.74-6.63-17.74-20.75S217.35,159.94,228.46,159.94Z" transform="translate(-49.43 -37.83)"/><path class="cls-2" d="M255.94,141.69v49.17c0,3.44,1.11,4.91,3.44,4.91a2.58,2.58,0,1,1,0,5.16c-5.77,0-9-3.44-9-10.07V141.69a2.84,2.84,0,0,1,2.76-2.76A2.78,2.78,0,0,1,255.94,141.69Z" transform="translate(-49.43 -37.83)"/><path class="cls-2" d="M302.87,180.61c0,14.12-6.89,20.75-18.09,20.75s-18.08-6.63-18.08-20.75,7-20.67,18.08-20.67S302.87,166.49,302.87,180.61Zm-5.6,0c0-10.85-4.56-15.67-12.49-15.67s-12.48,4.82-12.48,15.67c0,11,4.56,15.76,12.48,15.76S297.27,191.63,297.27,180.61Z" transform="translate(-49.43 -37.83)"/><path class="cls-2" d="M316.13,163.22v22.47c0,5.6,1.81,10.42,10.51,10.42s10.5-4.82,10.5-10.42V163.22a2.8,2.8,0,0,1,2.84-2.76,2.7,2.7,0,0,1,2.67,2.76v22.47c0,8.18-2.67,15.67-16,15.67s-16-7.49-16-15.67V163.22a2.72,2.72,0,0,1,2.75-2.76A2.78,2.78,0,0,1,316.13,163.22Z" transform="translate(-49.43 -37.83)"/><path class="cls-2" d="M379.43,165.54V141.69a2.76,2.76,0,1,1,5.51,0V184.4c0,11.37-7.06,17-16.88,17-11.11,0-17.66-6.63-17.66-20.75s6.21-20.67,17.31-20.67A14.63,14.63,0,0,1,379.43,165.54Zm0,7s-3.28-7.58-11.37-7.58c-7.84,0-12.14,5.08-12.14,15.67,0,10.77,4.22,15.76,12.14,15.76,6.63,0,11.37-3.79,11.37-12Z" transform="translate(-49.43 -37.83)"/></svg>