<?xml version="1.0" encoding="utf-8"?>
<!-- Generator: Adobe Illustrator 24.2.3, SVG Export Plug-In . SVG Version: 6.00 Build 0)  -->
<svg version="1.1" id="Layer_1" xmlns="http://www.w3.org/2000/svg" xmlns:xlink="http://www.w3.org/1999/xlink" x="0px" y="0px"
	 viewBox="0 0 184 21" style="enable-background:new 0 0 184 21;" xml:space="preserve">
<style type="text/css">
	.st0{fill-rule:evenodd;clip-rule:evenodd;fill:#FFFFFF;}
	.st1{filter:url(#Adobe_OpacityMaskFilter);}
	.st2{mask:url(#mask-2_1_);fill-rule:evenodd;clip-rule:evenodd;fill:#FFFFFF;}
	.st3{fill-rule:evenodd;clip-rule:evenodd;fill:#AFE614;}
	.st4{fill-rule:evenodd;clip-rule:evenodd;fill:#6EBE00;}
</style>
<g id="Logo_x2F_patchstack_x2F_Light">
	<g id="Group-27">
		<path id="Fill-1" class="st0" d="M50.4,11c0-2.4-1.1-3.4-3.8-3.4c-2.6,0-3.9,1.1-3.9,3.4c0,2.3,1.3,3.4,3.9,3.4
			C49.3,14.4,50.4,13.3,50.4,11 M53.4,11c0,3.8-2.1,6.1-6,6.1c-2,0-3.8-1.1-4.7-3.1v7h-3.1V5.1h3.1V8c0.9-2,2.7-3.2,4.8-3.2
			C51.4,4.8,53.4,7.2,53.4,11"/>
		<path id="Fill-3" class="st0" d="M66.4,11c0-2.3-1.3-3.4-3.9-3.4c-2.7,0-3.8,1-3.8,3.4c0,2.3,1.1,3.4,3.8,3.4
			C65.1,14.4,66.4,13.3,66.4,11L66.4,11z M66.3,5.1h3.1v11.8h-3.1V14c-0.9,2-2.6,3.2-4.7,3.2c-3.9,0-6-2.4-6-6.1
			c0-3.8,2-6.2,5.8-6.2c2.1,0,4,1.2,4.8,3.2V5.1z"/>
		<path id="Fill-5" class="st0" d="M81.4,7.8h-4v6.4h3.7v2.7H78c-2.2,0-3.7-1.5-3.7-3.7V7.8h-2.9V5.1h2.9V1.5h3.1v3.5h4V7.8z"/>
		<path id="Fill-7" class="st0" d="M93.7,11.7l3,0.7c-0.7,3.1-3,4.7-6.7,4.7c-2.2,0-3.9-0.6-5.2-1.7c-1.3-1.1-1.9-2.6-1.9-4.4
			c0-1.9,0.6-3.4,1.9-4.5c1.3-1.1,3-1.7,5.2-1.7c3.7,0,6,1.6,6.7,4.7l-3,0.7c-0.4-1.9-1.4-2.6-3.8-2.6c-2.9,0-4,1.1-4,3.4
			c0,2.3,1.1,3.4,4,3.4C92.3,14.4,93.3,13.7,93.7,11.7"/>
		<path id="Fill-9" class="st0" d="M111.8,10.1v6.8h-3.1v-6.2c0-2.2-0.9-3.1-2.8-3.1c-2.3,0-3.5,1.2-3.5,3.6v5.6h-3.1V0h3.1v7.8
			c0.7-2,2.2-3,4.6-3C110.2,4.8,111.8,6.6,111.8,10.1"/>
		<path id="Fill-11" class="st0" d="M114.1,13.6l3-0.8c0.3,1.5,1.2,2,3.1,2c1.6,0,2.5-0.4,2.5-1.2c0-0.8-0.5-1.1-2.1-1.3l-2.4-0.3
			c-2.3-0.3-3.7-1.6-3.7-3.5c0-2.2,2-3.6,5.3-3.6c3.3,0,5.2,1.3,5.7,3.5l-3,0.7c-0.2-1.5-1-1.9-2.6-1.9c-1.5,0-2.3,0.4-2.3,1.2
			c0,0.7,0.5,1.1,1.7,1.2l2.9,0.4c2.2,0.3,3.6,1.5,3.6,3.4c0,2.4-2.1,3.9-5.7,3.9C116.7,17.1,114.5,15.7,114.1,13.6"/>
		<path id="Fill-13" class="st0" d="M136.7,7.8h-4v6.4h3.7v2.7h-3.1c-2.2,0-3.7-1.5-3.7-3.7V7.8h-2.9V5.1h2.9V1.5h3.1v3.5h4V7.8z"/>
		<path id="Fill-15" class="st0" d="M149.2,11c0-2.3-1.3-3.4-3.9-3.4c-2.7,0-3.8,1-3.8,3.4c0,2.3,1.1,3.4,3.8,3.4
			C147.9,14.4,149.2,13.3,149.2,11L149.2,11z M149.1,5.1h3.1v11.8h-3.1V14c-0.9,2-2.6,3.2-4.7,3.2c-3.9,0-6-2.4-6-6.1
			c0-3.8,2-6.2,5.8-6.2c2.1,0,4,1.2,4.8,3.2V5.1z"/>
		<path id="Fill-17" class="st0" d="M165.6,11.7l3,0.7c-0.7,3.1-3,4.7-6.7,4.7c-2.2,0-3.9-0.6-5.2-1.7c-1.3-1.1-1.9-2.6-1.9-4.4
			c0-1.9,0.6-3.4,1.9-4.5c1.3-1.1,3-1.7,5.2-1.7c3.7,0,6,1.6,6.7,4.7l-3,0.7c-0.4-1.9-1.4-2.6-3.8-2.6c-2.9,0-4,1.1-4,3.4
			c0,2.3,1.1,3.4,4,3.4C164.1,14.4,165.1,13.7,165.6,11.7"/>
		<g id="Group-21" transform="translate(170.857143, 0.000117)">
			<g id="Clip-20">
			</g>
			<defs>
				<filter id="Adobe_OpacityMaskFilter" filterUnits="userSpaceOnUse" x="0.3" y="0" width="12.9" height="16.9">
					<feColorMatrix  type="matrix" values="1 0 0 0 0  0 1 0 0 0  0 0 1 0 0  0 0 0 1 0"/>
				</filter>
			</defs>
			<mask maskUnits="userSpaceOnUse" x="0.3" y="0" width="12.9" height="16.9" id="mask-2_1_">
				<g class="st1">
					<polygon id="path-1_1_" class="st0" points="0.3,0 13.1,0 13.1,16.9 0.3,16.9 					"/>
				</g>
			</mask>
			<polygon id="Fill-19" class="st2" points="9.4,16.9 5.8,11.8 3.3,14.1 3.3,16.9 0.3,16.9 0.3,0 3.3,0 3.3,10.6 9,5.1 12.9,5.1 
				7.7,10 13.1,16.9 			"/>
		</g>
		<polygon id="Fill-22" class="st3" points="0,21 7.3,21 7.3,15.8 0,15.8 		"/>
		<polygon id="Fill-24" class="st4" points="7.3,21 14.6,21 14.6,15.8 7.3,15.8 		"/>
		<polygon id="Fill-25" class="st3" points="14.6,15.8 29.2,15.8 29.2,0 14.6,0 		"/>
		<polygon id="Fill-26" class="st4" points="0,10.5 14.6,10.5 14.6,0 0,0 		"/>
	</g>
</g>
</svg>
