<?xml version="1.0" encoding="UTF-8" standalone="no"?>
<!-- Created with Inkscape (http://www.inkscape.org/) -->

<svg
   xmlns:dc="http://purl.org/dc/elements/1.1/"
   xmlns:cc="http://creativecommons.org/ns#"
   xmlns:rdf="http://www.w3.org/1999/02/22-rdf-syntax-ns#"
   xmlns:svg="http://www.w3.org/2000/svg"
   xmlns="http://www.w3.org/2000/svg"
   xmlns:sodipodi="http://sodipodi.sourceforge.net/DTD/sodipodi-0.dtd"
   xmlns:inkscape="http://www.inkscape.org/namespaces/inkscape"
   width="512"
   height="512"
   viewBox="0 0 135.46664 135.46667"
   version="1.1"
   id="svg8"
   sodipodi:docname="PiC logo rebranding.svg"
   inkscape:version="0.92.5 (2060ec1f9f, 2020-04-08)"
   inkscape:export-filename="C:\Users\Daniele Galano\Desktop\Grafica\logo PIC\sticker2.png"
   inkscape:export-xdpi="96"
   inkscape:export-ydpi="96">
  <defs
     id="defs2" />
  <sodipodi:namedview
     id="base"
     pagecolor="#ffffff"
     bordercolor="#666666"
     borderopacity="1.0"
     inkscape:pageopacity="0.0"
     inkscape:pageshadow="2"
     inkscape:zoom="1.4142136"
     inkscape:cx="224.42589"
     inkscape:cy="120.71437"
     inkscape:document-units="px"
     inkscape:current-layer="layer1"
     showgrid="false"
     units="px"
     inkscape:showpageshadow="false"
     showguides="true"
     inkscape:guide-bbox="true"
     inkscape:window-width="1918"
     inkscape:window-height="2114"
     inkscape:window-x="-10"
     inkscape:window-y="0"
     inkscape:window-maximized="0">
    <sodipodi:guide
       position="-332.35422,617.06815"
       orientation="0,1"
       id="guide3487"
       inkscape:locked="false" />
    <sodipodi:guide
       position="-332.35422,481.60148"
       orientation="0,1"
       id="guide3489"
       inkscape:locked="false" />
    <sodipodi:guide
       position="-201.36029,153.72846"
       orientation="1,0"
       id="guide4082"
       inkscape:locked="false" />
  </sodipodi:namedview>
  <metadata
     id="metadata5">
    <rdf:RDF>
      <cc:Work
         rdf:about="">
        <dc:format>image/svg+xml</dc:format>
        <dc:type
           rdf:resource="http://purl.org/dc/dcmitype/StillImage" />
        <dc:title></dc:title>
      </cc:Work>
    </rdf:RDF>
  </metadata>
  <g
     inkscape:label="Livello 1"
     inkscape:groupmode="layer"
     id="layer1"
     transform="translate(0,-161.53333)">
    <g
       transform="matrix(2.7074408,0,0,2.7074408,132.20203,-102.24398)"
       id="g3896">
      <rect
         style="fill:#ffffff;fill-opacity:1;stroke:none;stroke-width:0.10064504;stroke-linecap:square;stroke-miterlimit:40"
         id="rect3892"
         width="50.034946"
         height="50.034946"
         x="-48.829151"
         y="97.428871" />
      <rect
         y="99.007217"
         x="-47.250816"
         height="46.878269"
         width="46.878269"
         id="rect3894"
         style="fill:#fb6400;fill-opacity:1;stroke:none;stroke-width:0.09429539;stroke-linecap:square;stroke-miterlimit:40" />
    </g>
    <circle
       r="43.77771"
       cy="257.66669"
       cx="67.902283"
       id="circle3898"
       style="fill:#fe7e29;fill-opacity:1;stroke:none;stroke-width:0.36557585;stroke-linecap:square;stroke-miterlimit:40" />
    <path
       sodipodi:nodetypes="cscscscsccscsc"
       inkscape:connector-curvature="0"
       id="path3900"
       d="m 6.5515308,202.59974 c 0,0 1.60543,-18.78052 14.5966702,-26.28105 16.46625,-9.50677 31.34192,-1.27859 31.34192,-1.27859 0,0 17.96386,-31.81008 50.696529,-19.48828 33.13321,12.47264 24.5587,46.74547 24.5587,46.74547 0,0 10.80105,3.68832 10.80105,17.61311 0,18.50067 -17.86693,17.11859 -17.86693,17.11859 0,0 -7.03027,8.87368 -18.24116,8.98026 -14.076649,0.1336 -19.550769,-9.16733 -19.550769,-9.16733 h -20.29913 c 0,0 -4.92616,17.83946 -25.63117,17.86695 -19.95724,0.0284 -25.91182,-17.9605 -25.91182,-17.9605 0,0 -14.1251702,-0.51045 -14.1251702,-16.18316 0,-14.4225 9.63128,-17.96547 9.63128,-17.96547 z"
       style="fill:#e6e6e6;fill-opacity:1;stroke:none;stroke-width:0.60854197;stroke-linecap:round;stroke-linejoin:miter;stroke-miterlimit:40;stroke-dasharray:none;stroke-opacity:1;paint-order:fill markers stroke" />
    <path
       style="fill:#ffffff;fill-opacity:1;stroke:none;stroke-width:0.55641896;stroke-linecap:round;stroke-linejoin:miter;stroke-miterlimit:40;stroke-dasharray:none;stroke-opacity:1;paint-order:fill markers stroke"
       d="m 11.800991,204.06308 c 0,0 1.46765,-17.16911 13.34432,-24.02608 15.05333,-8.69112 28.65269,-1.16889 28.65269,-1.16889 0,0 16.42255,-29.08073 46.346729,-17.81613 30.29035,11.40244 22.45153,42.73461 22.45153,42.73461 0,0 9.87435,3.37185 9.87435,16.1019 0,16.91326 -16.33401,15.64978 -16.33401,15.64978 0,0 -6.42705,8.11235 -16.676059,8.20977 -12.86879,0.1224 -17.87327,-8.38077 -17.87327,-8.38077 h -18.55742 c 0,0 -4.5035,16.30883 -23.43201,16.33397 -18.24485,0.0246 -23.68853,-16.41946 -23.68853,-16.41946 0,0 -12.9132701,-0.46668 -12.9132701,-14.79465 0,-13.18509 8.8049501,-16.42405 8.8049501,-16.42405 z"
       id="path3902"
       inkscape:connector-curvature="0"
       sodipodi:nodetypes="cscscscsccscsc" />
    <circle
       style="fill:#fedb53;fill-opacity:1;stroke:none;stroke-width:0.21913925;stroke-linecap:square;stroke-miterlimit:40"
       id="circle3904"
       cx="67.902283"
       cy="271.79089"
       r="26.241926" />
    <g
       aria-label="Pensieri"
       transform="matrix(2.5141107,0,0,2.5141107,508.7703,424.12253)"
       style="line-height:1.25;font-family:Constantia;-inkscape-font-specification:Constantia;fill:#000000;fill-opacity:1;stroke:none;stroke-linecap:square;stroke-miterlimit:40"
       id="flowRoot3912">
      <path
         d="m -190.28102,-88.468578 q -0.144,0 -0.216,-0.048 -0.072,-0.072 -0.072,-0.168 0.024,-0.096 0.096,-0.168 0.096,-0.072 0.288,-0.072 0.264,0 0.552,-0.072 0.288,-0.072 0.48,-0.216 0.504,-0.312 0.792,-0.888 0.312,-0.576 0.408,-1.104 0.12,-0.552 0,-0.936 -0.096,-0.408 -0.408,-0.384 -0.24,0.024 -0.432,0.168 -0.192,0.144 -0.36,0.336 -0.168,0.192 -0.312,0.432 -0.144,0.216 -0.24,0.384 -0.192,0.312 -0.552,1.104 -0.336,0.768 -0.672,1.632 -0.312,0.864 -0.528,1.608 -0.216,0.72 -0.12,0.912 0.072,0.144 -0.024,0.192 -0.072,0.048 -0.192,0 -0.096,-0.072 -0.192,-0.24 -0.072,-0.192 -0.048,-0.504 0.048,-0.744 0.48,-1.992 0.432,-1.248 0.96,-2.952 0.216,-0.72 0.024,-1.008 -0.168,-0.312 -0.552,-0.168 -0.48,0.168 -0.84,0.744 -0.36,0.576 -0.36,1.128 0,0.264 -0.12,0.384 -0.12,0.12 -0.24,0.096 -0.12,-0.024 -0.24,-0.168 -0.096,-0.144 -0.048,-0.408 0.096,-0.432 0.312,-0.768 0.216,-0.336 0.456,-0.576 0.264,-0.264 0.528,-0.408 0.288,-0.144 0.504,-0.192 0.552,-0.072 0.936,0.192 0.384,0.264 0.288,1.032 0.36,-0.552 0.768,-0.864 0.432,-0.312 0.792,-0.36 0.696,-0.096 0.936,0.384 0.264,0.456 0.144,1.128 -0.096,0.648 -0.528,1.344 -0.432,0.672 -1.104,1.032 -0.456,0.24 -0.864,0.336 -0.408,0.096 -0.48,0.096 z m 2.328,-1.824 q 0.216,-0.288 0.288,-0.624 0.096,-0.336 0.096,-0.624 0,-0.288 -0.048,-0.48 -0.048,-0.192 -0.072,-0.216 0.048,0.096 0.048,0.36 0.024,0.24 -0.024,0.528 -0.024,0.288 -0.096,0.6 -0.072,0.288 -0.192,0.456 z m -3.864,3.672 q 0.024,0.048 0.048,-0.024 0.024,-0.072 -0.024,-0.072 -0.12,0 -0.024,0.096 z m 0.048,-0.336 q 0.048,0.048 0.072,0 0.024,-0.072 -0.024,-0.096 -0.048,0 -0.072,0.048 -0.024,0.024 0.024,0.048 z m -0.072,0.672 q 0.048,0.024 0.048,-0.048 0.024,-0.096 -0.024,-0.072 -0.144,0 -0.024,0.12 z m 1.32,-4.344 q 0.048,-0.168 -0.072,0.096 -0.12,0.264 -0.288,0.672 -0.144,0.384 -0.264,0.768 -0.12,0.384 -0.096,0.432 0.024,-0.12 0.12,-0.36 0.096,-0.264 0.192,-0.552 0.12,-0.312 0.24,-0.576 0.12,-0.288 0.168,-0.48 z m 0.192,-0.6 q 0.072,0.024 0.096,-0.048 0.024,-0.096 -0.024,-0.12 -0.048,0 -0.096,0.072 -0.024,0.072 0.024,0.096 z m -0.12,0.408 q 0.072,0 0.096,-0.072 0.024,-0.072 -0.024,-0.096 -0.048,0 -0.096,0.072 -0.024,0.072 0.024,0.096 z"
         style="font-style:normal;font-variant:normal;font-weight:normal;font-stretch:normal;font-family:'Beautiful and Openhearted';-inkscape-font-specification:'Beautiful and Openhearted'"
         id="path2339" />
      <path
         d="m -185.8967,-90.412578 q 0.36,0.024 0.504,0.216 0.144,0.168 0.12,0.432 -0.024,0.264 -0.216,0.552 -0.168,0.264 -0.408,0.48 -0.384,0.312 -0.792,0.504 -0.408,0.168 -0.792,0.312 -0.072,0.216 -0.072,0.48 0,0.24 0.096,0.432 0.096,0.192 0.288,0.288 0.216,0.072 0.552,-0.048 0.696,-0.264 1.2,-0.912 0.504,-0.648 0.936,-1.368 0.072,-0.072 0.12,0 0.048,0.048 0.024,0.12 -0.192,0.36 -0.48,0.816 -0.288,0.456 -0.672,0.84 -0.36,0.384 -0.816,0.624 -0.432,0.24 -0.936,0.168 -0.552,-0.072 -0.768,-0.48 -0.216,-0.432 -0.096,-1.032 0.096,-0.432 0.312,-0.864 0.192,-0.456 0.48,-0.792 0.312,-0.36 0.672,-0.576 0.36,-0.216 0.744,-0.192 z m -0.048,0.36 q -0.192,0.048 -0.432,0.24 -0.216,0.192 -0.456,0.48 -0.216,0.264 -0.384,0.6 -0.168,0.312 -0.216,0.6 0.432,-0.168 0.768,-0.336 0.36,-0.192 0.624,-0.456 0.168,-0.144 0.288,-0.36 0.12,-0.216 0.144,-0.408 0.048,-0.192 -0.048,-0.288 -0.072,-0.12 -0.288,-0.072 z m 0.024,-0.216 q -0.288,-0.024 -0.504,0.096 -0.216,0.096 -0.384,0.264 -0.168,0.144 -0.264,0.288 -0.072,0.144 -0.072,0.168 0.048,-0.072 0.144,-0.192 0.12,-0.144 0.288,-0.264 0.168,-0.144 0.36,-0.24 0.192,-0.12 0.432,-0.12 z m -1.344,0.936 q 0.024,0.048 0.072,0.024 0.072,-0.048 0.024,-0.096 -0.096,-0.096 -0.096,0.072 z m -0.144,0.24 q 0.024,0.048 0.072,0.024 0.048,-0.048 0,-0.096 -0.048,-0.048 -0.072,0 -0.024,0.024 0,0.072 z m -0.336,2.016 q 0.072,0.336 0.264,0.432 0.192,0.096 0.288,0.072 -0.12,0 -0.264,-0.072 -0.12,-0.096 -0.288,-0.432 z"
         style="font-style:normal;font-variant:normal;font-weight:normal;font-stretch:normal;font-family:'Beautiful and Openhearted';-inkscape-font-specification:'Beautiful and Openhearted'"
         id="path2341" />
      <path
         d="m -180.45208,-89.284578 q 0.024,-0.048 0.096,-0.024 0.096,0.024 0.072,0.072 -0.144,0.336 -0.384,0.84 -0.24,0.48 -0.552,0.936 -0.312,0.456 -0.648,0.744 -0.336,0.288 -0.672,0.24 -0.336,-0.048 -0.456,-0.288 -0.096,-0.264 -0.072,-0.624 0.048,-0.384 0.192,-0.864 0.144,-0.48 0.336,-0.984 0.168,-0.456 0.192,-0.624 0.048,-0.192 -0.048,-0.168 -0.072,0 -0.264,0.168 -0.168,0.168 -0.432,0.432 -0.672,0.768 -1.08,1.344 -0.408,0.576 -0.48,1.344 0,0.192 -0.096,0.264 -0.096,0.048 -0.192,-0.024 -0.192,-0.144 -0.12,-0.672 0.072,-0.552 0.264,-1.128 0.192,-0.6 0.408,-1.104 0.216,-0.504 0.288,-0.624 0.168,-0.216 0.36,-0.312 0.216,-0.096 0.36,-0.072 0.144,0.024 0.168,0.168 0.024,0.144 -0.144,0.384 -0.288,0.312 -0.48,0.72 -0.192,0.408 -0.288,0.624 0.168,-0.264 0.432,-0.6 0.288,-0.336 0.576,-0.624 0.312,-0.288 0.6,-0.456 0.288,-0.168 0.504,-0.096 0.216,0.072 0.336,0.336 0.12,0.24 -0.144,0.84 -0.048,0.072 -0.312,0.576 -0.24,0.504 -0.36,1.032 -0.072,0.24 -0.096,0.456 0,0.216 0.072,0.312 0.096,0.072 0.24,0 0.168,-0.072 0.432,-0.384 0.384,-0.48 0.696,-0.936 0.336,-0.456 0.696,-1.224 z m -3.384,-0.864 q -0.24,0.264 -0.36,0.552 -0.12,0.288 -0.096,0.384 0.144,-0.384 0.456,-0.936 z m -1.008,3 q 0.048,0.048 0.072,-0.024 0.024,-0.096 -0.024,-0.096 -0.168,0 -0.048,0.12 z m 0.048,-0.36 q 0.048,0.048 0.072,-0.024 0.024,-0.096 -0.024,-0.096 -0.168,0 -0.048,0.12 z m -0.12,0.72 q 0.072,0.024 0.12,-0.072 0.024,-0.096 -0.096,-0.072 -0.12,0.048 -0.024,0.144 z m 2.28,-1.032 q -0.048,0.192 0.048,-0.048 0.12,-0.24 0.24,-0.6 0.12,-0.384 0.192,-0.72 0.096,-0.36 0.048,-0.408 -0.024,0.264 -0.216,0.816 -0.192,0.552 -0.312,0.96 z m -0.192,0.504 q 0,0.048 0.048,-0.024 0.048,-0.096 0,-0.096 -0.048,0 -0.072,0.048 -0.024,0.024 0.024,0.072 z m -0.048,0.36 q 0.072,0.024 0.072,-0.072 0,-0.096 -0.048,-0.072 -0.12,0.048 -0.024,0.144 z"
         style="font-style:normal;font-variant:normal;font-weight:normal;font-stretch:normal;font-family:'Beautiful and Openhearted';-inkscape-font-specification:'Beautiful and Openhearted'"
         id="path2343" />
      <path
         d="m -178.74714,-89.428578 q -0.096,0.144 -0.24,0.192 -0.12,0.024 -0.216,0 -0.072,-0.048 -0.096,-0.144 0,-0.12 0.12,-0.264 0.168,-0.192 0.288,-0.36 0.12,-0.168 0.024,-0.384 -0.072,-0.192 -0.264,-0.192 -0.192,-0.024 -0.384,0.096 -0.192,0.096 -0.36,0.312 -0.144,0.192 -0.168,0.432 0,0.216 0.096,0.408 0.096,0.192 0.24,0.384 0.144,0.192 0.288,0.384 0.168,0.168 0.288,0.384 0.24,0.456 0.192,0.864 -0.048,0.408 -0.288,0.72 -0.24,0.288 -0.6,0.456 -0.36,0.144 -0.744,0.096 -0.336,-0.048 -0.528,-0.216 -0.192,-0.168 -0.24,-0.384 -0.048,-0.24 0.024,-0.48 0.072,-0.24 0.264,-0.408 0.168,-0.192 0.36,-0.216 0.168,-0.024 0.24,0.048 0.096,0.048 0.072,0.192 0,0.12 -0.192,0.24 -0.504,0.36 -0.456,0.672 0.024,0.288 0.504,0.36 0.288,0.048 0.528,-0.096 0.24,-0.144 0.36,-0.408 0.144,-0.264 0.096,-0.6 -0.024,-0.36 -0.312,-0.768 -0.144,-0.168 -0.312,-0.36 -0.144,-0.216 -0.288,-0.408 -0.12,-0.216 -0.168,-0.432 -0.072,-0.24 -0.024,-0.456 0.072,-0.384 0.36,-0.624 0.288,-0.264 0.624,-0.384 0.744,-0.216 1.032,0.336 0.12,0.216 0.096,0.504 -0.024,0.264 -0.216,0.504 z m -0.576,-1.224 q -0.312,-0.024 -0.504,0.096 -0.192,0.096 -0.312,0.24 -0.12,0.144 -0.168,0.288 -0.048,0.12 -0.048,0.144 0.048,-0.072 0.12,-0.192 0.072,-0.12 0.192,-0.24 0.12,-0.12 0.288,-0.216 0.168,-0.12 0.432,-0.12 z m -1.032,0.96 q 0.048,0.024 0.072,-0.024 0.024,-0.072 -0.048,-0.096 -0.144,0 -0.024,0.12 z m 0.024,0.288 q 0.048,0.024 0.072,-0.024 0.048,-0.072 -0.048,-0.096 -0.048,0 -0.072,0.048 0,0.024 0.048,0.072 z m 0.816,2.832 q 0.336,-0.336 0.288,-0.624 -0.024,-0.288 -0.12,-0.432 0.096,0.216 0.072,0.456 0,0.24 -0.24,0.6 z"
         style="font-style:normal;font-variant:normal;font-weight:normal;font-stretch:normal;font-family:'Beautiful and Openhearted';-inkscape-font-specification:'Beautiful and Openhearted'"
         id="path2345" />
      <path
         d="m -177.92214,-87.172578 q -0.048,0.24 -0.024,0.36 0.024,0.096 0.096,0.12 0.096,0 0.192,-0.048 0.12,-0.072 0.216,-0.168 0.408,-0.408 0.768,-0.936 0.36,-0.528 0.72,-1.224 0.048,-0.048 0.096,-0.024 0.072,0.024 0.072,0.072 -0.024,0.024 -0.048,0.12 -0.024,0.072 -0.072,0.192 -0.048,0.096 -0.12,0.264 -0.096,0.216 -0.312,0.576 -0.216,0.336 -0.504,0.672 -0.264,0.312 -0.576,0.552 -0.288,0.216 -0.552,0.168 -0.288,-0.048 -0.384,-0.24 -0.096,-0.216 -0.096,-0.576 0.048,-0.384 0.216,-0.912 0.144,-0.552 0.288,-0.936 0.072,-0.264 0.168,-0.48 0.12,-0.216 0.168,-0.264 0.144,-0.216 0.312,-0.264 0.192,-0.072 0.288,0 0.12,0.048 0.144,0.216 0.024,0.168 -0.12,0.408 -0.168,0.288 -0.312,0.528 -0.12,0.24 -0.24,0.504 -0.096,0.24 -0.192,0.552 -0.096,0.312 -0.192,0.768 z m -0.24,0.36 q 0.024,-0.312 0.048,-0.576 0.024,-0.264 0.072,-0.48 -0.048,0.072 -0.096,0.456 -0.072,0.384 -0.024,0.6 z m 0.72,-2.88 q -0.168,0.048 -0.024,0.144 0.048,0.024 0.072,-0.048 0.024,-0.072 -0.048,-0.096 z m -0.168,0.336 q -0.048,0 -0.072,0.048 0,0.024 0.048,0.072 0.048,0.048 0.048,-0.024 0.024,-0.096 -0.024,-0.096 z m 0.36,-0.624 q -0.144,0.048 -0.048,0.144 0.048,0.048 0.072,-0.024 0.048,-0.072 -0.024,-0.12 z m 0.12,-0.648 q 0,-0.096 0.096,-0.432 0.096,-0.336 0.216,-0.528 0.096,-0.192 0.24,-0.216 0.168,-0.048 0.264,0.024 0.12,0.072 0.12,0.24 0.024,0.144 -0.144,0.36 -0.216,0.264 -0.36,0.384 -0.144,0.12 -0.24,0.312 -0.048,0.096 -0.12,0.072 -0.072,-0.024 -0.072,-0.216 z"
         style="font-style:normal;font-variant:normal;font-weight:normal;font-stretch:normal;font-family:'Beautiful and Openhearted';-inkscape-font-specification:'Beautiful and Openhearted'"
         id="path2347" />
      <path
         d="m -174.20139,-90.412578 q 0.36,0.024 0.504,0.216 0.144,0.168 0.12,0.432 -0.024,0.264 -0.216,0.552 -0.168,0.264 -0.408,0.48 -0.384,0.312 -0.792,0.504 -0.408,0.168 -0.792,0.312 -0.072,0.216 -0.072,0.48 0,0.24 0.096,0.432 0.096,0.192 0.288,0.288 0.216,0.072 0.552,-0.048 0.696,-0.264 1.2,-0.912 0.504,-0.648 0.936,-1.368 0.072,-0.072 0.12,0 0.048,0.048 0.024,0.12 -0.192,0.36 -0.48,0.816 -0.288,0.456 -0.672,0.84 -0.36,0.384 -0.816,0.624 -0.432,0.24 -0.936,0.168 -0.552,-0.072 -0.768,-0.48 -0.216,-0.432 -0.096,-1.032 0.096,-0.432 0.312,-0.864 0.192,-0.456 0.48,-0.792 0.312,-0.36 0.672,-0.576 0.36,-0.216 0.744,-0.192 z m -0.048,0.36 q -0.192,0.048 -0.432,0.24 -0.216,0.192 -0.456,0.48 -0.216,0.264 -0.384,0.6 -0.168,0.312 -0.216,0.6 0.432,-0.168 0.768,-0.336 0.36,-0.192 0.624,-0.456 0.168,-0.144 0.288,-0.36 0.12,-0.216 0.144,-0.408 0.048,-0.192 -0.048,-0.288 -0.072,-0.12 -0.288,-0.072 z m 0.024,-0.216 q -0.288,-0.024 -0.504,0.096 -0.216,0.096 -0.384,0.264 -0.168,0.144 -0.264,0.288 -0.072,0.144 -0.072,0.168 0.048,-0.072 0.144,-0.192 0.12,-0.144 0.288,-0.264 0.168,-0.144 0.36,-0.24 0.192,-0.12 0.432,-0.12 z m -1.344,0.936 q 0.024,0.048 0.072,0.024 0.072,-0.048 0.024,-0.096 -0.096,-0.096 -0.096,0.072 z m -0.144,0.24 q 0.024,0.048 0.072,0.024 0.048,-0.048 0,-0.096 -0.048,-0.048 -0.072,0 -0.024,0.024 0,0.072 z m -0.336,2.016 q 0.072,0.336 0.264,0.432 0.192,0.096 0.288,0.072 -0.12,0 -0.264,-0.072 -0.12,-0.096 -0.288,-0.432 z"
         style="font-style:normal;font-variant:normal;font-weight:normal;font-stretch:normal;font-family:'Beautiful and Openhearted';-inkscape-font-specification:'Beautiful and Openhearted'"
         id="path2349" />
      <path
         d="m -173.00477,-86.668578 q -0.024,0.192 -0.12,0.264 -0.12,0.048 -0.216,-0.024 -0.216,-0.144 -0.144,-0.696 0.072,-0.552 0.288,-1.176 0.192,-0.624 0.432,-1.152 0.24,-0.528 0.336,-0.624 0.192,-0.216 0.384,-0.288 0.216,-0.072 0.336,-0.024 0.144,0.024 0.144,0.168 0.024,0.144 -0.168,0.384 -0.336,0.384 -0.504,0.72 -0.168,0.336 -0.216,0.504 0.096,-0.096 0.336,-0.432 0.24,-0.336 0.528,-0.648 0.312,-0.336 0.624,-0.552 0.336,-0.24 0.624,-0.168 0.264,0.072 0.36,0.48 0.096,0.384 -0.168,0.864 -0.12,0.24 -0.264,0.312 -0.144,0.072 -0.264,0.024 -0.096,-0.048 -0.12,-0.216 0,-0.168 0.144,-0.384 0.048,-0.096 0.12,-0.24 0.072,-0.144 0.12,-0.288 0.072,-0.144 0.072,-0.24 0,-0.12 -0.072,-0.12 -0.144,0 -0.384,0.192 -0.24,0.168 -0.552,0.48 -0.288,0.288 -0.6,0.672 -0.288,0.36 -0.528,0.72 -0.072,0.096 -0.168,0.288 -0.072,0.192 -0.168,0.432 -0.072,0.216 -0.12,0.432 -0.072,0.192 -0.072,0.336 z m 0.768,-3.288 q -0.24,0.264 -0.384,0.552 -0.12,0.264 -0.096,0.36 0.168,-0.36 0.48,-0.912 z m -0.912,2.448 q -0.12,0.216 -0.168,0.528 -0.072,0.312 -0.048,0.36 0.024,-0.144 0.096,-0.408 0.072,-0.288 0.12,-0.48 z m 0.024,-0.144 q 0.048,0.048 0.096,-0.024 0.024,-0.096 -0.024,-0.096 -0.048,0 -0.072,0.048 -0.048,0.024 0,0.072 z m 0.936,-2.4 q 0.048,0.048 0.096,-0.024 0.048,-0.072 0,-0.096 -0.144,0 -0.096,0.12 z"
         style="font-style:normal;font-variant:normal;font-weight:normal;font-stretch:normal;font-family:'Beautiful and Openhearted';-inkscape-font-specification:'Beautiful and Openhearted'"
         id="path2351" />
      <path
         d="m -169.67214,-87.172578 q -0.048,0.24 -0.024,0.36 0.024,0.096 0.096,0.12 0.096,0 0.192,-0.048 0.12,-0.072 0.216,-0.168 0.408,-0.408 0.768,-0.936 0.36,-0.528 0.72,-1.224 0.048,-0.048 0.096,-0.024 0.072,0.024 0.072,0.072 -0.024,0.024 -0.048,0.12 -0.024,0.072 -0.072,0.192 -0.048,0.096 -0.12,0.264 -0.096,0.216 -0.312,0.576 -0.216,0.336 -0.504,0.672 -0.264,0.312 -0.576,0.552 -0.288,0.216 -0.552,0.168 -0.288,-0.048 -0.384,-0.24 -0.096,-0.216 -0.096,-0.576 0.048,-0.384 0.216,-0.912 0.144,-0.552 0.288,-0.936 0.072,-0.264 0.168,-0.48 0.12,-0.216 0.168,-0.264 0.144,-0.216 0.312,-0.264 0.192,-0.072 0.288,0 0.12,0.048 0.144,0.216 0.024,0.168 -0.12,0.408 -0.168,0.288 -0.312,0.528 -0.12,0.24 -0.24,0.504 -0.096,0.24 -0.192,0.552 -0.096,0.312 -0.192,0.768 z m -0.24,0.36 q 0.024,-0.312 0.048,-0.576 0.024,-0.264 0.072,-0.48 -0.048,0.072 -0.096,0.456 -0.072,0.384 -0.024,0.6 z m 0.72,-2.88 q -0.168,0.048 -0.024,0.144 0.048,0.024 0.072,-0.048 0.024,-0.072 -0.048,-0.096 z m -0.168,0.336 q -0.048,0 -0.072,0.048 0,0.024 0.048,0.072 0.048,0.048 0.048,-0.024 0.024,-0.096 -0.024,-0.096 z m 0.36,-0.624 q -0.144,0.048 -0.048,0.144 0.048,0.048 0.072,-0.024 0.048,-0.072 -0.024,-0.12 z m 0.12,-0.648 q 0,-0.096 0.096,-0.432 0.096,-0.336 0.216,-0.528 0.096,-0.192 0.24,-0.216 0.168,-0.048 0.264,0.024 0.12,0.072 0.12,0.24 0.024,0.144 -0.144,0.36 -0.216,0.264 -0.36,0.384 -0.144,0.12 -0.24,0.312 -0.048,0.096 -0.12,0.072 -0.072,-0.024 -0.072,-0.216 z"
         style="font-style:normal;font-variant:normal;font-weight:normal;font-stretch:normal;font-family:'Beautiful and Openhearted';-inkscape-font-specification:'Beautiful and Openhearted'"
         id="path2353" />
    </g>
    <g
       aria-label="[inCodice]"
       transform="matrix(1.1839685,0,0,1.0995484,268.57828,311.03806)"
       style="line-height:1.25;font-family:Constantia;-inkscape-font-specification:Constantia;fill:#000000;fill-opacity:1;stroke:none;stroke-linecap:square;stroke-miterlimit:40"
       id="flowRoot3920">
      <path
         d="m -189.60902,-83.258052 v -7.68 h 0.984 c 0.228,0 0.384,-0.144 0.384,-0.36 0,-0.228 -0.144,-0.36 -0.372,-0.36 h -1.584 c -0.252,0 -0.42,0.168 -0.42,0.384 v 8.352 c 0,0.216 0.168,0.384 0.42,0.384 h 1.584 c 0.228,0 0.372,-0.144 0.372,-0.372 0,-0.216 -0.156,-0.348 -0.384,-0.348 z"
         style="font-style:normal;font-variant:normal;font-weight:500;font-stretch:normal;font-family:'Courier 10 Pitch';-inkscape-font-specification:'Courier 10 Pitch Medium'"
         id="path2318" />
      <path
         d="m -181.67027,-85.538052 v -4.344 c 0,-0.144 -0.108,-0.24 -0.336,-0.24 h -1.716 c -0.312,0 -0.468,0.132 -0.468,0.408 0,0.276 0.168,0.42 0.492,0.42 h 1.14 v 3.756 h -1.788 c -0.324,0 -0.492,0.132 -0.492,0.408 0,0.276 0.156,0.42 0.468,0.42 h 4.548 c 0.348,0 0.48,-0.084 0.48,-0.42 0,-0.288 -0.144,-0.408 -0.444,-0.408 z m -1.092,-6.276 c 0,0.48 0.12,0.576 0.612,0.576 0.564,0 0.6,-0.132 0.6,-0.744 0,-0.612 -0.06,-0.792 -0.6,-0.792 -0.54,0 -0.612,0.18 -0.612,0.96 z"
         style="font-style:normal;font-variant:normal;font-weight:500;font-stretch:normal;font-family:'Courier 10 Pitch';-inkscape-font-specification:'Courier 10 Pitch Medium'"
         id="path2320" />
      <path
         d="m -177.17552,-85.538052 h -0.12 c -0.48,0 -0.684,0.072 -0.684,0.408 0,0.276 0.156,0.42 0.492,0.42 h 1.38 c 0.444,0 0.624,-0.024 0.624,-0.42 0,-0.324 -0.156,-0.42 -0.564,-0.42 -0.072,0 -0.156,0.012 -0.252,0.012 v -2.436 c 0,-0.876 0.816,-1.404 1.524,-1.404 0.768,0 1.2,0.468 1.2,1.404 v 2.436 h -0.192 c -0.42,0 -0.588,0.084 -0.588,0.408 0,0.384 0.168,0.42 0.588,0.42 h 1.296 c 0.42,0 0.624,-0.084 0.624,-0.42 0,-0.3 -0.18,-0.408 -0.552,-0.408 h -0.264 v -2.652 c 0,-1.356 -0.792,-2.088 -1.908,-2.088 -0.612,0 -1.152,0.264 -1.716,0.792 v -0.396 c 0,-0.144 -0.108,-0.24 -0.336,-0.24 h -0.528 c -0.564,0 -0.828,0 -0.828,0.408 0,0.3 0.168,0.42 0.54,0.42 h 0.264 z"
         style="font-style:normal;font-variant:normal;font-weight:500;font-stretch:normal;font-family:'Courier 10 Pitch';-inkscape-font-specification:'Courier 10 Pitch Medium'"
         id="path2322" />
      <path
         d="m -165.92477,-91.466052 c -0.564,-0.24 -1.092,-0.372 -1.632,-0.372 -1.944,0 -3.36,1.572 -3.36,3.66 0,2.148 1.44,3.636 3.336,3.636 0.756,0 1.38,-0.204 2.028,-0.624 0.432,-0.276 0.66,-0.468 0.66,-0.732 0,-0.24 -0.18,-0.42 -0.432,-0.42 -0.204,0 -0.444,0.264 -0.828,0.48 -0.456,0.252 -0.948,0.384 -1.38,0.384 -1.308,0 -2.316,-1.02 -2.316,-2.724 0,-1.848 0.936,-2.868 2.292,-2.868 0.78,0 1.38,0.432 1.524,0.984 0.132,0.528 0.072,0.816 0.576,0.816 0.348,0 0.42,-0.156 0.42,-0.468 0,-0.084 -0.024,-0.552 -0.024,-1.452 0,-0.408 -0.024,-0.588 -0.432,-0.588 -0.228,0 -0.348,0.084 -0.432,0.288 z"
         style="font-style:normal;font-variant:normal;font-weight:500;font-stretch:normal;font-family:'Courier 10 Pitch';-inkscape-font-specification:'Courier 10 Pitch Medium'"
         id="path2324" />
      <path
         d="m -157.49402,-87.410052 c 0,-1.62 -1.2,-2.844 -3.06,-2.844 -1.86,0 -3.072,1.212 -3.072,2.844 0,1.632 1.212,2.844 3.072,2.844 1.86,0 3.06,-1.212 3.06,-2.844 z m -3.06,2.028 c -1.212,0 -2.052,-0.864 -2.052,-2.028 0,-1.164 0.84,-2.04 2.052,-2.04 1.212,0 2.052,0.876 2.052,2.04 0,1.176 -0.84,2.028 -2.052,2.028 z"
         style="font-style:normal;font-variant:normal;font-weight:500;font-stretch:normal;font-family:'Courier 10 Pitch';-inkscape-font-specification:'Courier 10 Pitch Medium'"
         id="path2326" />
      <path
         d="m -155.41127,-87.338052 c 0,-1.164 0.744,-1.932 1.848,-1.932 1.092,0 1.848,0.792 1.848,1.872 0,1.08 -0.78,1.896 -1.86,1.896 -1.044,0 -1.836,-0.732 -1.836,-1.836 z m 3.84,2.628 h 1.116 c 0.252,0 0.42,-0.156 0.42,-0.42 0,-0.3 -0.168,-0.408 -0.54,-0.408 h -0.264 v -6.6 c 0,-0.168 -0.108,-0.24 -0.336,-0.24 h -1.2 c -0.312,0 -0.468,0.144 -0.468,0.42 0,0.384 0.252,0.42 0.804,0.42 h 0.312 v 2.244 c -0.456,-0.564 -1.104,-0.84 -1.908,-0.84 -1.584,0 -2.784,1.224 -2.784,2.772 0,1.644 1.128,2.796 2.604,2.796 0.828,0 1.548,-0.336 2.016,-0.924 v 0.48 c 0,0.204 0.048,0.3 0.228,0.3 z"
         style="font-style:normal;font-variant:normal;font-weight:500;font-stretch:normal;font-family:'Courier 10 Pitch';-inkscape-font-specification:'Courier 10 Pitch Medium'"
         id="path2328" />
      <path
         d="m -145.57652,-85.538052 v -4.344 c 0,-0.144 -0.108,-0.24 -0.336,-0.24 h -1.716 c -0.312,0 -0.468,0.132 -0.468,0.408 0,0.276 0.168,0.42 0.492,0.42 h 1.14 v 3.756 h -1.788 c -0.324,0 -0.492,0.132 -0.492,0.408 0,0.276 0.156,0.42 0.468,0.42 h 4.548 c 0.348,0 0.48,-0.084 0.48,-0.42 0,-0.288 -0.144,-0.408 -0.444,-0.408 z m -1.092,-6.276 c 0,0.48 0.12,0.576 0.612,0.576 0.564,0 0.6,-0.132 0.6,-0.744 0,-0.612 -0.06,-0.792 -0.6,-0.792 -0.54,0 -0.612,0.18 -0.612,0.96 z"
         style="font-style:normal;font-variant:normal;font-weight:500;font-stretch:normal;font-family:'Courier 10 Pitch';-inkscape-font-specification:'Courier 10 Pitch Medium'"
         id="path2330" />
      <path
         d="m -136.25777,-88.358052 v -1.092 c 0,-0.504 -0.06,-0.72 -0.42,-0.72 -0.3,0 -0.456,0.108 -0.456,0.372 v 0.024 c -0.648,-0.324 -1.236,-0.492 -1.848,-0.492 -1.68,0 -2.952,1.236 -2.952,2.856 0,1.62 1.26,2.844 2.964,2.844 1.416,0 2.736,-0.876 2.736,-1.428 0,-0.24 -0.168,-0.408 -0.408,-0.408 -0.312,0 -0.54,0.288 -0.9,0.528 -0.42,0.276 -0.9,0.432 -1.368,0.432 -1.224,0 -2.004,-0.816 -2.004,-1.98 0,-1.128 0.84,-1.932 2.052,-1.932 0.696,0 1.248,0.324 1.608,0.96 0.18,0.324 0.3,0.468 0.552,0.468 0.288,0 0.444,-0.144 0.444,-0.432 z"
         style="font-style:normal;font-variant:normal;font-weight:500;font-stretch:normal;font-family:'Courier 10 Pitch';-inkscape-font-specification:'Courier 10 Pitch Medium'"
         id="path2332" />
      <path
         d="m -133.63502,-87.926052 c 0.228,-0.972 0.984,-1.548 2.016,-1.548 0.948,0 1.692,0.612 1.8,1.548 z m -0.024,0.768 h 3.936 c 0.72,0 0.972,0 0.972,-0.552 0,-1.308 -1.092,-2.568 -2.868,-2.568 -1.812,0 -3.06,1.164 -3.06,2.844 0,1.752 1.128,2.868 2.94,2.868 0.792,0 1.644,-0.192 2.448,-0.588 0.348,-0.168 0.516,-0.348 0.516,-0.588 0,-0.216 -0.18,-0.384 -0.408,-0.384 -0.528,0 -1.284,0.732 -2.472,0.732 -1.212,0 -1.944,-0.636 -2.004,-1.764 z"
         style="font-style:normal;font-variant:normal;font-weight:500;font-stretch:normal;font-family:'Courier 10 Pitch';-inkscape-font-specification:'Courier 10 Pitch Medium'"
         id="path2334" />
      <path
         d="m -124.28027,-90.938052 v 7.68 h -0.984 c -0.228,0 -0.384,0.132 -0.384,0.348 0,0.228 0.144,0.372 0.372,0.372 h 1.572 c 0.252,0 0.432,-0.168 0.432,-0.384 v -8.352 c 0,-0.216 -0.18,-0.384 -0.432,-0.384 h -1.572 c -0.228,0 -0.372,0.132 -0.372,0.36 0,0.216 0.156,0.36 0.384,0.36 z"
         style="font-style:normal;font-variant:normal;font-weight:500;font-stretch:normal;font-family:'Courier 10 Pitch';-inkscape-font-specification:'Courier 10 Pitch Medium'"
         id="path2336" />
    </g>
    <path
       sodipodi:nodetypes="csc"
       inkscape:connector-curvature="0"
       id="path3922"
       d="m 86.151731,276.44025 c 0,0 1.3111,16.13179 -18.53971,16.13179 -19.85997,0 -18.47718,-16.13179 -18.47718,-16.13179"
       style="fill:none;stroke:#ffffff;stroke-width:0;stroke-linecap:square;stroke-miterlimit:40;stroke-dasharray:none" />
    <path
       style="fill:none;stroke:#ffffff;stroke-width:0;stroke-linecap:square;stroke-miterlimit:40;stroke-dasharray:none"
       d="m 87.374531,276.44025 c 0,0 -1.20867,20.74395 -19.76251,20.74395 -18.6094,0 -19.75554,-20.74395 -19.75554,-20.74395"
       id="path3924"
       inkscape:connector-curvature="0"
       sodipodi:nodetypes="csc" />
    <path
       style="fill:none;stroke:#ffffff;stroke-width:0;stroke-linecap:square;stroke-miterlimit:40;stroke-dasharray:none"
       d="m 49.079191,274.40876 c 0,0 -1.2448,0.0932 -1.2448,0.56468 0,0.65276 0.0208,1.46681 0.0208,1.46681"
       id="path3926"
       inkscape:connector-curvature="0"
       sodipodi:nodetypes="csc" />
    <path
       sodipodi:nodetypes="cssc"
       inkscape:connector-curvature="0"
       id="path3928"
       d="m 47.834311,275.48115 c 0,0 -0.34591,0 -0.72709,0 -0.16505,0 -0.15068,0.83839 0,0.83839 0.30808,0 0.74673,0 0.74673,0"
       style="fill:none;stroke:#ffffff;stroke-width:0;stroke-linecap:square;stroke-miterlimit:40;stroke-dasharray:none" />
    <path
       style="fill:none;stroke:#ffffff;stroke-width:0;stroke-linecap:square;stroke-miterlimit:40;stroke-dasharray:none"
       d="m 87.427211,275.48115 c 0,0 0.34586,0 0.72706,0 0.16505,0 0.15068,0.83839 0,0.83839 -0.30805,0 -0.7467,0 -0.7467,0"
       id="path3930"
       inkscape:connector-curvature="0"
       sodipodi:nodetypes="cssc" />
    <path
       style="fill:#313131;fill-opacity:1;stroke:#ffffff;stroke-width:0.58688211;stroke-linecap:round;stroke-linejoin:round;stroke-miterlimit:40;stroke-dasharray:none"
       d="m 85.747731,279.92023 c 0,0 1.01493,10.90479 -17.54237,10.90479 -18.47868,0 -17.47754,-11.24721 -17.47754,-11.24721 v -2.37259 l 1.79914,-0.0109 v -2.61652 l -1.79914,0.0164 v -2.36259 l 1.79914,-0.0407 v -2.60267 l -1.79914,0.0191 v -2.32418 l 1.79914,-0.0276 v -2.60669 l -1.79914,0.0191 v -2.37621 l 1.79914,-0.0219 v -2.6204 l -1.79914,-8e-4 v -2.30292 l 1.79914,-0.0191 v -2.61614 l -1.79914,0.0137 v -2.37625 l 1.79914,-0.0164 -0.0235,-2.61887 -1.77485,0.0109 -0.008,-2.31543 1.80616,-0.0164 3e-5,-2.60929 -1.80765,0.0164 0.002,-2.37808 1.80593,-0.0164 v -2.61633 l -1.78997,-0.0109 0.0488,-2.57079 c 0,0 -0.0413,-8.89261 17.41927,-8.89261 17.4018,0 17.51937,8.89261 17.51937,8.89261 l 9.1e-4,2.58445 -1.92052,-8.8e-4 3e-5,2.61434 1.94272,-0.0219 v 2.39063 l -1.94272,0.008 v 2.61471 l 1.94272,-0.002 v 2.29438 l -1.94272,0.0314 v 2.61936 l 1.94272,0.005 v 2.36593 h -1.94335 v 2.6277 h 1.94272 v 2.30312 l -1.94272,0.0219 v 2.60568 l 1.94272,5.4e-4 v 2.37107 l -1.94272,0.0137 v 2.60936 l 1.94272,-0.0109 v 2.30735 l -1.94272,0.0309 v 2.61761 l 1.94272,0.0137 v 2.37161 h -1.94272 v 2.61543 l 1.94272,-0.0109 z"
       id="path3932"
       inkscape:connector-curvature="0"
       sodipodi:nodetypes="csccccccccccccccccccccccccccccccccccscccccccccccccccccccccccccccccccccc" />
    <rect
       ry="1.1539743"
       y="244.48108"
       x="51.426884"
       height="3.2047501"
       width="14.421109"
       id="rect3934"
       style="fill:#f9f9f9;stroke:none;stroke-width:0.10515488;stroke-linecap:square;stroke-miterlimit:40" />
    <rect
       style="fill:#f9f9f9;stroke:none;stroke-width:0.10515488;stroke-linecap:square;stroke-miterlimit:40"
       id="rect3936"
       width="14.421109"
       height="3.2047501"
       x="51.426884"
       y="249.42296"
       ry="1.1539743" />
    <rect
       style="fill:#f9f9f9;stroke:none;stroke-width:0.10515488;stroke-linecap:square;stroke-miterlimit:40"
       id="rect3938"
       width="14.421109"
       height="3.2047501"
       x="51.426884"
       y="254.41809"
       ry="1.1539743" />
    <rect
       ry="1.1539743"
       y="259.35999"
       x="51.426884"
       height="3.2047501"
       width="14.421109"
       id="rect3940"
       style="fill:#f9f9f9;stroke:none;stroke-width:0.10515488;stroke-linecap:square;stroke-miterlimit:40" />
    <rect
       ry="1.1539743"
       y="264.35504"
       x="51.426884"
       height="3.2047501"
       width="14.421109"
       id="rect3942"
       style="fill:#f9f9f9;stroke:none;stroke-width:0.10515488;stroke-linecap:square;stroke-miterlimit:40" />
    <rect
       style="fill:#f9f9f9;stroke:none;stroke-width:0.10515488;stroke-linecap:square;stroke-miterlimit:40"
       id="rect3944"
       width="14.421109"
       height="3.2047501"
       x="51.426884"
       y="269.29706"
       ry="1.1539743" />
    <rect
       style="fill:#f9f9f9;stroke:none;stroke-width:0.10515488;stroke-linecap:square;stroke-miterlimit:40"
       id="rect3946"
       width="14.421109"
       height="3.2047501"
       x="51.426884"
       y="274.29202"
       ry="1.1539743" />
    <rect
       style="fill:#f9f9f9;stroke:none;stroke-width:0.10515488;stroke-linecap:square;stroke-miterlimit:40"
       id="rect3948"
       width="14.421109"
       height="3.2047501"
       x="51.429356"
       y="239.49255"
       ry="1.1539743" />
    <rect
       transform="scale(-1,1)"
       style="fill:#f9f9f9;stroke:none;stroke-width:0.10694058;stroke-linecap:square;stroke-miterlimit:40"
       id="rect3950"
       width="14.915062"
       height="3.2047501"
       x="-85.187347"
       y="244.48108"
       ry="1.1539743" />
    <rect
       transform="scale(-1,1)"
       ry="1.1539743"
       y="249.42296"
       x="-85.187347"
       height="3.2047501"
       width="14.915062"
       id="rect3952"
       style="fill:#f9f9f9;stroke:none;stroke-width:0.10694058;stroke-linecap:square;stroke-miterlimit:40" />
    <rect
       transform="scale(-1,1)"
       ry="1.1539743"
       y="254.41809"
       x="-85.187347"
       height="3.2047501"
       width="14.915062"
       id="rect3954"
       style="fill:#f9f9f9;stroke:none;stroke-width:0.10694058;stroke-linecap:square;stroke-miterlimit:40" />
    <rect
       transform="scale(-1,1)"
       style="fill:#f9f9f9;stroke:none;stroke-width:0.10694058;stroke-linecap:square;stroke-miterlimit:40"
       id="rect3956"
       width="14.915062"
       height="3.2047501"
       x="-85.187347"
       y="259.35999"
       ry="1.1539743" />
    <rect
       transform="scale(-1,1)"
       style="fill:#f9f9f9;stroke:none;stroke-width:0.10694058;stroke-linecap:square;stroke-miterlimit:40"
       id="rect3958"
       width="14.915062"
       height="3.2047501"
       x="-85.187347"
       y="264.35504"
       ry="1.1539743" />
    <rect
       transform="scale(-1,1)"
       ry="1.1539743"
       y="269.29706"
       x="-85.187347"
       height="3.2047501"
       width="14.915062"
       id="rect3960"
       style="fill:#f9f9f9;stroke:none;stroke-width:0.10694058;stroke-linecap:square;stroke-miterlimit:40" />
    <rect
       transform="scale(-1,1)"
       ry="1.1539743"
       y="274.29202"
       x="-85.187347"
       height="3.2047501"
       width="14.915062"
       id="rect3962"
       style="fill:#f9f9f9;stroke:none;stroke-width:0.10694058;stroke-linecap:square;stroke-miterlimit:40" />
    <rect
       transform="scale(-1,1)"
       ry="1.1539743"
       y="239.49255"
       x="-85.181519"
       height="3.2047501"
       width="14.915062"
       id="rect3964"
       style="fill:#f9f9f9;stroke:none;stroke-width:0.10694058;stroke-linecap:square;stroke-miterlimit:40" />
    <path
       style="fill:none;fill-opacity:1;stroke:#ffffff;stroke-width:0.57622856;stroke-linecap:square;stroke-miterlimit:40;stroke-dasharray:none"
       d="m 49.077591,281.14366 c 0,0 0.0293,0.89 0.041,1.41009 0,0 -0.83069,15.6426 18.54937,15.6426 19.32347,0 19.54704,-15.6426 19.54704,-15.6426 0.0682,-0.60648 0.0265,-1.8036 0.0265,-1.8036"
       id="path3966"
       inkscape:connector-curvature="0"
       sodipodi:nodetypes="ccscc" />
    <path
       style="fill:none;fill-opacity:1;stroke:#ffffff;stroke-width:0.57085872;stroke-linecap:square;stroke-miterlimit:40;stroke-dasharray:none"
       d="m 50.727821,281.26027 c 0,0 -0.67183,13.58032 16.99882,13.58032 17.74918,0 18.02109,-13.56865 18.02109,-13.56865"
       id="path3968"
       inkscape:connector-curvature="0"
       sodipodi:nodetypes="csc" />
    <path
       style="fill:none;fill-opacity:1;stroke:#ffffff;stroke-width:0.57138556;stroke-linecap:square;stroke-miterlimit:40;stroke-dasharray:none"
       d="m 49.067591,280.6575 c 0,0 8.4e-4,-0.40116 0.059,-0.75615 0.11726,-0.71808 1.27843,-0.72623 1.27843,-0.72623"
       id="path3970"
       inkscape:connector-curvature="0"
       sodipodi:nodetypes="csc" />
    <path
       sodipodi:nodetypes="csc"
       inkscape:connector-curvature="0"
       id="path3972"
       d="m 87.240641,280.67212 c 0,0 -0.008,-0.41578 -0.0661,-0.77077 -0.11727,-0.71808 -1.19001,-0.71997 -1.19001,-0.71997"
       style="fill:none;fill-opacity:1;stroke:#ffffff;stroke-width:0.57138556;stroke-linecap:square;stroke-miterlimit:40;stroke-dasharray:none" />
    <path
       style="fill:none;fill-opacity:1;stroke:#ffffff;stroke-width:0.58688211;stroke-linecap:square;stroke-miterlimit:40;stroke-dasharray:none"
       d="m 49.092511,281.54602 c 0,0 -0.84409,0.14754 -1.0868,-0.12458 -0.21388,-0.23988 -0.21833,-0.72872 0,-0.96486 0.24338,-0.26338 1.07217,-0.0841 1.07217,-0.0841"
       id="path3974"
       inkscape:connector-curvature="0"
       sodipodi:nodetypes="caac" />
    <path
       sodipodi:nodetypes="caac"
       inkscape:connector-curvature="0"
       id="path3976"
       d="m 87.307291,281.56805 c 0,0 0.82262,0.13879 1.05844,-0.12678 0.21728,-0.24534 0.2225,-0.74221 0,-0.9828 -0.24808,-0.26803 -1.09208,-0.0858 -1.09208,-0.0858"
       style="fill:none;fill-opacity:1;stroke:#ffffff;stroke-width:0.59776604;stroke-linecap:square;stroke-miterlimit:40;stroke-dasharray:none" />
    <path
       inkscape:connector-curvature="0"
       id="path3978"
       d="m 48.395051,281.28169 c -0.15721,-0.0246 -0.20081,-0.0481 -0.2392,-0.13306 -0.0488,-0.10792 -0.0494,-0.31712 0,-0.41036 0.0183,-0.0372 0.0598,-0.0768 0.0909,-0.0904 0.0507,-0.0219 0.49407,-0.0333 0.51029,-0.0164 0.005,0 0.0131,0.14945 0.0183,0.32206 0.0131,0.31281 0.0131,0.31417 -0.0334,0.32652 -0.0491,0.0164 -0.25906,0.0137 -0.34733,-4.3e-4 z"
       style="fill:#313131;fill-opacity:1;stroke:#ffffff;stroke-width:0.05187356;stroke-linecap:square;stroke-miterlimit:40;stroke-dasharray:none" />
    <path
       inkscape:connector-curvature="0"
       id="path3980"
       d="m 87.586741,281.2889 h -0.0632 l -0.008,-0.31775 c -0.005,-0.24644 -0.005,-0.31936 0.005,-0.32548 0.0208,-0.0164 0.18332,-0.0273 0.3304,-0.0246 0.1653,9.6e-4 0.26243,0.0219 0.29792,0.0618 0.0909,0.10273 0.0875,0.43261 -0.005,0.53228 -0.0611,0.0661 -0.26709,0.0937 -0.55766,0.0768 z"
       style="fill:#313131;fill-opacity:1;stroke:#ffffff;stroke-width:0.02593675;stroke-linecap:square;stroke-miterlimit:40;stroke-dasharray:none" />
    <path
       inkscape:connector-curvature="0"
       id="path3982"
       d="m 59.651951,296.72826 c -1.97528,-0.65613 -3.77465,-1.62544 -5.12814,-2.76283 -0.53227,-0.44725 -1.45225,-1.37861 -1.88709,-1.91053 -1.55452,-1.90122 -2.64779,-4.49488 -3.05524,-7.24792 -0.13136,-0.88866 -0.24652,-3.97443 -0.1721,-4.6302 0.0439,-0.38802 0.1533,-0.51889 0.5199,-0.62063 0.47057,-0.1306 0.47884,-0.12295 0.4848,0.45302 0.0274,2.63999 0.0752,3.14628 0.43301,4.56301 1.20309,4.76732 4.61694,8.15291 9.72798,9.64734 3.99187,1.16745 9.49649,1.23758 13.73492,0.17486 5.50445,-1.37974 9.30122,-4.66424 10.98856,-9.50618 0.49731,-1.42697 0.7085,-2.60955 0.76721,-4.29569 l 0.0384,-1.10365 0.18436,0.0396 c 0.23087,0.0497 0.48542,0.17786 0.54518,0.27456 0.0781,0.12649 0.11882,1.61437 0.0705,2.57701 -0.22327,4.46695 -2.34415,8.73481 -5.68697,11.44474 -1.53133,1.2414 -3.43198,2.24664 -5.54277,2.93137 l -0.70369,0.22841 h -7.27787 -7.27792 z"
       style="fill:#313131;fill-opacity:1;stroke:#313131;stroke-width:0.03227853;stroke-linecap:round;stroke-linejoin:round;stroke-miterlimit:40;stroke-dasharray:none;stroke-opacity:1;paint-order:fill markers stroke" />
    <rect
       y="297.68024"
       x="3.8301215"
       height="3.2859151"
       width="126.71633"
       id="rect3984"
       style="fill:#fb6400;fill-opacity:1;stroke:#ffffff;stroke-width:9.8911314;stroke-linecap:round;stroke-linejoin:miter;stroke-miterlimit:40;stroke-dasharray:none;stroke-opacity:1;paint-order:fill markers stroke" />
  </g>
</svg>
