<?xml version="1.0" encoding="UTF-8" standalone="no"?>
<!-- Created with Inkscape (http://www.inkscape.org/) -->

<svg
   xmlns:dc="http://purl.org/dc/elements/1.1/"
   xmlns:cc="http://creativecommons.org/ns#"
   xmlns:rdf="http://www.w3.org/1999/02/22-rdf-syntax-ns#"
   xmlns:svg="http://www.w3.org/2000/svg"
   xmlns="http://www.w3.org/2000/svg"
   xmlns:sodipodi="http://sodipodi.sourceforge.net/DTD/sodipodi-0.dtd"
   xmlns:inkscape="http://www.inkscape.org/namespaces/inkscape"
   width="512"
   height="512"
   viewBox="0 0 135.46666 135.46667"
   version="1.1"
   id="svg8"
   sodipodi:docname="logo_PiC.svg"
   inkscape:export-filename="/home/stormjugger/Dropbox/Podcast/logo_podcast_corsivo.png"
   inkscape:export-xdpi="96"
   inkscape:export-ydpi="96"
   inkscape:version="0.92.5 (2060ec1f9f, 2020-04-08)">
  <defs
     id="defs2" />
  <sodipodi:namedview
     id="base"
     pagecolor="#ffffff"
     bordercolor="#666666"
     borderopacity="1.0"
     inkscape:pageopacity="0.0"
     inkscape:pageshadow="2"
     inkscape:zoom="1.4142136"
     inkscape:cx="36.872795"
     inkscape:cy="194.66846"
     inkscape:document-units="px"
     inkscape:current-layer="layer1"
     showgrid="false"
     units="px"
     inkscape:showpageshadow="false"
     inkscape:measure-start="301.604,731.168"
     inkscape:measure-end="0,0"
     showguides="false"
     inkscape:window-width="3840"
     inkscape:window-height="2126"
     inkscape:window-x="-11"
     inkscape:window-y="-11"
     inkscape:window-maximized="1" />
  <metadata
     id="metadata5">
    <rdf:RDF>
      <cc:Work
         rdf:about="">
        <dc:format>image/svg+xml</dc:format>
        <dc:type
           rdf:resource="http://purl.org/dc/dcmitype/StillImage" />
        <dc:title />
      </cc:Work>
    </rdf:RDF>
  </metadata>
  <g
     inkscape:label="Layer 1"
     inkscape:groupmode="layer"
     id="layer1"
     transform="translate(0,-161.53332)">
    <flowRoot
       transform="matrix(0.26458333,0,0,0.26458333,70.345339,85.333325)"
       style="font-style:normal;font-variant:normal;font-weight:bold;font-stretch:normal;font-size:40px;line-height:1.25;font-family:terminal;-inkscape-font-specification:'terminal Bold';letter-spacing:0px;word-spacing:0px;fill:#000000;fill-opacity:1;stroke:none"
       id="flowRoot1376"
       xml:space="preserve"><flowRegion
         id="flowRegion1372"
         style="font-style:normal;font-variant:normal;font-weight:bold;font-stretch:normal;font-family:terminal;-inkscape-font-specification:'terminal Bold'"><rect
           y="-288.94443"
           x="50.91169"
           height="144.24979"
           width="749.5332"
           id="rect1370"
           style="font-style:normal;font-variant:normal;font-weight:bold;font-stretch:normal;font-family:terminal;-inkscape-font-specification:'terminal Bold'" /></flowRegion><flowPara
         id="flowPara1374" /></flowRoot>    <flowRoot
       xml:space="preserve"
       id="flowRoot832"
       style="font-style:normal;font-variant:normal;font-weight:bold;font-stretch:normal;font-size:40px;line-height:1.25;font-family:terminal;-inkscape-font-specification:'terminal Bold';letter-spacing:0px;word-spacing:0px;fill:#000000;fill-opacity:1;stroke:none"><flowRegion
         id="flowRegion834"
         style="font-style:normal;font-variant:normal;font-weight:bold;font-stretch:normal;font-family:terminal;-inkscape-font-specification:'terminal Bold'"><rect
           id="rect836"
           width="987.12109"
           height="214.96046"
           x="79.195961"
           y="59.325542"
           style="font-style:normal;font-variant:normal;font-weight:bold;font-stretch:normal;font-family:terminal;-inkscape-font-specification:'terminal Bold'" /></flowRegion><flowPara
         id="flowPara838" /></flowRoot>    <flowRoot
       xml:space="preserve"
       id="flowRoot856"
       style="font-style:normal;font-variant:normal;font-weight:bold;font-stretch:normal;font-size:40px;line-height:1.25;font-family:terminal;-inkscape-font-specification:'terminal Bold';letter-spacing:0px;word-spacing:0px;fill:#000000;fill-opacity:1;stroke:none"><flowRegion
         id="flowRegion858"
         style="font-style:normal;font-variant:normal;font-weight:bold;font-stretch:normal;font-family:terminal;-inkscape-font-specification:'terminal Bold'"><rect
           id="rect860"
           width="195.16147"
           height="288.49957"
           x="-1071.9739"
           y="53.66869"
           style="font-style:normal;font-variant:normal;font-weight:bold;font-stretch:normal;font-family:terminal;-inkscape-font-specification:'terminal Bold'" /></flowRegion><flowPara
         id="flowPara862" /></flowRoot>    <rect
       style="opacity:0.98999999;fill:#ff6600;fill-opacity:1;stroke:#ffffff;stroke-width:0.67302179;stroke-miterlimit:4;stroke-dasharray:none;stroke-opacity:1"
       id="rect1204"
       width="134.79364"
       height="134.79364"
       x="0.33651066"
       y="161.86983" />
    <circle
       r="38.379498"
       cy="252.58627"
       cx="45.284569"
       id="circle67"
       style="opacity:1;fill:#ff7f2a;fill-opacity:1;fill-rule:nonzero;stroke:none;stroke-width:0.65049821;stroke-miterlimit:4;stroke-dasharray:none;stroke-opacity:1" />
    <circle
       style="opacity:1;fill:#ffdd55;fill-opacity:1;fill-rule:nonzero;stroke:none;stroke-width:0.42770356;stroke-miterlimit:4;stroke-dasharray:none;stroke-opacity:1"
       id="path65"
       cx="39.478855"
       cy="258.77902"
       r="25.234528" />
    <g
       aria-label="{ } "
       transform="matrix(0.24932838,0,0,0.24940618,-65.321502,161.00318)"
       style="font-style:normal;font-weight:normal;font-size:40px;line-height:1.25;font-family:sans-serif;letter-spacing:0px;word-spacing:0px;fill:#ffffff;fill-opacity:1;stroke:#333333;stroke-width:2.69891787;stroke-miterlimit:4;stroke-dasharray:none;stroke-opacity:1"
       id="flowRoot1167">
      <path
         style="fill:#ffffff;stroke:#333333"
         d="m 553.70312,219.62109 h 1.36719 q 2.73438,0 3.55469,-0.83984 0.83984,-0.83984 0.83984,-3.63281 v -4.84375 q 0,-3.04688 0.87891,-4.4336 0.87891,-1.38672 3.04687,-1.91406 -2.16796,-0.48828 -3.04687,-1.875 -0.87891,-1.38672 -0.87891,-4.45312 v -4.84375 q 0,-2.77344 -0.83984,-3.61329 -0.82031,-0.85937 -3.55469,-0.85937 h -1.36719 v -2.79297 h 1.23047 q 4.86328,0 6.48438,1.44531 1.64062,1.42578 1.64062,5.74219 v 4.6875 q 0,2.91016 1.05469,4.04297 1.05469,1.11328 3.82813,1.11328 h 1.21093 v 2.79297 h -1.21093 q -2.77344,0 -3.82813,1.13281 -1.05469,1.13281 -1.05469,4.08203 v 4.66797 q 0,4.31641 -1.64062,5.76172 -1.6211,1.44531 -6.48438,1.44531 h -1.23047 z"
         id="path1274"
         inkscape:connector-curvature="0" />
      <path
         style="fill:#ffffff;stroke:#333333"
         d="m 530.94922,219.62109 v 2.8125 h -1.21094 q -4.86328,0 -6.52344,-1.44531 -1.64062,-1.44531 -1.64062,-5.76172 v -4.66797 q 0,-2.94922 -1.05469,-4.08203 -1.05469,-1.13281 -3.82812,-1.13281 H 515.5 v -2.79297 h 1.19141 q 2.79296,0 3.82812,-1.11328 1.05469,-1.13281 1.05469,-4.04297 v -4.6875 q 0,-4.31641 1.64062,-5.74219 1.66016,-1.44531 6.52344,-1.44531 h 1.21094 v 2.79297 h -1.32813 q -2.7539,0 -3.59375,0.85937 -0.83984,0.85938 -0.83984,3.61329 v 4.84375 q 0,3.0664 -0.89844,4.45312 -0.8789,1.38672 -3.02734,1.875 2.16797,0.52734 3.04687,1.91406 0.87891,1.38672 0.87891,4.4336 v 4.84375 q 0,2.7539 0.83984,3.61328 0.83985,0.85937 3.59375,0.85937 z"
         id="path1272"
         inkscape:connector-curvature="0" />
      <path
         style="fill:#ffffff;stroke:#333333"
         d="m 536.14126,169.65125 a 16.523098,13.532235 7.0027841 0 0 -14.74313,8.77227 12.166528,14.067961 70.359152 0 0 -4.82235,-5.70871 12.166528,14.067961 70.359152 0 0 -19.43004,3.95598 12.166528,14.067961 70.359152 0 0 -1.72059,12.41137 60.448255,38.22463 0 0 0 -0.0255,0.0127 11.573574,11.573574 0 0 0 -9.66034,-5.21212 11.573574,11.573574 0 0 0 -11.57364,11.57364 11.573574,11.573574 0 0 0 1.02348,4.72252 11.317609,18.788547 0 0 0 -1.92111,-0.29169 11.317609,18.788547 0 0 0 -11.31755,18.7885 11.317609,18.788547 0 0 0 11.31755,18.78852 11.317609,18.788547 0 0 0 0.39846,-0.023 16.201219,13.534383 22.803534 0 0 -0.52867,1.07298 16.201219,13.534383 22.803534 0 0 9.68984,18.7555 16.201219,13.534383 22.803534 0 0 16.24581,-1.29434 14.067961,12.166528 9.8015241 0 0 1.52528,6.07591 14.067961,12.166528 9.8015241 0 0 18.8649,6.10628 14.067961,12.166528 9.8015241 0 0 7.4319,-8.60383 11.317609,18.788547 80.942296 0 0 19.98824,6.96831 11.317609,18.788547 80.942296 0 0 16.77276,-14.13456 11.317609,18.788547 80.942296 0 0 -0.0834,-0.37676 60.448255,38.22463 0 0 0 0.27694,-0.10073 14.440421,14.440421 0 0 0 12.00595,6.43443 14.440421,14.440421 0 0 0 14.44014,-14.44015 14.440421,14.440421 0 0 0 -1.65722,-6.70092 11.317609,18.788547 0 0 0 1.7996,0.26129 11.317609,18.788547 0 0 0 11.31755,-18.78852 11.317609,18.788547 0 0 0 -11.31755,-18.7885 11.317609,18.788547 0 0 0 -2.14509,0.35592 19.971841,15.082643 25.638048 0 0 -12.02247,-20.82857 19.971841,15.082643 25.638048 0 0 -22.90076,2.4585 16.523098,13.532235 7.0027841 0 0 -14.41931,-12.04243 16.523098,13.532235 7.0027841 0 0 -2.81094,-0.178 z"
         id="path1270"
         inkscape:connector-curvature="0" />
      <path
         style="fill:#ffffff;stroke:#333333;stroke-width:2.69891739"
         d="m 487.96705,297.35225 a 7.7280829,7.7280829 0 0 1 -7.7281,7.72808 7.7280829,7.7280829 0 0 1 -7.72812,-7.72808 7.7280829,7.7280829 0 0 1 7.72812,-7.72808 7.7280829,7.7280829 0 0 1 7.7281,7.72808 z"
         id="path1266"
         inkscape:connector-curvature="0" />
      <path
         style="fill:#ffffff;stroke:#333333"
         d="m 470.61501,311.29913 a 5.725269,5.725269 0 0 1 -5.72526,5.72528 5.725269,5.725269 0 0 1 -5.72525,-5.72528 5.725269,5.725269 0 0 1 5.72525,-5.72526 5.725269,5.725269 0 0 1 5.72526,5.72526 z"
         id="path1264"
         inkscape:connector-curvature="0" />
      <path
         inkscape:connector-curvature="0"
         id="path1390"
         d="m 502.74726,277.44773 a 10.025774,10.025774 0 0 1 -10.02582,10.02576 10.025774,10.025774 0 0 1 -10.02584,-10.02576 10.025774,10.025774 0 0 1 10.02584,-10.02576 10.025774,10.025774 0 0 1 10.02582,10.02576 z"
         style="fill:#ffffff;stroke:#333333;stroke-width:2.69891787;stroke-miterlimit:4;stroke-dasharray:none" />
    </g>
    <path
       style="opacity:1;fill:#333333;fill-opacity:1;stroke:#ffffff;stroke-width:0.67048383;stroke-miterlimit:4;stroke-dasharray:none;stroke-opacity:1"
       d="m 22.580979,248.17901 c 7e-6,5.94845 0.480826,11.44508 5.630753,14.4193 2.348391,1.35627 4.94531,2.09198 7.564069,2.21133 v 15.499 H 22.590396 v 1.68545 H 50.6115 v -1.68545 H 37.460395 v -15.50722 c 2.561726,-0.14268 5.098006,-0.87584 7.39617,-2.20311 5.149922,-2.97422 5.798978,-8.47084 5.798985,-14.4193 h -1.56073 c 5.1e-5,5.39076 -0.351535,10.37207 -5.018617,13.06746 -4.667044,2.69535 -10.417069,2.69535 -15.084113,0 -4.667085,-2.69539 -4.85044,-7.6767 -4.850389,-13.06746 z"
       id="rect1244"
       inkscape:connector-curvature="0"
       sodipodi:nodetypes="ccccccccccccccccc" />
    <path
       style="opacity:1;fill:#333333;fill-opacity:1;stroke:#ffffff;stroke-width:0.67302179;stroke-miterlimit:4;stroke-dasharray:none;stroke-opacity:1"
       d="m 35.76009,223.81345 h 1.716075 c 5.032744,0 9.084372,4.10597 9.084372,9.20621 v 18.1385 c 0,5.10024 -4.051628,9.20621 -9.084372,9.20621 H 35.76009 c -5.032741,0 -9.084376,-4.10597 -9.084376,-9.20621 v -18.1385 c 0,-5.10024 4.051635,-9.20621 9.084376,-9.20621 z"
       id="rect1336"
       inkscape:connector-curvature="0" />
    <path
       style="opacity:1;fill:#ffffff;fill-opacity:1;stroke:#ffffff;stroke-width:0.67302179;stroke-miterlimit:4;stroke-dasharray:none;stroke-opacity:1"
       d="m 37.077529,233.10527 h 9.47862 v 2.88411 h -9.47862 z"
       id="rect1338"
       inkscape:connector-curvature="0" />
    <path
       style="opacity:1;fill:#ffffff;fill-opacity:1;stroke:#ffffff;stroke-width:0.67302179;stroke-miterlimit:4;stroke-dasharray:none;stroke-opacity:1"
       d="m 37.077518,243.26773 h 9.478623 v 2.88411 h -9.478623 z"
       id="rect1340"
       inkscape:connector-curvature="0" />
    <path
       style="opacity:1;fill:#ffffff;fill-opacity:1;stroke:#ffffff;stroke-width:0.67302179;stroke-miterlimit:4;stroke-dasharray:none;stroke-opacity:1"
       d="m 37.077529,238.22198 h 9.47862 v 2.88412 h -9.47862 z"
       id="rect1342"
       inkscape:connector-curvature="0" />
    <g
       aria-label="{ }"
       transform="matrix(0.2560244,0,0,0.25610429,-84.187328,-14.102555)"
       style="font-style:normal;font-weight:normal;font-size:40px;line-height:1.25;font-family:sans-serif;letter-spacing:0px;word-spacing:0px;fill:#ffffff;fill-opacity:1;stroke:#1a1a1a;stroke-width:2.62833095;stroke-miterlimit:4;stroke-dasharray:none;stroke-opacity:1"
       id="flowRoot1350">
      <path
         d="m 579.94922,913.10156 v 2.8125 h -1.21094 q -4.86328,0 -6.52344,-1.44531 -1.64062,-1.44531 -1.64062,-5.76172 v -4.66797 q 0,-2.94922 -1.05469,-4.08203 -1.05469,-1.13281 -3.82812,-1.13281 H 564.5 v -2.79297 h 1.19141 q 2.79296,0 3.82812,-1.11328 1.05469,-1.13281 1.05469,-4.04297 v -4.6875 q 0,-4.31641 1.64062,-5.74219 Q 573.875,879 578.73828,879 h 1.21094 v 2.79297 h -1.32813 q -2.7539,0 -3.59375,0.85937 -0.83984,0.85938 -0.83984,3.61328 v 4.84375 q 0,3.06641 -0.89844,4.45313 -0.8789,1.38672 -3.02734,1.875 2.16797,0.52734 3.04687,1.91406 0.87891,1.38672 0.87891,4.4336 v 4.84375 q 0,2.7539 0.83984,3.61328 0.83985,0.85937 3.59375,0.85937 z"
         id="path1429"
         inkscape:connector-curvature="0"
         style="fill:#ffffff;stroke:#1a1a1a" />
      <path
         d="m 602.70312,913.10156 h 1.36719 q 2.73438,0 3.55469,-0.83984 0.83984,-0.83985 0.83984,-3.63281 v -4.84375 q 0,-3.04688 0.87891,-4.4336 0.87891,-1.38672 3.04687,-1.91406 -2.16796,-0.48828 -3.04687,-1.875 -0.87891,-1.38672 -0.87891,-4.45313 v -4.84375 q 0,-2.77343 -0.83984,-3.61328 -0.82031,-0.85937 -3.55469,-0.85937 h -1.36719 V 879 h 1.23047 q 4.86328,0 6.48438,1.44531 1.64062,1.42578 1.64062,5.74219 v 4.6875 q 0,2.91016 1.05469,4.04297 1.05469,1.11328 3.82813,1.11328 h 1.21093 v 2.79297 h -1.21093 q -2.77344,0 -3.82813,1.13281 -1.05469,1.13281 -1.05469,4.08203 v 4.66797 q 0,4.31641 -1.64062,5.76172 -1.6211,1.44531 -6.48438,1.44531 h -1.23047 z"
         id="path1431"
         inkscape:connector-curvature="0"
         style="fill:#ffffff;stroke:#1a1a1a" />
    </g>
    <g
       aria-label="[inCodice]"
       transform="matrix(0.08451285,0,0,0.07540952,23.37935,180.02836)"
       style="font-style:normal;font-variant:normal;font-weight:bold;font-stretch:normal;font-size:40px;line-height:1.25;font-family:terminal;-inkscape-font-specification:'terminal Bold';letter-spacing:0px;word-spacing:0px;fill:#1a1a1a;fill-opacity:1;stroke:none"
       id="flowRoot49">
      <path
         d="m 125.62294,259.32234 v -122.88 h 15.744 c 3.648,0 6.144,-2.304 6.144,-5.76 0,-3.648 -2.304,-5.76 -5.952,-5.76 h -25.344 c -4.032,0 -6.72,2.688 -6.72,6.144 v 133.632 c 0,3.456 2.688,6.144 6.72,6.144 h 25.344 c 3.648,0 5.952,-2.304 5.952,-5.952 0,-3.456 -2.496,-5.568 -6.144,-5.568 z"
         style="font-style:normal;font-variant:normal;font-weight:normal;font-stretch:normal;font-size:192px;font-family:'Courier 10 Pitch';-inkscape-font-specification:'Courier 10 Pitch';fill:#1a1a1a"
         id="path869" />
      <path
         d="m 252.64294,222.84234 v -69.504 c 0,-2.304 -1.728,-3.84 -5.376,-3.84 h -27.456 c -4.992,0 -7.488,2.112 -7.488,6.528 0,4.416 2.688,6.72 7.872,6.72 h 18.24 v 60.096 h -28.608 c -5.184,0 -7.872,2.112 -7.872,6.528 0,4.416 2.496,6.72 7.488,6.72 h 72.768 c 5.568,0 7.68,-1.344 7.68,-6.72 0,-4.608 -2.304,-6.528 -7.104,-6.528 z m -17.472,-100.416 c 0,7.68 1.92,9.216 9.792,9.216 9.024,0 9.6,-2.112 9.6,-11.904 0,-9.792 -0.96,-12.672 -9.6,-12.672 -8.64,0 -9.792,2.88 -9.792,15.36 z"
         style="font-style:normal;font-variant:normal;font-weight:normal;font-stretch:normal;font-size:192px;font-family:'Courier 10 Pitch';-inkscape-font-specification:'Courier 10 Pitch';fill:#1a1a1a"
         id="path871" />
      <path
         d="m 324.55894,222.84234 h -1.92 c -7.68,0 -10.944,1.152 -10.944,6.528 0,4.416 2.496,6.72 7.872,6.72 h 22.08 c 7.104,0 9.984,-0.384 9.984,-6.72 0,-5.184 -2.496,-6.72 -9.024,-6.72 -1.152,0 -2.496,0.192 -4.032,0.192 v -38.976 c 0,-14.016 13.056,-22.464 24.384,-22.464 12.288,0 19.2,7.488 19.2,22.464 v 38.976 h -3.072 c -6.72,0 -9.408,1.344 -9.408,6.528 0,6.144 2.688,6.72 9.408,6.72 h 20.736 c 6.72,0 9.984,-1.344 9.984,-6.72 0,-4.8 -2.88,-6.528 -8.832,-6.528 h -4.224 v -42.432 c 0,-21.696 -12.672,-33.408 -30.528,-33.408 -9.792,0 -18.432,4.224 -27.456,12.672 v -6.336 c 0,-2.304 -1.728,-3.84 -5.376,-3.84 h -8.448 c -9.024,0 -13.248,0 -13.248,6.528 0,4.8 2.688,6.72 8.64,6.72 h 4.224 z"
         style="font-style:normal;font-variant:normal;font-weight:normal;font-stretch:normal;font-size:192px;font-family:'Courier 10 Pitch';-inkscape-font-specification:'Courier 10 Pitch';fill:#1a1a1a"
         id="path873" />
      <path
         d="m 504.57094,127.99434 c -9.024,-3.84 -17.472,-5.952 -26.112,-5.952 -31.104,0 -53.76,25.152 -53.76,58.56 0,34.368 23.04,58.176 53.376,58.176 12.096,0 22.08,-3.264 32.448,-9.984 6.912,-4.416 10.56,-7.488 10.56,-11.712 0,-3.84 -2.88,-6.72 -6.912,-6.72 -3.264,0 -7.104,4.224 -13.248,7.68 -7.296,4.032 -15.168,6.144 -22.08,6.144 -20.928,0 -37.056,-16.32 -37.056,-43.584 0,-29.568 14.976,-45.888 36.672,-45.888 12.48,0 22.08,6.912 24.384,15.744 2.112,8.448 1.152,13.056 9.216,13.056 5.568,0 6.72,-2.496 6.72,-7.488 0,-1.344 -0.384,-8.832 -0.384,-23.232 0,-6.528 -0.384,-9.408 -6.912,-9.408 -3.648,0 -5.568,1.344 -6.912,4.608 z"
         style="font-style:normal;font-variant:normal;font-weight:normal;font-stretch:normal;font-size:192px;font-family:'Courier 10 Pitch';-inkscape-font-specification:'Courier 10 Pitch';fill:#1a1a1a"
         id="path875" />
      <path
         d="m 639.46294,192.89034 c 0,-25.92 -19.2,-45.504 -48.96,-45.504 -29.76,0 -49.152,19.392 -49.152,45.504 0,26.112 19.392,45.504 49.152,45.504 29.76,0 48.96,-19.392 48.96,-45.504 z m -48.96,32.448 c -19.392,0 -32.832,-13.824 -32.832,-32.448 0,-18.624 13.44,-32.64 32.832,-32.64 19.392,0 32.832,14.016 32.832,32.64 0,18.816 -13.44,32.448 -32.832,32.448 z"
         style="font-style:normal;font-variant:normal;font-weight:normal;font-stretch:normal;font-size:192px;font-family:'Courier 10 Pitch';-inkscape-font-specification:'Courier 10 Pitch';fill:#1a1a1a"
         id="path877" />
      <path
         d="m 672.78694,194.04234 c 0,-18.624 11.904,-30.912 29.568,-30.912 17.472,0 29.568,12.672 29.568,29.952 0,17.28 -12.48,30.336 -29.76,30.336 -16.704,0 -29.376,-11.712 -29.376,-29.376 z m 61.44,42.048 h 17.856 c 4.032,0 6.72,-2.496 6.72,-6.72 0,-4.8 -2.688,-6.528 -8.64,-6.528 h -4.224 v -105.6 c 0,-2.688 -1.728,-3.84 -5.376,-3.84 h -19.2 c -4.992,0 -7.488,2.304 -7.488,6.72 0,6.144 4.032,6.72 12.864,6.72 h 4.992 v 35.904 c -7.296,-9.024 -17.664,-13.44 -30.528,-13.44 -25.344,0 -44.544,19.584 -44.544,44.352 0,26.304 18.048,44.736 41.664,44.736 13.248,0 24.768,-5.376 32.256,-14.784 v 7.68 c 0,3.264 0.768,4.8 3.648,4.8 z"
         style="font-style:normal;font-variant:normal;font-weight:normal;font-stretch:normal;font-size:192px;font-family:'Courier 10 Pitch';-inkscape-font-specification:'Courier 10 Pitch';fill:#1a1a1a"
         id="path879" />
      <path
         d="m 830.14294,222.84234 v -69.504 c 0,-2.304 -1.728,-3.84 -5.376,-3.84 h -27.456 c -4.992,0 -7.488,2.112 -7.488,6.528 0,4.416 2.688,6.72 7.872,6.72 h 18.24 v 60.096 h -28.608 c -5.184,0 -7.872,2.112 -7.872,6.528 0,4.416 2.496,6.72 7.488,6.72 h 72.768 c 5.568,0 7.68,-1.344 7.68,-6.72 0,-4.608 -2.304,-6.528 -7.104,-6.528 z m -17.472,-100.416 c 0,7.68 1.92,9.216 9.792,9.216 9.024,0 9.6,-2.112 9.6,-11.904 0,-9.792 -0.96,-12.672 -9.6,-12.672 -8.64,0 -9.792,2.88 -9.792,15.36 z"
         style="font-style:normal;font-variant:normal;font-weight:normal;font-stretch:normal;font-size:192px;font-family:'Courier 10 Pitch';-inkscape-font-specification:'Courier 10 Pitch';fill:#1a1a1a"
         id="path881" />
      <path
         d="m 979.24294,177.72234 v -17.472 c 0,-8.064 -0.96,-11.52 -6.72,-11.52 -4.8,0 -7.296,1.728 -7.296,5.952 v 0.384 c -10.368,-5.184 -19.776,-7.872 -29.568,-7.872 -26.88,0 -47.232,19.776 -47.232,45.696 0,25.92 20.16,45.504 47.424,45.504 22.656,0 43.776,-14.016 43.776,-22.848 0,-3.84 -2.688,-6.528 -6.528,-6.528 -4.992,0 -8.64,4.608 -14.4,8.448 -6.72,4.416 -14.4,6.912 -21.888,6.912 -19.584,0 -32.064,-13.056 -32.064,-31.68 0,-18.048 13.44,-30.912 32.832,-30.912 11.136,0 19.968,5.184 25.728,15.36 2.88,5.184 4.8,7.488 8.832,7.488 4.608,0 7.104,-2.304 7.104,-6.912 z"
         style="font-style:normal;font-variant:normal;font-weight:normal;font-stretch:normal;font-size:192px;font-family:'Courier 10 Pitch';-inkscape-font-specification:'Courier 10 Pitch';fill:#1a1a1a"
         id="path883" />
      <path
         d="m 1021.2069,184.63434 c 3.648,-15.552 15.744,-24.768 32.256,-24.768 15.168,0 27.072,9.792 28.8,24.768 z m -0.384,12.288 h 62.976 c 11.52,0 15.552,0 15.552,-8.832 0,-20.928 -17.472,-41.088 -45.888,-41.088 -28.992,0 -48.96,18.624 -48.96,45.504 0,28.032 18.048,45.888 47.04,45.888 12.672,0 26.304,-3.072 39.168,-9.408 5.568,-2.688 8.256,-5.568 8.256,-9.408 0,-3.456 -2.88,-6.144 -6.528,-6.144 -8.448,0 -20.544,11.712 -39.552,11.712 -19.392,0 -31.104,-10.176 -32.064,-28.224 z"
         style="font-style:normal;font-variant:normal;font-weight:normal;font-stretch:normal;font-size:192px;font-family:'Courier 10 Pitch';-inkscape-font-specification:'Courier 10 Pitch';fill:#1a1a1a"
         id="path885" />
      <path
         d="m 1170.8829,136.44234 v 122.88 h -15.744 c -3.648,0 -6.144,2.112 -6.144,5.568 0,3.648 2.304,5.952 5.952,5.952 h 25.152 c 4.032,0 6.912,-2.688 6.912,-6.144 v -133.632 c 0,-3.456 -2.88,-6.144 -6.912,-6.144 h -25.152 c -3.648,0 -5.952,2.112 -5.952,5.76 0,3.456 2.496,5.76 6.144,5.76 z"
         style="font-style:normal;font-variant:normal;font-weight:normal;font-stretch:normal;font-size:192px;font-family:'Courier 10 Pitch';-inkscape-font-specification:'Courier 10 Pitch';fill:#1a1a1a"
         id="path887" />
    </g>
    <g
       aria-label="Pensieri
"
       transform="matrix(0.18655317,0,0,0.16645853,-3.4050528,150.7266)"
       style="font-style:normal;font-variant:normal;font-weight:normal;font-stretch:normal;font-size:40px;line-height:1.25;font-family:'Courier 10 Pitch';-inkscape-font-specification:'Courier 10 Pitch';letter-spacing:0px;word-spacing:0px;fill:#1a1a1a;fill-opacity:1;stroke:none"
       id="flowRoot61">
      <path
         d="m 114.87094,175.76642 q -2.304,0 -3.456,-0.768 -1.152,-1.152 -1.152,-2.688 0.384,-1.536 1.536,-2.688 1.536,-1.152 4.608,-1.152 4.224,0 8.832,-1.152 4.608,-1.152 7.68,-3.456 8.064,-4.992 12.672,-14.208 4.992,-9.216 6.528,-17.664 1.92,-8.832 0,-14.976 -1.536,-6.528 -6.528,-6.144 -3.84,0.384 -6.912,2.688 -3.072,2.304 -5.76,5.376 -2.688,3.072 -4.992,6.912 -2.304,3.456 -3.84,6.144 -3.072,4.992 -8.832,17.664 -5.376,12.288 -10.752,26.112 -4.992003,13.824 -8.448003,25.728 -3.455999,11.52 -1.919999,14.592 1.151999,2.304 -0.384001,3.072 -1.151999,0.768 -3.071999,0 -1.536,-1.152 -3.072001,-3.84 -1.152,-3.072 -0.768,-8.064 0.768,-11.904 7.68,-31.872 6.912003,-19.968 15.360003,-47.232 3.456,-11.52 0.384,-16.128 -2.688,-4.992 -8.832,-2.688 -7.680003,2.688 -13.440003,11.904 -5.76,9.216 -5.76,18.048 0,4.224 -1.92,6.144 -1.919999,1.92 -3.839999,1.536 -1.92,-0.384 -3.84,-2.688 -1.536001,-2.304 -0.768001,-6.528 1.536001,-6.912 4.992001,-12.288 3.455999,-5.376 7.295999,-9.216 4.224001,-4.224 8.448001,-6.528 4.608,-2.304 8.064002,-3.072 8.832,-1.152 14.976,3.072 6.144,4.224 4.608,16.512 5.76,-8.832 12.288,-13.824 6.912,-4.992 12.672,-5.76 11.136,-1.536 14.976,6.144 4.224,7.296 2.304,18.048 -1.536,10.368 -8.448,21.504 -6.912,10.752 -17.664,16.512 -7.296,3.84 -13.824,5.376 -6.528,1.536 -7.68,1.536 z m 37.248,-29.184 q 3.456,-4.608 4.608,-9.984 1.536,-5.376 1.536,-9.984 0,-4.608 -0.768,-7.68 -0.768,-3.072 -1.152,-3.456 0.768,1.536 0.768,5.76 0.384,3.84 -0.384,8.448 -0.384,4.608 -1.536,9.6 -1.152,4.608 -3.072,7.296 z m -61.824002,58.752 q 0.384,0.768 0.768,-0.384 0.384,-1.152 -0.384,-1.152 -1.92,0 -0.384,1.536 z m 0.768,-5.376 q 0.768,0.768 1.152,0 0.384,-1.152 -0.384,-1.536 -0.768,0 -1.152,0.768 -0.384,0.384 0.384,0.768 z m -1.152,10.752 q 0.768,0.384 0.768,-0.768 0.384,-1.536 -0.384,-1.152 -2.304001,0 -0.384,1.92 z m 21.120002,-69.504 q 0.768,-2.688 -1.152,1.536 -1.92,4.224 -4.608,10.752 -2.304,6.144 -4.224,12.288 -1.920003,6.144 -1.536003,6.912 0.384,-1.92 1.920003,-5.76 1.536,-4.224 3.072,-8.832 1.92,-4.992 3.84,-9.216 1.92,-4.608 2.688,-7.68 z m 3.072,-9.6 q 1.152,0.384 1.536,-0.768 0.384,-1.536 -0.384,-1.92 -0.768,0 -1.536,1.152 -0.384,1.152 0.384,1.536 z m -1.92,6.528 q 1.152,0 1.536,-1.152 0.384,-1.152 -0.384,-1.536 -0.768,0 -1.536,1.152 -0.384,1.152 0.384,1.536 z"
         style="font-style:normal;font-variant:normal;font-weight:normal;font-stretch:normal;font-size:192px;font-family:'Beautiful and Openhearted';-inkscape-font-specification:'Beautiful and Openhearted';fill:#1a1a1a"
         id="path852" />
      <path
         d="m 185.01994,144.66242 q 5.76,0.384 8.064,3.456 2.304,2.688 1.92,6.912 -0.384,4.224 -3.456,8.832 -2.688,4.224 -6.528,7.68 -6.144,4.992 -12.672,8.064 -6.528,2.688 -12.672,4.992 -1.152,3.456 -1.152,7.68 0,3.84 1.536,6.912 1.536,3.072 4.608,4.608 3.456,1.152 8.832,-0.768 11.136,-4.224 19.2,-14.592 8.064,-10.368 14.976,-21.888 1.152,-1.152 1.92,0 0.768,0.768 0.384,1.92 -3.072,5.76 -7.68,13.056 -4.608,7.296 -10.752,13.44 -5.76,6.144 -13.056,9.984 -6.912,3.84 -14.976,2.688 -8.832,-1.152 -12.288,-7.68 -3.456,-6.912 -1.536,-16.512 1.536,-6.912 4.992,-13.824 3.072,-7.296 7.68,-12.672 4.992,-5.76 10.752,-9.216 5.76,-3.456 11.904,-3.072 z m -0.768,5.76 q -3.072,0.768 -6.912,3.84 -3.456,3.072 -7.296,7.68 -3.456,4.224 -6.144,9.6 -2.688,4.992 -3.456,9.6 6.912,-2.688 12.288,-5.376 5.76,-3.072 9.984,-7.296 2.688,-2.304 4.608,-5.76 1.92,-3.456 2.304,-6.528 0.768,-3.072 -0.768,-4.608 -1.152,-1.92 -4.608,-1.152 z m 0.384,-3.456 q -4.608,-0.384 -8.064,1.536 -3.456,1.536 -6.144,4.224 -2.688,2.304 -4.224,4.608 -1.152,2.304 -1.152,2.688 0.768,-1.152 2.304,-3.072 1.92,-2.304 4.608,-4.224 2.688,-2.304 5.76,-3.84 3.072,-1.92 6.912,-1.92 z m -21.504,14.976 q 0.384,0.768 1.152,0.384 1.152,-0.768 0.384,-1.536 -1.536,-1.536 -1.536,1.152 z m -2.304,3.84 q 0.384,0.768 1.152,0.384 0.768,-0.768 0,-1.536 -0.768,-0.768 -1.152,0 -0.384,0.384 0,1.152 z m -5.376,32.256 q 1.152,5.376 4.224,6.912 3.072,1.536 4.608,1.152 -1.92,0 -4.224,-1.152 -1.92,-1.536 -4.608,-6.912 z"
         style="font-style:normal;font-variant:normal;font-weight:normal;font-stretch:normal;font-size:192px;font-family:'Beautiful and Openhearted';-inkscape-font-specification:'Beautiful and Openhearted';fill:#1a1a1a"
         id="path854" />
      <path
         d="m 272.13394,162.71042 q 0.384,-0.768 1.536,-0.384 1.536,0.384 1.152,1.152 -2.304,5.376 -6.144,13.44 -3.84,7.68 -8.832,14.976 -4.992,7.296 -10.368,11.904 -5.376,4.608 -10.752,3.84 -5.376,-0.768 -7.296,-4.608 -1.536,-4.224 -1.152,-9.984 0.768,-6.144 3.072,-13.824 2.304,-7.68 5.376,-15.744 2.688,-7.296 3.072,-9.984 0.768,-3.072 -0.768,-2.688 -1.152,0 -4.224,2.688 -2.688,2.688 -6.912,6.912 -10.752,12.288 -17.28,21.504 -6.528,9.216 -7.68,21.504 0,3.072 -1.536,4.224 -1.536,0.768 -3.072,-0.384 -3.072,-2.304 -1.92,-10.752 1.152,-8.832 4.224,-18.048 3.072,-9.6 6.528,-17.664 3.456,-8.064 4.608,-9.984 2.688,-3.456 5.76,-4.992 3.456,-1.536 5.76,-1.152 2.304,0.384 2.688,2.688 0.384,2.304 -2.304,6.144 -4.608,4.992 -7.68,11.52 -3.072,6.528 -4.608,9.984 2.688,-4.224 6.912,-9.6 4.608,-5.376 9.216,-9.984 4.992,-4.608 9.6,-7.296 4.608,-2.688 8.064,-1.536 3.456,1.152 5.376,5.376 1.92,3.84 -2.304,13.44 -0.768,1.152 -4.992,9.216 -3.84,8.064 -5.76,16.512 -1.152,3.84 -1.536,7.296 0,3.456 1.152,4.992 1.536,1.152 3.84,0 2.688,-1.152 6.912,-6.144 6.144,-7.68 11.136,-14.976 5.376,-7.296 11.136,-19.584 z m -54.144,-13.824 q -3.84,4.224 -5.76,8.832 -1.92,4.608 -1.536,6.144 2.304,-6.144 7.296,-14.976 z m -16.128,48 q 0.768,0.768 1.152,-0.384 0.384,-1.536 -0.384,-1.536 -2.688,0 -0.768,1.92 z m 0.768,-5.76 q 0.768,0.768 1.152,-0.384 0.384,-1.536 -0.384,-1.536 -2.688,0 -0.768,1.92 z m -1.92,11.52 q 1.152,0.384 1.92,-1.152 0.384,-1.536 -1.536,-1.152 -1.92,0.768 -0.384,2.304 z m 36.48,-16.512 q -0.768,3.072 0.768,-0.768 1.92,-3.84 3.84,-9.6 1.92,-6.144 3.072,-11.52 1.536,-5.76 0.768,-6.528 -0.384,4.224 -3.456,13.056 -3.072,8.832 -4.992,15.36 z m -3.072,8.064 q 0,0.768 0.768,-0.384 0.768,-1.536 0,-1.536 -0.768,0 -1.152,0.768 -0.384,0.384 0.384,1.152 z m -0.768,5.76 q 1.152,0.384 1.152,-1.152 0,-1.536 -0.768,-1.152 -1.92,0.768 -0.384,2.304 z"
         style="font-style:normal;font-variant:normal;font-weight:normal;font-stretch:normal;font-size:192px;font-family:'Beautiful and Openhearted';-inkscape-font-specification:'Beautiful and Openhearted';fill:#1a1a1a"
         id="path856" />
      <path
         d="m 299.41294,160.40642 q -1.536,2.304 -3.84,3.072 -1.92,0.384 -3.456,0 -1.152,-0.768 -1.536,-2.304 0,-1.92 1.92,-4.224 2.688,-3.072 4.608,-5.76 1.92,-2.688 0.384,-6.144 -1.152,-3.072 -4.224,-3.072 -3.072,-0.384 -6.144,1.536 -3.072,1.536 -5.76,4.992 -2.304,3.072 -2.688,6.912 0,3.456 1.536,6.528 1.536,3.072 3.84,6.144 2.304,3.072 4.608,6.144 2.688,2.688 4.608,6.144 3.84,7.296 3.072,13.824 -0.768,6.528 -4.608,11.52 -3.84,4.608 -9.6,7.296 -5.76,2.304 -11.904,1.536 -5.376,-0.768 -8.448,-3.456 -3.072,-2.688 -3.84,-6.144 -0.768,-3.84 0.384,-7.68 1.152,-3.84 4.224,-6.528 2.688,-3.072 5.76,-3.456 2.688,-0.384 3.84,0.768 1.536,0.768 1.152,3.072 0,1.92 -3.072,3.84 -8.064,5.76 -7.296,10.752 0.384,4.608 8.064,5.76 4.608,0.768 8.448,-1.536 3.84,-2.304 5.76,-6.528 2.304,-4.224 1.536,-9.6 -0.384,-5.76 -4.992,-12.288 -2.304,-2.688 -4.992,-5.76 -2.304,-3.456 -4.608,-6.528 -1.92,-3.456 -2.688,-6.912 -1.152,-3.84 -0.384,-7.296 1.152,-6.144 5.76,-9.984 4.608,-4.224 9.984,-6.144 11.904,-3.456 16.512,5.376 1.92,3.456 1.536,8.064 -0.384,4.224 -3.456,8.064 z m -9.216,-19.584 q -4.992,-0.384 -8.064,1.536 -3.072,1.536 -4.992,3.84 -1.92,2.304 -2.688,4.608 -0.768,1.92 -0.768,2.304 0.768,-1.152 1.92,-3.072 1.152,-1.92 3.072,-3.84 1.92,-1.92 4.608,-3.456 2.688,-1.92 6.912,-1.92 z m -16.512,15.36 q 0.768,0.384 1.152,-0.384 0.384,-1.152 -0.768,-1.536 -2.304,0 -0.384,1.92 z m 0.384,4.608 q 0.768,0.384 1.152,-0.384 0.768,-1.152 -0.768,-1.536 -0.768,0 -1.152,0.768 0,0.384 0.768,1.152 z m 13.056,45.312 q 5.376,-5.376 4.608,-9.984 -0.384,-4.608 -1.92,-6.912 1.536,3.456 1.152,7.296 0,3.84 -3.84,9.6 z"
         style="font-style:normal;font-variant:normal;font-weight:normal;font-stretch:normal;font-size:192px;font-family:'Beautiful and Openhearted';-inkscape-font-specification:'Beautiful and Openhearted';fill:#1a1a1a"
         id="path858" />
      <path
         d="m 312.61294,196.50242 q -0.768,3.84 -0.384,5.76 0.384,1.536 1.536,1.92 1.536,0 3.072,-0.768 1.92,-1.152 3.456,-2.688 6.528,-6.528 12.288,-14.976 5.76,-8.448 11.52,-19.584 0.768,-0.768 1.536,-0.384 1.152,0.384 1.152,1.152 -0.384,0.384 -0.768,1.92 -0.384,1.152 -1.152,3.072 -0.768,1.536 -1.92,4.224 -1.536,3.456 -4.992,9.216 -3.456,5.376 -8.064,10.752 -4.224,4.992 -9.216,8.832 -4.608,3.456 -8.832,2.688 -4.608,-0.768 -6.144,-3.84 -1.536,-3.456 -1.536,-9.216 0.768,-6.144 3.456,-14.592 2.304,-8.832 4.608,-14.976 1.152,-4.224 2.688,-7.68 1.92,-3.456 2.688,-4.224 2.304,-3.456 4.992,-4.224 3.072,-1.152 4.608,0 1.92,0.768 2.304,3.456 0.384,2.688 -1.92,6.528 -2.688,4.608 -4.992,8.448 -1.92,3.84 -3.84,8.064 -1.536,3.84 -3.072,8.832 -1.536,4.992 -3.072,12.288 z m -3.84,5.76 q 0.384,-4.992 0.768,-9.216 0.384,-4.224 1.152,-7.68 -0.768,1.152 -1.536,7.296 -1.152,6.144 -0.384,9.6 z m 11.52,-46.08 q -2.688,0.768 -0.384,2.304 0.768,0.384 1.152,-0.768 0.384,-1.152 -0.768,-1.536 z m -2.688,5.376 q -0.768,0 -1.152,0.768 0,0.384 0.768,1.152 0.768,0.768 0.768,-0.384 0.384,-1.536 -0.384,-1.536 z m 5.76,-9.984 q -2.304,0.768 -0.768,2.304 0.768,0.768 1.152,-0.384 0.768,-1.152 -0.384,-1.92 z m 1.92,-10.368 q 0,-1.536 1.536,-6.912 1.536,-5.376 3.456,-8.448 1.536,-3.072 3.84,-3.456 2.688,-0.768 4.224,0.384 1.92,1.152 1.92,3.84 0.384,2.304 -2.304,5.76 -3.456,4.224 -5.76,6.144 -2.304,1.92 -3.84,4.992 -0.768,1.536 -1.92,1.152 -1.152,-0.384 -1.152,-3.456 z"
         style="font-style:normal;font-variant:normal;font-weight:normal;font-stretch:normal;font-size:192px;font-family:'Beautiful and Openhearted';-inkscape-font-specification:'Beautiful and Openhearted';fill:#1a1a1a"
         id="path860" />
      <path
         d="m 372.14494,144.66242 q 5.76,0.384 8.064,3.456 2.304,2.688 1.92,6.912 -0.384,4.224 -3.456,8.832 -2.688,4.224 -6.528,7.68 -6.144,4.992 -12.672,8.064 -6.528,2.688 -12.672,4.992 -1.152,3.456 -1.152,7.68 0,3.84 1.536,6.912 1.536,3.072 4.608,4.608 3.456,1.152 8.832,-0.768 11.136,-4.224 19.2,-14.592 8.064,-10.368 14.976,-21.888 1.152,-1.152 1.92,0 0.768,0.768 0.384,1.92 -3.072,5.76 -7.68,13.056 -4.608,7.296 -10.752,13.44 -5.76,6.144 -13.056,9.984 -6.912,3.84 -14.976,2.688 -8.832,-1.152 -12.288,-7.68 -3.456,-6.912 -1.536,-16.512 1.536,-6.912 4.992,-13.824 3.072,-7.296 7.68,-12.672 4.992,-5.76 10.752,-9.216 5.76,-3.456 11.904,-3.072 z m -0.768,5.76 q -3.072,0.768 -6.912,3.84 -3.456,3.072 -7.296,7.68 -3.456,4.224 -6.144,9.6 -2.688,4.992 -3.456,9.6 6.912,-2.688 12.288,-5.376 5.76,-3.072 9.984,-7.296 2.688,-2.304 4.608,-5.76 1.92,-3.456 2.304,-6.528 0.768,-3.072 -0.768,-4.608 -1.152,-1.92 -4.608,-1.152 z m 0.384,-3.456 q -4.608,-0.384 -8.064,1.536 -3.456,1.536 -6.144,4.224 -2.688,2.304 -4.224,4.608 -1.152,2.304 -1.152,2.688 0.768,-1.152 2.304,-3.072 1.92,-2.304 4.608,-4.224 2.688,-2.304 5.76,-3.84 3.072,-1.92 6.912,-1.92 z m -21.504,14.976 q 0.384,0.768 1.152,0.384 1.152,-0.768 0.384,-1.536 -1.536,-1.536 -1.536,1.152 z m -2.304,3.84 q 0.384,0.768 1.152,0.384 0.768,-0.768 0,-1.536 -0.768,-0.768 -1.152,0 -0.384,0.384 0,1.152 z m -5.376,32.256 q 1.152,5.376 4.224,6.912 3.072,1.536 4.608,1.152 -1.92,0 -4.224,-1.152 -1.92,-1.536 -4.608,-6.912 z"
         style="font-style:normal;font-variant:normal;font-weight:normal;font-stretch:normal;font-size:192px;font-family:'Beautiful and Openhearted';-inkscape-font-specification:'Beautiful and Openhearted';fill:#1a1a1a"
         id="path862" />
      <path
         d="m 391.29094,204.56642 q -0.384,3.072 -1.92,4.224 -1.92,0.768 -3.456,-0.384 -3.456,-2.304 -2.304,-11.136 1.152,-8.832 4.608,-18.816 3.072,-9.984 6.912,-18.432 3.84,-8.448 5.376,-9.984 3.072,-3.456 6.144,-4.608 3.456,-1.152 5.376,-0.384 2.304,0.384 2.304,2.688 0.384,2.304 -2.688,6.144 -5.376,6.144 -8.064,11.52 -2.688,5.376 -3.456,8.064 1.536,-1.536 5.376,-6.912 3.84,-5.376 8.448,-10.368 4.992,-5.376 9.984,-8.832 5.376,-3.84 9.984,-2.688 4.224,1.152 5.76,7.68 1.536,6.144 -2.688,13.824 -1.92,3.84 -4.224,4.992 -2.304,1.152 -4.224,0.384 -1.536,-0.768 -1.92,-3.456 0,-2.688 2.304,-6.144 0.768,-1.536 1.92,-3.84 1.152,-2.304 1.92,-4.608 1.152,-2.304 1.152,-3.84 0,-1.92 -1.152,-1.92 -2.304,0 -6.144,3.072 -3.84,2.688 -8.832,7.68 -4.608,4.608 -9.6,10.752 -4.608,5.76 -8.448,11.52 -1.152,1.536 -2.688,4.608 -1.152,3.072 -2.688,6.912 -1.152,3.456 -1.92,6.912 -1.152,3.072 -1.152,5.376 z m 12.288,-52.608 q -3.84,4.224 -6.144,8.832 -1.92,4.224 -1.536,5.76 2.688,-5.76 7.68,-14.592 z m -14.592,39.168 q -1.92,3.456 -2.688,8.448 -1.152,4.992 -0.768,5.76 0.384,-2.304 1.536,-6.528 1.152,-4.608 1.92,-7.68 z m 0.384,-2.304 q 0.768,0.768 1.536,-0.384 0.384,-1.536 -0.384,-1.536 -0.768,0 -1.152,0.768 -0.768,0.384 0,1.152 z m 14.976,-38.4 q 0.768,0.768 1.536,-0.384 0.768,-1.152 0,-1.536 -2.304,0 -1.536,1.92 z"
         style="font-style:normal;font-variant:normal;font-weight:normal;font-stretch:normal;font-size:192px;font-family:'Beautiful and Openhearted';-inkscape-font-specification:'Beautiful and Openhearted';fill:#1a1a1a"
         id="path864" />
      <path
         d="m 444.61294,196.50242 q -0.768,3.84 -0.384,5.76 0.384,1.536 1.536,1.92 1.536,0 3.072,-0.768 1.92,-1.152 3.456,-2.688 6.528,-6.528 12.288,-14.976 5.76,-8.448 11.52,-19.584 0.768,-0.768 1.536,-0.384 1.152,0.384 1.152,1.152 -0.384,0.384 -0.768,1.92 -0.384,1.152 -1.152,3.072 -0.768,1.536 -1.92,4.224 -1.536,3.456 -4.992,9.216 -3.456,5.376 -8.064,10.752 -4.224,4.992 -9.216,8.832 -4.608,3.456 -8.832,2.688 -4.608,-0.768 -6.144,-3.84 -1.536,-3.456 -1.536,-9.216 0.768,-6.144 3.456,-14.592 2.304,-8.832 4.608,-14.976 1.152,-4.224 2.688,-7.68 1.92,-3.456 2.688,-4.224 2.304,-3.456 4.992,-4.224 3.072,-1.152 4.608,0 1.92,0.768 2.304,3.456 0.384,2.688 -1.92,6.528 -2.688,4.608 -4.992,8.448 -1.92,3.84 -3.84,8.064 -1.536,3.84 -3.072,8.832 -1.536,4.992 -3.072,12.288 z m -3.84,5.76 q 0.384,-4.992 0.768,-9.216 0.384,-4.224 1.152,-7.68 -0.768,1.152 -1.536,7.296 -1.152,6.144 -0.384,9.6 z m 11.52,-46.08 q -2.688,0.768 -0.384,2.304 0.768,0.384 1.152,-0.768 0.384,-1.152 -0.768,-1.536 z m -2.688,5.376 q -0.768,0 -1.152,0.768 0,0.384 0.768,1.152 0.768,0.768 0.768,-0.384 0.384,-1.536 -0.384,-1.536 z m 5.76,-9.984 q -2.304,0.768 -0.768,2.304 0.768,0.768 1.152,-0.384 0.768,-1.152 -0.384,-1.92 z m 1.92,-10.368 q 0,-1.536 1.536,-6.912 1.536,-5.376 3.456,-8.448 1.536,-3.072 3.84,-3.456 2.688,-0.768 4.224,0.384 1.92,1.152 1.92,3.84 0.384,2.304 -2.304,5.76 -3.456,4.224 -5.76,6.144 -2.304,1.92 -3.84,4.992 -0.768,1.536 -1.92,1.152 -1.152,-0.384 -1.152,-3.456 z"
         style="font-style:normal;font-variant:normal;font-weight:normal;font-stretch:normal;font-size:192px;font-family:'Beautiful and Openhearted';-inkscape-font-specification:'Beautiful and Openhearted';fill:#1a1a1a"
         id="path866" />
    </g>
  </g>
</svg>