<svg width="781" height="684" viewBox="0 0 781 684" fill="none" xmlns="http://www.w3.org/2000/svg">
<path fill-rule="evenodd" clip-rule="evenodd" d="M341.111 298.164H441.076C480.294 306.969 511.825 325.84 527.705 349.792V420.458C505.505 453.947 452.705 477.504 391.093 477.504C329.482 477.504 276.682 453.945 254.481 420.458V349.792C270.361 325.84 301.895 306.969 341.111 298.164Z" fill="#B367D6"/>
<path fill-rule="evenodd" clip-rule="evenodd" d="M445.464 471.053C428.635 475.216 410.293 477.506 391.093 477.506C371.893 477.506 353.55 475.216 336.722 471.053L336.718 470.804C336.718 440.773 361.062 416.428 391.093 416.428C421.124 416.428 445.468 440.773 445.468 470.804L445.464 471.053Z" fill="#9650BC"/>
<path fill-rule="evenodd" clip-rule="evenodd" d="M391.093 426.543C415.539 426.543 435.355 446.359 435.355 470.805C435.355 495.251 415.539 515.067 391.093 515.067C366.648 515.067 346.832 495.251 346.832 470.805C346.832 446.359 366.649 426.543 391.093 426.543Z" fill="#6649C7"/>
<path fill-rule="evenodd" clip-rule="evenodd" d="M395.112 432.075C439.659 432.075 439.659 494.388 395.112 494.388C350.564 494.388 350.564 432.075 395.112 432.075Z" fill="#7151DD"/>
<path d="M446.162 84.6548C409.266 80.1465 372.371 80.3706 335.475 84.6548C322.653 62.4459 271.624 0.765991 248.782 0.765991C239.072 0.765991 231.201 8.6371 231.201 18.3483L195.2 287.568C185.28 361.759 311.912 441.455 391.093 441.455C470.276 441.455 596.907 361.761 586.986 287.568L550.987 18.3483C550.987 8.6371 543.116 0.765991 533.405 0.765991C510.561 0.765991 458.984 62.4473 446.162 84.6548Z" fill="url(#paint0_linear_11262_54850)"/>
<path d="M538.812 379.414C570.329 352.277 591.246 319.418 586.985 287.568C574.986 197.828 562.986 108.089 550.987 18.3483C550.987 8.6371 543.116 0.765991 533.405 0.765991C510.561 0.765991 458.984 62.4459 446.162 84.6548C426.761 110.401 406.579 138.434 391.093 178.022C381.017 203.779 386.56 232.633 391.093 273.117C391.093 336.33 443.286 412.42 538.812 379.414Z" fill="url(#paint1_linear_11262_54850)"/>
<path fill-rule="evenodd" clip-rule="evenodd" d="M529.808 50.0109C532.511 71.1522 533.768 79.5369 535.316 96.7156C535.875 102.916 536.95 106.786 530.692 105.131C513.691 100.638 505.435 98.4499 488.433 93.9555C480.871 91.9567 474.973 92.2268 479.414 86.0398C490.785 70.1933 502.565 55.9487 518.67 44.0161C526.678 38.0853 528.604 40.592 529.808 50.0109ZM252.378 50.0109C249.675 71.1522 248.418 79.5369 246.869 96.7156C246.309 102.916 245.236 106.786 251.494 105.131C268.493 100.638 276.751 98.4499 293.753 93.9555C301.315 91.9567 307.212 92.2268 302.772 86.0398C291.401 70.1933 279.621 55.9487 263.516 44.0161C255.508 38.0853 253.582 40.592 252.378 50.0109Z" fill="#FDFDFD"/>
<path d="M391.093 408.616C307.114 408.616 239.233 351.809 280 300.508C298.97 276.636 337.474 258.15 353.59 250.343C391.498 231.982 380.534 184.834 350.96 184.834C346.746 184.834 332.118 184.798 321.471 184.798C293.941 184.798 272.413 181.627 272.413 137.622H286.386C292.535 137.622 294.682 137.386 294.682 143.699C294.682 149.025 295.132 154.632 299.745 157.329C302.063 158.685 305.925 159.38 311.454 159.421C316.935 159.463 338.433 159.566 354.005 159.566C372.09 159.566 384.543 163.086 391.095 178.021C397.646 163.086 410.099 159.566 428.184 159.566C443.756 159.566 465.255 159.463 470.735 159.421C476.264 159.38 480.125 158.684 482.442 157.329C487.055 154.632 487.506 149.024 487.506 143.699C487.506 137.386 489.652 137.622 495.803 137.622H509.775C509.775 181.627 488.247 184.798 460.718 184.798C450.071 184.798 435.441 184.834 431.228 184.834C401.653 184.834 390.689 231.983 428.597 250.343C444.713 258.149 483.215 276.635 502.186 300.508C542.953 351.809 475.072 408.616 391.093 408.616Z" fill="white"/>
<path d="M434.396 293.318C438.473 298.597 437.87 306.502 433.055 310.97C395.111 346.136 387.141 346.198 349.13 310.97C344.314 306.502 343.713 298.599 347.789 293.318C360.069 279.853 422.615 280.4 434.396 293.318Z" fill="#3A2F26"/>
<path fill-rule="evenodd" clip-rule="evenodd" d="M327.484 200.54C339.135 200.54 348.581 209.986 348.581 221.638C348.581 233.29 339.135 242.735 327.484 242.735C315.831 242.735 306.386 233.29 306.386 221.638C306.386 209.986 315.831 200.54 327.484 200.54Z" fill="#3A2F26"/>
<path fill-rule="evenodd" clip-rule="evenodd" d="M335.191 208.395C337.88 208.617 340.549 211.24 341.151 214.253C341.755 217.267 340.066 219.53 337.378 219.307C334.69 219.084 332.022 216.462 331.418 213.449C330.815 210.435 332.505 208.172 335.191 208.395Z" fill="white"/>
<path fill-rule="evenodd" clip-rule="evenodd" d="M454.704 200.54C466.357 200.54 475.8 209.986 475.8 221.638C475.8 233.29 466.357 242.735 454.704 242.735C443.052 242.735 433.607 233.29 433.607 221.638C433.607 209.986 443.052 200.54 454.704 200.54Z" fill="#3A2F26"/>
<path fill-rule="evenodd" clip-rule="evenodd" d="M462.412 208.395C465.101 208.617 467.769 211.24 468.372 214.253C468.975 217.267 467.288 219.53 464.599 219.307C461.911 219.084 459.243 216.462 458.639 213.449C458.036 210.435 459.726 208.172 462.412 208.395Z" fill="white"/>
<path d="M319.965 358.005C318.644 355.706 319.437 352.768 321.737 351.447C324.036 350.126 326.975 350.918 328.295 353.217C330.222 356.555 333.285 359.176 336.755 361.037C340.818 363.215 345.386 364.323 349.373 364.323C357.265 364.323 361.766 361.194 369.197 358.416C390.179 350.576 391.218 350.29 412.2 358.129C419.631 360.908 424.923 364.323 432.815 364.323C436.8 364.323 441.369 363.215 445.432 361.037C448.901 359.176 451.963 356.555 453.891 353.217C455.212 350.918 458.15 350.125 460.449 351.447C462.749 352.769 463.543 355.706 462.221 358.005C459.323 363.023 454.896 366.868 449.954 369.518C444.445 372.473 438.239 373.975 432.815 373.975C423.283 373.975 414.01 370.509 405.772 367.429C391.352 362.041 390.836 362.041 376.414 367.429C368.177 370.509 358.903 373.975 349.373 373.975C343.949 373.975 337.742 372.473 332.232 369.518C327.289 366.868 322.862 363.025 319.965 358.005Z" fill="#3A2F26"/>
<path fill-rule="evenodd" clip-rule="evenodd" d="M370.484 466.283L360.517 476.25L383.697 499.429L421.67 461.456L411.703 451.487L383.697 479.493L370.484 466.283Z" fill="white"/>
<path d="M0.0668945 680.722V550.557H55.024C56.3129 550.557 58.0319 550.557 60.1768 550.701C62.2535 550.772 64.1854 550.986 65.9016 551.271C73.6335 552.489 80 555.064 85.008 558.929C89.9492 562.864 93.5973 567.801 95.9593 573.742C98.3214 579.684 99.4655 586.266 99.4655 593.565C99.4655 600.864 98.3214 607.446 95.9593 613.384C93.5263 619.323 89.874 624.26 84.9398 628.199C79.9304 632.134 73.5598 634.638 65.903 635.857C64.1868 636.144 62.2549 636.286 60.1086 636.428C57.8899 636.573 56.2433 636.573 55.0254 636.573H24.6851V680.723H0.0668945V680.722ZM24.6824 613.674H53.9509C55.2398 613.674 56.5983 613.6 58.0987 613.456C59.6033 613.313 60.9646 613.1 62.2507 612.741C65.5439 611.81 68.1175 610.309 69.9074 608.162C71.7684 606.016 72.9835 603.655 73.6989 601.006C74.4157 598.427 74.7025 595.923 74.7025 593.564C74.7025 591.202 74.4157 588.696 73.6989 586.12C72.9835 583.473 71.7684 581.109 69.9074 578.964C68.1175 576.815 65.5439 575.313 62.2507 574.384C60.9632 574.023 59.6019 573.813 58.0987 573.67C56.5983 573.594 55.2398 573.523 53.9509 573.523H24.6824V613.674V613.674ZM158.214 683.442C148.198 683.442 139.394 681.225 131.809 676.931C124.152 672.635 118.211 666.696 113.92 659.11C109.626 651.598 107.406 642.939 107.406 633.136C107.406 622.473 109.552 613.242 113.777 605.297C117.998 597.426 123.793 591.274 131.166 586.908C138.608 582.54 147.124 580.395 156.782 580.395C167.018 580.395 175.746 582.757 182.905 587.623C190.059 592.415 195.355 599.215 198.792 607.945C202.224 616.675 203.442 626.98 202.441 638.789H190.56H178.108H133.887C134.675 644.585 136.534 649.38 139.396 652.958C143.333 657.968 149.127 660.47 156.783 660.47C161.581 660.47 165.73 659.397 169.165 657.322C172.602 655.175 175.176 652.17 177.037 648.162L201.584 655.248C197.933 664.12 192.136 671.062 184.194 676.001C176.318 680.938 167.59 683.442 158.214 683.442ZM177.535 620.541C176.819 615.245 175.458 611.093 173.386 608.231C170.237 603.865 165.011 601.72 157.856 601.72C149.484 601.72 143.331 604.225 139.393 609.303C137.102 612.239 135.531 615.959 134.527 620.54H177.535V620.541ZM219.827 680.722V583.115H241.51V606.945L239.148 603.866C240.437 600.504 242.156 597.426 244.231 594.635C246.377 591.917 248.952 589.626 252.028 587.768C254.39 586.336 256.896 585.187 259.685 584.404C262.476 583.544 265.339 583.042 268.272 582.829C271.204 582.614 274.214 582.757 277.146 583.113V606.014C274.425 605.226 271.28 604.87 267.7 605.154C264.12 605.441 260.9 606.301 257.966 607.661C255.106 609.019 252.67 610.737 250.669 612.955C248.664 615.174 247.162 617.75 246.16 620.685C245.087 623.69 244.585 627.051 244.585 630.847V680.722H219.827ZM408.888 680.722V623.047C408.888 616.604 407.385 611.523 404.308 607.945C401.304 604.369 397.079 602.579 391.712 602.579C388.279 602.579 385.274 603.367 382.77 605.013C380.264 606.588 378.26 608.806 376.901 611.667C375.469 614.531 374.754 617.821 374.754 621.613V680.721H350.138V623.045C350.138 616.602 348.636 611.522 345.628 607.943C342.552 604.367 338.331 602.578 332.962 602.578C327.883 602.578 323.731 604.367 320.655 607.874C317.578 611.38 316.004 615.961 316.004 621.613V680.721H291.245V583.113H312.926V593.777C315.717 590.27 319.224 587.407 323.374 585.187C328.741 582.186 334.751 580.751 341.476 580.751C349.133 580.751 355.433 582.397 360.296 585.619C364.377 588.337 367.599 591.772 369.886 595.92C372.962 591.342 376.971 587.691 381.909 585.044C387.276 582.185 393.143 580.751 399.654 580.751C410.82 580.751 419.263 584.043 424.916 590.625C430.641 597.21 433.504 605.872 433.504 616.531V680.719H408.888V680.722ZM455.903 569.519V547.835H480.452V569.519H455.903ZM455.903 680.722V583.115H480.452V680.722H455.903ZM563.245 680.722C556.445 681.941 549.864 682.512 543.421 682.37C536.911 682.227 531.114 681.083 526.035 678.935C520.954 676.787 517.086 673.355 514.44 668.558C512.006 664.121 510.72 659.611 510.647 654.962C510.504 650.382 510.434 645.157 510.434 639.291V602.079H493.832V583.115H510.434V555.997H535.05V583.115H563.247V602.079H535.05V637.858C535.05 641.653 535.122 645.086 535.193 648.092C535.267 651.17 535.838 653.603 536.983 655.393C539.203 658.826 542.637 660.689 547.432 660.973C552.153 661.332 557.447 661.046 563.247 660.259V680.722H563.245ZM586 680.722V656.107H610.544V680.722H586ZM638.74 569.519V547.835H663.356V569.519H638.74ZM638.74 680.722V583.115H663.356V680.722H638.74ZM731.484 683.442C721.607 683.442 713.018 681.224 705.578 676.787C698.207 672.422 692.409 666.34 688.33 658.611C684.18 650.811 682.105 641.937 682.105 631.918C682.105 621.685 684.252 612.741 688.401 605.013C692.624 597.284 698.49 591.202 705.862 586.908C713.304 582.54 721.818 580.395 731.482 580.395C741.284 580.395 749.943 582.614 757.382 586.977C764.828 591.344 770.622 597.425 774.773 605.154C778.923 612.883 781 621.827 781 631.918C781 642.01 778.925 650.954 774.704 658.683C770.554 666.411 764.686 672.493 757.241 676.861C749.801 681.225 741.212 683.442 731.484 683.442ZM731.484 660.472C739.352 660.472 745.22 657.753 749.155 652.458C753.02 647.091 754.954 640.292 754.954 631.918C754.954 623.19 753.02 616.318 749.087 611.093C745.077 605.942 739.21 603.367 731.484 603.367C726.115 603.367 721.676 604.511 718.244 606.944C714.808 609.377 712.302 612.74 710.657 616.963C709.01 621.255 708.153 626.266 708.153 631.917C708.153 640.647 710.159 647.59 714.093 652.741C718.028 657.897 723.827 660.472 731.484 660.472Z" fill="white"/>
<defs>
<linearGradient id="paint0_linear_11262_54850" x1="391.093" y1="435.36" x2="391.093" y2="-1.01951" gradientUnits="userSpaceOnUse">
<stop stop-color="#FCAE75"/>
<stop offset="1" stop-color="#974EF2"/>
</linearGradient>
<linearGradient id="paint1_linear_11262_54850" x1="486.482" y1="393.604" x2="486.482" y2="2.4449" gradientUnits="userSpaceOnUse">
<stop stop-color="#FFC698"/>
<stop offset="1" stop-color="#BD87E9"/>
</linearGradient>
</defs>
</svg>