<svg id="Layer_1" data-name="Layer 1" xmlns="http://www.w3.org/2000/svg" viewBox="0 0 2000 2000"><defs><style>.cls-1,.cls-2,.cls-3,.cls-4,.cls-5,.cls-6{fill:none;stroke-linecap:round;stroke-linejoin:round;}.cls-1{stroke:#00283d;}.cls-1,.cls-2,.cls-3,.cls-4,.cls-5{stroke-width:67.96px;}.cls-2,.cls-3,.cls-4,.cls-5,.cls-6{stroke:#21fa90;}.cls-3{opacity:0.2;}.cls-4{opacity:0.4;}.cls-5{opacity:0.7;}.cls-6{stroke-width:70.05px;}</style></defs><path class="cls-1" d="M610.13,1336.34h1012v-.29c136.31-6.16,244.94-118.58,244.94-256.4,0-141.77-114.93-256.7-256.7-256.7a255.52,255.52,0,0,0-118.5,29c-42.1-97.31-127.47-171.53-231.86-198.36m-866.79,0C243.55,692.05,133,827.87,133,989.53s110.76,297.67,260.58,336"/><path class="cls-2" d="M661.56,916.05a322.34,322.34,0,0,0,164.19,44.64c178.89,0,323.91-145,323.91-323.92s-145-323.91-323.91-323.91-323.92,145-323.92,323.91v483.15"/><line class="cls-3" x1="501.83" y1="1630.69" x2="501.83" y2="1687.14"/><line class="cls-4" x1="502.33" y1="1453.1" x2="502.33" y2="1542.25"/><line class="cls-5" x1="501.83" y1="1211.73" x2="501.83" y2="1360.8"/><path class="cls-6" d="M793.55,866.39l-135,47.43,59.44,126"/></svg>