<svg id="spark-logo" class="spark-logo"
    xmlns="http://www.w3.org/2000/svg" width="211.369" height="30" viewBox="0 0 211.369 30">
    <path id="Path_23" data-name="Path 23" d="M109.836 409.536a14.75 14.75.0 0 0 10.023 4.163c-.363-3.777-.729-7.573-1.111-11.537C116.151 404.227 112.479 407.4 109.836 409.536z" transform="translate(-105.324 -383.698)" fill="#ffffff" fill-rule="evenodd"></path>
    <path id="Path_24" data-name="Path 24" d="M130.542 413.6a14.756 14.756.0 0 0 10.079-4.248c-2.616-2.094-6.359-5.309-9-7.393C131.248 405.962 130.894 409.791 130.542 413.6z" transform="translate(-115.429 -383.599)" fill="#ffffff" fill-rule="evenodd"></path>
    <path id="Path_25" data-name="Path 25" d="M105.132 375.787a14.759 14.759.0 0 0-4.108 10.05L112.5 384.8C110.411 382.134 107.218 378.4 105.132 375.787z" transform="translate(-101.024 -370.975)" fill="#ffffff" fill-rule="evenodd"></path>
    <path id="Path_26" data-name="Path 26" d="M101.035 396.606a14.754 14.754.0 0 0 4.146 9.859c2.1-2.6 5.232-6.227 7.23-8.746z" transform="translate(-101.029 -381.032)" fill="#ffffff" fill-rule="evenodd"></path>
    <path id="Path_27" data-name="Path 27" d="M143.817 406.194a14.76 14.76.0 0 0 4.108-10.05c-3.771.341-7.558.685-11.475 1.038C138.537 399.847 141.731 403.576 143.817 406.194z" transform="translate(-118.311 -380.807)" fill="#ffffff" fill-rule="evenodd"></path>
    <path id="Path_28" data-name="Path 28" d="M119.737 366.866a14.752 14.752.0 0 0-10.078 4.248c2.616 2.094 6.359 5.309 9 7.393C119.032 374.5 119.386 370.674 119.737 366.866z" transform="translate(-105.238 -366.669)" fill="#ffffff" fill-rule="evenodd"></path>
    <path id="Path_29" data-name="Path 29" d="M165.62 413.216a14.763 14.763.0 0 0 10.08-4.249c-2.618-2.094-6.36-5.309-9.005-7.393C166.325 405.58 165.972 409.408 165.62 413.216z" transform="translate(-132.32 -383.413)" fill="#ffffff" fill-rule="evenodd"></path>
    <path id="Path_30" data-name="Path 30" d="M140.209 375.4a14.755 14.755.0 0 0-4.108 10.05l11.476-1.038C145.488 381.751 142.3 378.022 140.209 375.4z" transform="translate(-118.142 -370.79)" fill="#ffffff" fill-rule="evenodd"></path>
    <path id="Path_31" data-name="Path 31" d="M171.525 396.8c2.089 2.665 5.282 6.393 7.368 9.012A14.757 14.757.0 0 0 183 395.762z" transform="translate(-135.179 -380.623)" fill="#ffffff" fill-rule="evenodd"></path>
    <path id="Path_32" data-name="Path 32" d="M153.74 378.124c.369-4 .723-7.832 1.075-11.641a14.756 14.756.0 0 0-10.079 4.248C147.353 372.825 151.095 376.041 153.74 378.124z" transform="translate(-122.355 -366.482)" fill="#ffffff" fill-rule="evenodd"></path>
    <path id="Path_33" data-name="Path 33" d="M175.574 370.644a14.759 14.759.0 0 0-10.023-4.163c.363 3.777.729 7.574 1.11 11.537C169.259 375.953 172.93 372.783 175.574 370.644z" transform="translate(-132.287 -366.481)" fill="#ffffff" fill-rule="evenodd"></path>
    <path id="Path_34" data-name="Path 34" d="M183.085 385.174a14.745 14.745.0 0 0-4.145-9.858c-2.1 2.6-5.231 6.228-7.23 8.746z" transform="translate(-135.269 -370.748)" fill="#ffffff" fill-rule="evenodd"></path>
    <path id="Path_35" data-name="Path 35" d="M216.93 389.508a3.7 3.7.0 0 0-.843-.734 5.193 5.193.0 0 0-1.014-.5 21.463 21.463.0 0 0-2.937-.8c-.626-.14-1.142-.273-1.556-.4a3.808 3.808.0 0 1-.983-.44 1.39 1.39.0 0 1-.517-.557 1.731 1.731.0 0 1-.151-.753 1.785 1.785.0 0 1 .838-1.535 4.174 4.174.0 0 1 2.378-.578q3.167.0 3.446 2.513h1.786a4.124 4.124.0 0 0-.436-1.773 3.828 3.828.0 0 0-1.095-1.3 4.927 4.927.0 0 0-1.65-.806 7.6 7.6.0 0 0-2.126-.28 6.663 6.663.0 0 0-2.012.285 4.775 4.775.0 0 0-1.556.794 3.732 3.732.0 0 0-1 1.215 3.439 3.439.0 0 0-.356 1.556 2.987 2.987.0 0 0 1.033 2.389 4.828 4.828.0 0 0 1.363.807 10.932 10.932.0 0 0 2.049.6q1.2.258 2.026.494a6.143 6.143.0 0 1 1.342.533 1.937 1.937.0 0 1 .74.692 1.974 1.974.0 0 1 .223.976 1.926 1.926.0 0 1-.248.979 2.356 2.356.0 0 1-.7.741 3.4 3.4.0 0 1-1.081.475 5.636 5.636.0 0 1-1.393.165 6.212 6.212.0 0 1-1.514-.184 4.056 4.056.0 0 1-1.254-.55 2.885 2.885.0 0 1-.887-.942 3.21 3.21.0 0 1-.412-1.361H206.66a5.134 5.134.0 0 0 .409 1.883 4.2 4.2.0 0 0 1.108 1.487 5.219 5.219.0 0 0 1.818.975 8.456 8.456.0 0 0 2.576.354 6.629 6.629.0 0 0 2.089-.315 5.031 5.031.0 0 0 1.625-.876 3.965 3.965.0 0 0 1.056-1.319 3.669 3.669.0 0 0 .378-1.655 3.593 3.593.0 0 0-.21-1.261A3.416 3.416.0 0 0 216.93 389.508z" transform="translate(-152.202 -373.744)" fill="#ffffff"></path>
    <path id="Path_36" data-name="Path 36" d="M247.944 383.724a3.531 3.531.0 0 0-.792-.855 2.914 2.914.0 0 0-1.033-.519 7.363 7.363.0 0 0-1.286-.241 14.993 14.993.0 0 0-1.552-.074H238.1V395.91h1.832v-5.546h3.5a5.967 5.967.0 0 0 3.873-1.09 3.886 3.886.0 0 0 1.323-3.2 4.387 4.387.0 0 0-.176-1.25A4 4 0 0 0 247.944 383.724zm-1.4 3.513a1.9 1.9.0 0 1-.563.809 2.6 2.6.0 0 1-1.013.5 5.866 5.866.0 0 1-1.511.171h-3.523v-5.039H243.4a7.832 7.832.0 0 1 1.845.168 1.668 1.668.0 0 1 .588.3 1.916 1.916.0 0 1 .467.52 2.748 2.748.0 0 1 .3.685 2.8 2.8.0 0 1 .111.79A3.125 3.125.0 0 1 246.54 387.237z" transform="translate(-167.434 -373.974)" fill="#ffffff"></path>
    <path id="Path_37" data-name="Path 37" d="M267.7 382.035l-5.4 13.875h1.966l4.38-11.9 4.383 11.9H275l-5.4-13.875z" transform="translate(-179.153 -373.974)" fill="#ffffff"></path>
    <path id="Path_38" data-name="Path 38" d="M303.205 389.622a5.218 5.218.0 0 0 1.292-.5 3.4 3.4.0 0 0 .975-.8 3.449 3.449.0 0 0 .62-1.079 3.826 3.826.0 0 0 .219-1.324 4.254 4.254.0 0 0-.169-1.195 4.312 4.312.0 0 0-.473-1.058 3.442 3.442.0 0 0-.731-.823 2.759 2.759.0 0 0-.934-.506 6.512 6.512.0 0 0-1.172-.229 13.272 13.272.0 0 0-1.463-.074h-6.143V395.91h1.833v-5.934h3.4a3.017 3.017.0 0 1 1 .165 3.093 3.093.0 0 1 .873.458 3.439 3.439.0 0 1 .693.712 3.9 3.9.0 0 1 .479.9l1.3 3.7H306.8l-1.4-3.776A3.753 3.753.0 0 0 303.205 389.622zm-.559-1.425a7.281 7.281.0 0 1-1.484.126h-4.1v-4.769h4.382q2.977.0 2.977 2.366a3.017 3.017.0 0 1-.182 1.118 1.639 1.639.0 0 1-.578.746A2.624 2.624.0 0 1 302.646 388.2z" transform="translate(-195.108 -373.974)" fill="#ffffff"></path>
    <path id="Path_39" data-name="Path 39" d="M338.532 382.035h-2.479l-6.774 6.885v-6.885h-1.834V395.91h1.834V391.1l2.16-2.112 4.931 6.918h2.415l-6.068-8.179z" transform="translate(-210.718 -373.974)" fill="#ffffff"></path>
    <path id="Path_40" data-name="Path 40" d="M500.122 382.035h-2.48l-6.774 6.885v-6.885h-1.834V395.91h1.834V391.1l2.16-2.112 4.931 6.918h2.414l-6.067-8.179z" transform="translate(-289.004 -373.974)" fill="#ffffff"></path>
    <path id="Path_41" data-name="Path 41" d="M357.554 395.91h1.836v-6.288h6.53v-1.65h-6.53v-4.3h7.525v-1.639h-9.36z" transform="translate(-225.314 -373.974)" fill="#ffffff"></path>
    <path id="Path_42" data-name="Path 42" d="M385.05 382.035l-5.4 13.875h1.966l4.383-11.9 4.382 11.9h1.967l-5.4-13.875z" transform="translate(-236.004 -373.974)" fill="#ffffff"></path>
    <path id="Path_43" data-name="Path 43" d="M422.284 389.806a3.221 3.221.0 0 0-.838-.765 3.83 3.83.0 0 0-1.169-.5 3.134 3.134.0 0 0 2-2.973 3.244 3.244.0 0 0-.33-1.483 3 3 0 0 0-.946-1.11 4.506 4.506.0 0 0-1.5-.7 7.327 7.327.0 0 0-1.987-.245h-4.942V395.91h5.2a6.18 6.18.0 0 0 3.868-1.033 3.588 3.588.0 0 0 1.318-2.994 3.657 3.657.0 0 0-.172-1.112A3.163 3.163.0 0 0 422.284 389.806zm-7.871-6.132h2.913a7 7 0 0 1 1.475.133 2.768 2.768.0 0 1 .97.389 1.445 1.445.0 0 1 .533.645 2.224 2.224.0 0 1 .165.9 1.81 1.81.0 0 1-.722 1.617 4.074 4.074.0 0 1-2.238.483h-3.1zm3.349 10.586h-3.349v-4.771h3.106a8.093 8.093.0 0 1 1.7.147 2.819 2.819.0 0 1 1.083.441 1.594 1.594.0 0 1 .585.746 2.955 2.955.0 0 1 .167 1.059Q421.05 394.261 417.762 394.26z" transform="translate(-251.967 -373.974)" fill="#ffffff"></path>
    <path id="Path_44" data-name="Path 44" d="M450.663 389.622a5.224 5.224.0 0 0 1.293-.5 3.42 3.42.0 0 0 1.6-1.874 3.851 3.851.0 0 0 .221-1.324 4.238 4.238.0 0 0-.172-1.195 4.186 4.186.0 0 0-.474-1.058 3.376 3.376.0 0 0-.728-.823 2.791 2.791.0 0 0-.938-.506 6.481 6.481.0 0 0-1.171-.229 13.254 13.254.0 0 0-1.46-.074h-6.145V395.91h1.832v-5.934h3.4a3.03 3.03.0 0 1 1 .165 3.109 3.109.0 0 1 .871.458 3.438 3.438.0 0 1 .693.712 3.94 3.94.0 0 1 .48.9l1.3 3.7h1.991l-1.4-3.776A3.755 3.755.0 0 0 450.663 389.622zm-.558-1.425a7.246 7.246.0 0 1-1.48.126H444.52v-4.769H448.9q2.978.0 2.975 2.366a3.038 3.038.0 0 1-.182 1.118 1.651 1.651.0 0 1-.578.746A2.6 2.6.0 0 1 450.105 388.2z" transform="translate(-266.387 -373.974)" fill="#ffffff"></path>
    <path id="Rectangle_35" data-name="Rectangle 35" d="M0 0h1.843v13.875H0z" transform="translate(193.032 8.061)" fill="#ffffff"></path>
</svg>