<svg xmlns="http://www.w3.org/2000/svg" xmlns:xlink="http://www.w3.org/1999/xlink" viewBox="0 0 229.84 82.6"><defs><style>.cls-1{fill:none;}.cls-2{clip-path:url(#clip-path);}.cls-3{fill:#55565b;}.cls-4{fill:#00abc7;}.cls-5{clip-path:url(#clip-path-2);}</style><clipPath id="clip-path" transform="translate(-41.41 0)"><rect class="cls-1" width="312.67" height="82.6"/></clipPath><clipPath id="clip-path-2" transform="translate(-41.41 0)"><rect class="cls-1" x="41.41" width="229.84" height="82.6"/></clipPath></defs><g id="Layer_2" data-name="Layer 2"><g id="Layer_1-2" data-name="Layer 1"><g class="cls-2"><path class="cls-3" d="M139.54,65.58a8,8,0,0,1-3.08,6.84,12,12,0,0,1-7.62,2.2,19,19,0,0,1-12-4.23l3.4-5.22q4.59,3.33,8.82,3.34c2.23,0,3.34-.7,3.34-2.09v-.1c0-.77-.57-1.41-1.72-1.94-.42-.17-1.78-.6-4.08-1.3q-8.34-2.46-8.35-8.41v-.1a8,8,0,0,1,3-6.58,11,11,0,0,1,7.2-2.3,18.34,18.34,0,0,1,10.45,3.24l-3,5.48q-4.44-2.61-7.57-2.61c-1.95,0-2.93.65-2.93,1.93v.11c0,.69.58,1.32,1.73,1.88.45.21,1.77.69,4,1.46a20.23,20.23,0,0,1,5.7,2.71,6.85,6.85,0,0,1,2.76,5.59Z" transform="translate(-41.41 0)"/><path class="cls-3" d="M158.84,74.77a15,15,0,0,1-3.6,6.06,8.36,8.36,0,0,1-5.59,1.77,13.7,13.7,0,0,1-7.05-1.93l2.67-5.74a6.65,6.65,0,0,0,3.39,1.1,2.93,2.93,0,0,0,2.77-1.83l-11-28.09h8.41l6.37,19.06,6.11-19.06h8.24Z" transform="translate(-41.41 0)"/><path class="cls-3" d="M192,65.58a8.07,8.07,0,0,1-3.08,6.84,12,12,0,0,1-7.62,2.2,18.94,18.94,0,0,1-12-4.23l3.39-5.22q4.6,3.33,8.83,3.34c2.22,0,3.34-.7,3.34-2.09v-.1c0-.77-.58-1.41-1.73-1.94-.41-.17-1.77-.6-4.07-1.3q-8.35-2.46-8.35-8.41v-.1a8,8,0,0,1,3-6.58,11,11,0,0,1,7.2-2.3,18.29,18.29,0,0,1,10.44,3.24l-3,5.48c-3-1.74-5.49-2.61-7.57-2.61s-2.93.65-2.93,1.93v.11c0,.69.58,1.32,1.73,1.88.45.21,1.77.69,4,1.46a20.14,20.14,0,0,1,5.69,2.71A6.84,6.84,0,0,1,192,65.48Z" transform="translate(-41.41 0)"/><path class="cls-3" d="M216.16,74.09V71.64a12.61,12.61,0,0,1-8.71,3,11.83,11.83,0,0,1-8.83-3.71q-3.92-4.08-3.91-10.76v-.1q0-6.69,3.86-10.75a11.86,11.86,0,0,1,8.88-3.71,14.14,14.14,0,0,1,8.71,2.61V36h7.94V74.09Zm.11-14a8,8,0,0,0-2-5.59,6.52,6.52,0,0,0-9.61-.05,7.94,7.94,0,0,0-2,5.64v.1a7.87,7.87,0,0,0,2,5.59,6.46,6.46,0,0,0,9.61,0,8,8,0,0,0,2-5.59Z" transform="translate(-41.41 0)"/><path class="cls-3" d="M228.9,36h8.36V43H228.9Zm.21,10.13h7.94v28h-7.94Z" transform="translate(-41.41 0)"/><path class="cls-3" d="M271.26,67.78q0,7.77-3.92,11.33-3.76,3.44-11.69,3.44a26.09,26.09,0,0,1-12.38-2.92L246,73.15a19,19,0,0,0,9.45,2.56q8,0,8-6.58v-.31a14.21,14.21,0,0,1-9.13,3,11.93,11.93,0,0,1-8.67-3.4,12.86,12.86,0,0,1-3.76-9.65v-.11A12.78,12.78,0,0,1,245.67,49a11.93,11.93,0,0,1,8.62-3.39,15.59,15.59,0,0,1,9,2.61V46.11h7.94Zm-7.84-9.14a6.06,6.06,0,0,0-2-4.65,7.39,7.39,0,0,0-9.71,0,6.12,6.12,0,0,0-1.93,4.65v.11a6.15,6.15,0,0,0,1.93,4.69,6.89,6.89,0,0,0,4.86,1.78,6.79,6.79,0,0,0,4.85-1.83,6,6,0,0,0,2-4.64Z" transform="translate(-41.41 0)"/><path class="cls-4" d="M83.55,74A19.87,19.87,0,0,1,65.93,63.68C64.38,61,60.38,53.86,60.18,53.5a2.69,2.69,0,0,1,4.71-2.62c0,.09,4.18,7.45,5.71,10.1,3.8,6.58,10.75,9.09,18.6,6.71a2.7,2.7,0,0,1,1.56,5.17A25,25,0,0,1,83.55,74" transform="translate(-41.41 0)"/></g><g class="cls-5"><path class="cls-4" d="M84.14,82.51c-10.28,0-19.87-4.8-24.7-13.17l-11-19.1a2.71,2.71,0,0,1,1-3.69l7.52-4.33a2.69,2.69,0,1,1,2.69,4.66l-5.18,3,9.69,16.78c5.25,9.09,17.73,12.88,29.19,8.93,9.15-8,12.11-20.65,6.86-29.74L90.89,29.78a2.7,2.7,0,0,1,4.67-2.7l9.27,16.06c6.6,11.45,3,27.3-8.43,36.88a2.73,2.73,0,0,1-.81.47,33.56,33.56,0,0,1-11.45,2M94.67,78Z" transform="translate(-41.41 0)"/><path class="cls-4" d="M83.33,65.22c-4.26,0-7.87-2.83-9.7-6L41.78,4a2.69,2.69,0,1,1,4.67-2.69L78.3,56.51c.87,1.51,3.33,4.09,6.43,3.09a2.69,2.69,0,1,1,1.65,5.13,9.81,9.81,0,0,1-3,.49" transform="translate(-41.41 0)"/></g><g class="cls-2"><path class="cls-4" d="M76.43,36.75a2.8,2.8,0,0,1-.7-.09,2.67,2.67,0,0,1-1.63-1.25L65.16,19.92a2.69,2.69,0,1,1,4.67-2.69l7.59,13.14,4.82-2.78a2.7,2.7,0,1,1,2.7,4.67l-7.16,4.13a2.7,2.7,0,0,1-1.35.36" transform="translate(-41.41 0)"/></g></g></g></svg>