<?xml version="1.0" encoding="UTF-8"?>
<!DOCTYPE svg PUBLIC "-//W3C//DTD SVG 1.1//EN" "http://www.w3.org/Graphics/SVG/1.1/DTD/svg11.dtd">
<svg xmlns="http://www.w3.org/2000/svg" version="1.1" width="1703px" height="1327px" style="shape-rendering:geometricPrecision; text-rendering:geometricPrecision; image-rendering:optimizeQuality; fill-rule:evenodd; clip-rule:evenodd" xmlns:xlink="http://www.w3.org/1999/xlink">
<g><path style="opacity:0.995" fill="#243367" d="M 134.5,-0.5 C 657.167,-0.5 1179.83,-0.5 1702.5,-0.5C 1702.5,341.167 1702.5,682.833 1702.5,1024.5C 1668.5,1024.5 1634.5,1024.5 1600.5,1024.5C 1599.2,1019.4 1599.2,1014.4 1600.5,1009.5C 1629.83,1009.5 1659.17,1009.5 1688.5,1009.5C 1688.5,677.5 1688.5,345.5 1688.5,13.5C 1175.5,13.5 662.5,13.5 149.5,13.5C 149.5,37.5 149.5,61.5 149.5,85.5C 144.4,86.7999 139.4,86.7999 134.5,85.5C 134.5,56.8333 134.5,28.1667 134.5,-0.5 Z"/></g>
<g><path style="opacity:0.99" fill="#ec661a" d="M 56.5,888.5 C 51.4889,888.334 46.4889,888.501 41.5,889C 45.466,889.828 49.466,890.328 53.5,890.5C 54.5,890.5 55.5,890.5 56.5,890.5C 56.5,953.5 56.5,1016.5 56.5,1079.5C 37.8333,1079.5 19.1667,1079.5 0.5,1079.5C 0.5,748.167 0.5,416.833 0.5,85.5C 19.1667,85.5 37.8333,85.5 56.5,85.5C 56.5,353.167 56.5,620.833 56.5,888.5 Z"/></g>
<g><path style="opacity:0.995" fill="#f08113" d="M 134.5,85.5 C 139.4,86.7999 144.4,86.7999 149.5,85.5C 173.5,85.5 197.5,85.5 221.5,85.5C 221.5,350.5 221.5,615.5 221.5,880.5C 208.717,882.532 195.717,884.032 182.5,885C 158.517,886.582 134.517,887.749 110.5,888.5C 110.5,620.833 110.5,353.167 110.5,85.5C 118.5,85.5 126.5,85.5 134.5,85.5 Z"/></g>
<g><path style="opacity:0.998" fill="#f59e17" d="M 442.5,839.5 C 387.899,854.821 332.565,866.487 276.5,874.5C 276.5,611.5 276.5,348.5 276.5,85.5C 331.833,85.5 387.167,85.5 442.5,85.5C 442.5,336.833 442.5,588.167 442.5,839.5 Z"/></g>
<g><path style="opacity:0.995" fill="#fcbd16" d="M 718.5,728.5 C 647.44,766.752 573.44,798.419 496.5,823.5C 496.5,577.5 496.5,331.5 496.5,85.5C 570.5,85.5 644.5,85.5 718.5,85.5C 718.5,299.833 718.5,514.167 718.5,728.5 Z"/></g>
<g><path style="opacity:0.997" fill="#fcdb17" d="M 1104.5,239.5 C 1066.37,251.709 1028.37,264.209 990.5,277C 1028.6,291.421 1066.6,305.921 1104.5,320.5C 1104.5,357.833 1104.5,395.167 1104.5,432.5C 1005.64,536.509 894.97,625.176 772.5,698.5C 772.5,494.167 772.5,289.833 772.5,85.5C 883.167,85.5 993.833,85.5 1104.5,85.5C 1104.5,136.833 1104.5,188.167 1104.5,239.5 Z"/></g>
<g><path style="opacity:0.997" fill="#f3e71c" d="M 1600.5,1009.5 C 1599.2,1014.4 1599.2,1019.4 1600.5,1024.5C 1600.5,1042.83 1600.5,1061.17 1600.5,1079.5C 1453.17,1079.5 1305.83,1079.5 1158.5,1079.5C 1158.5,1061.17 1158.5,1042.83 1158.5,1024.5C 1159.8,1019.4 1159.8,1014.4 1158.5,1009.5C 1158.5,893.5 1158.5,777.5 1158.5,661.5C 1254.86,598.367 1342.19,523.867 1420.5,438C 1421.83,437.333 1423.17,437.333 1424.5,438C 1479.29,463.297 1533.95,488.797 1588.5,514.5C 1588.83,513.833 1589.17,513.167 1589.5,512.5C 1545.5,384.172 1501.5,255.839 1457.5,127.5C 1454.86,126.644 1452.19,126.81 1449.5,128C 1352.63,159.679 1255.63,190.846 1158.5,221.5C 1158.5,176.167 1158.5,130.833 1158.5,85.5C 1305.83,85.5 1453.17,85.5 1600.5,85.5C 1600.5,393.5 1600.5,701.5 1600.5,1009.5 Z"/></g>
<g><path style="opacity:0.999" fill="#fffefe" d="M 1158.5,661.5 C 1140.83,673.002 1122.83,684.002 1104.5,694.5C 999.682,754.45 889.015,800.783 772.5,833.5C 754.683,838.771 736.683,843.437 718.5,847.5C 645.188,864.385 571.188,877.385 496.5,886.5C 478.526,888.431 460.526,890.097 442.5,891.5C 387.246,895.608 331.913,897.941 276.5,898.5C 258.185,899.099 239.852,899.099 221.5,898.5C 184.489,897.467 147.489,896.134 110.5,894.5C 92.4602,893.545 74.4602,892.211 56.5,890.5C 55.5,890.5 54.5,890.5 53.5,890.5C 54.5,889.833 55.5,889.167 56.5,888.5C 74.5,888.5 92.5,888.5 110.5,888.5C 134.517,887.749 158.517,886.582 182.5,885C 195.717,884.032 208.717,882.532 221.5,880.5C 239.878,878.911 258.212,876.911 276.5,874.5C 332.565,866.487 387.899,854.821 442.5,839.5C 460.484,834.17 478.484,828.837 496.5,823.5C 573.44,798.419 647.44,766.752 718.5,728.5C 736.527,718.488 754.527,708.488 772.5,698.5C 894.97,625.176 1005.64,536.509 1104.5,432.5C 1123.23,414.105 1141.23,395.105 1158.5,375.5C 1167,367.161 1175,358.328 1182.5,349C 1174.62,345.559 1166.62,342.392 1158.5,339.5C 1140.51,333.17 1122.51,326.837 1104.5,320.5C 1066.6,305.921 1028.6,291.421 990.5,277C 1028.37,264.209 1066.37,251.709 1104.5,239.5C 1122.64,233.675 1140.64,227.675 1158.5,221.5C 1255.63,190.846 1352.63,159.679 1449.5,128C 1452.19,126.81 1454.86,126.644 1457.5,127.5C 1501.5,255.839 1545.5,384.172 1589.5,512.5C 1589.17,513.167 1588.83,513.833 1588.5,514.5C 1533.95,488.797 1479.29,463.297 1424.5,438C 1423.17,437.333 1421.83,437.333 1420.5,438C 1342.19,523.867 1254.86,598.367 1158.5,661.5 Z"/></g>
<g><path style="opacity:0.98" fill="#f3e722" d="M 1158.5,339.5 C 1166.62,342.392 1174.62,345.559 1182.5,349C 1175,358.328 1167,367.161 1158.5,375.5C 1158.5,363.5 1158.5,351.5 1158.5,339.5 Z"/></g>
<g><path style="opacity:0.995" fill="#fcdb17" d="M 1104.5,694.5 C 1104.5,799.5 1104.5,904.5 1104.5,1009.5C 1103.2,1014.4 1103.2,1019.4 1104.5,1024.5C 1104.5,1042.83 1104.5,1061.17 1104.5,1079.5C 993.833,1079.5 883.167,1079.5 772.5,1079.5C 772.5,1061.17 772.5,1042.83 772.5,1024.5C 773.8,1019.4 773.8,1014.4 772.5,1009.5C 772.5,950.833 772.5,892.167 772.5,833.5C 889.015,800.783 999.682,754.45 1104.5,694.5 Z"/></g>
<g><path style="opacity:0.992" fill="#fcbd16" d="M 718.5,847.5 C 718.5,901.5 718.5,955.5 718.5,1009.5C 717.2,1014.4 717.2,1019.4 718.5,1024.5C 718.5,1042.83 718.5,1061.17 718.5,1079.5C 644.5,1079.5 570.5,1079.5 496.5,1079.5C 496.5,1061.17 496.5,1042.83 496.5,1024.5C 497.8,1019.4 497.8,1014.4 496.5,1009.5C 496.5,968.5 496.5,927.5 496.5,886.5C 571.188,877.385 645.188,864.385 718.5,847.5 Z"/></g>
<g><path style="opacity:1" fill="#f7af7f" d="M 56.5,888.5 C 55.5,889.167 54.5,889.833 53.5,890.5C 49.466,890.328 45.466,889.828 41.5,889C 46.4889,888.501 51.4889,888.334 56.5,888.5 Z"/></g>
<g><path style="opacity:0.995" fill="#f49e17" d="M 442.5,891.5 C 442.5,930.833 442.5,970.167 442.5,1009.5C 441.2,1014.4 441.2,1019.4 442.5,1024.5C 442.5,1042.83 442.5,1061.17 442.5,1079.5C 387.167,1079.5 331.833,1079.5 276.5,1079.5C 276.5,1061.17 276.5,1042.83 276.5,1024.5C 276.5,1019.5 276.5,1014.5 276.5,1009.5C 276.5,972.5 276.5,935.5 276.5,898.5C 331.913,897.941 387.246,895.608 442.5,891.5 Z"/></g>
<g><path style="opacity:0.991" fill="#f08113" d="M 110.5,894.5 C 147.489,896.134 184.489,897.467 221.5,898.5C 221.5,935.5 221.5,972.5 221.5,1009.5C 221.5,1014.5 221.5,1019.5 221.5,1024.5C 221.5,1042.83 221.5,1061.17 221.5,1079.5C 184.5,1079.5 147.5,1079.5 110.5,1079.5C 110.5,1017.83 110.5,956.167 110.5,894.5 Z"/></g>
<g><path style="opacity:0.934" fill="#243367" d="M 221.5,1009.5 C 239.833,1009.5 258.167,1009.5 276.5,1009.5C 276.5,1014.5 276.5,1019.5 276.5,1024.5C 258.167,1024.5 239.833,1024.5 221.5,1024.5C 221.5,1019.5 221.5,1014.5 221.5,1009.5 Z"/></g>
<g><path style="opacity:0.934" fill="#273366" d="M 442.5,1009.5 C 460.5,1009.5 478.5,1009.5 496.5,1009.5C 497.8,1014.4 497.8,1019.4 496.5,1024.5C 478.5,1024.5 460.5,1024.5 442.5,1024.5C 441.2,1019.4 441.2,1014.4 442.5,1009.5 Z"/></g>
<g><path style="opacity:0.934" fill="#263467" d="M 718.5,1009.5 C 736.5,1009.5 754.5,1009.5 772.5,1009.5C 773.8,1014.4 773.8,1019.4 772.5,1024.5C 754.5,1024.5 736.5,1024.5 718.5,1024.5C 717.2,1019.4 717.2,1014.4 718.5,1009.5 Z"/></g>
<g><path style="opacity:0.934" fill="#263467" d="M 1104.5,1009.5 C 1122.5,1009.5 1140.5,1009.5 1158.5,1009.5C 1159.8,1014.4 1159.8,1019.4 1158.5,1024.5C 1140.5,1024.5 1122.5,1024.5 1104.5,1024.5C 1103.2,1019.4 1103.2,1014.4 1104.5,1009.5 Z"/></g>
<g><path style="opacity:0.94" fill="#243367" d="M 899.5,1133.5 C 912.537,1131.93 924.871,1134.1 936.5,1140C 945.184,1146.2 949.517,1154.7 949.5,1165.5C 943.824,1165.67 938.157,1165.5 932.5,1165C 930.42,1155.92 924.753,1150.59 915.5,1149C 907.683,1147.76 900.35,1149.1 893.5,1153C 886.954,1158.7 886.954,1164.37 893.5,1170C 907.361,1174.71 921.361,1179.04 935.5,1183C 950.71,1190.95 955.543,1203.12 950,1219.5C 943.291,1231.12 933.124,1237.62 919.5,1239C 903.224,1241.47 888.724,1237.64 876,1227.5C 870.292,1220.54 867.459,1212.54 867.5,1203.5C 873.167,1203.5 878.833,1203.5 884.5,1203.5C 887.09,1215.83 894.757,1222.66 907.5,1224C 915.366,1224.76 922.699,1223.09 929.5,1219C 935.975,1212.56 935.975,1206.22 929.5,1200C 925.729,1197.78 921.729,1196.11 917.5,1195C 904.461,1192.99 892.128,1188.99 880.5,1183C 870.734,1173.3 868.567,1162.14 874,1149.5C 880.243,1140.47 888.743,1135.13 899.5,1133.5 Z"/></g>
<g><path style="opacity:0.942" fill="#243367" d="M 1336.5,1133.5 C 1351.15,1131.53 1364.48,1134.69 1376.5,1143C 1384.24,1149.69 1388.24,1158.19 1388.5,1168.5C 1382.5,1168.5 1376.5,1168.5 1370.5,1168.5C 1369.09,1157.26 1362.76,1150.76 1351.5,1149C 1332.18,1147.58 1320.68,1156.42 1317,1175.5C 1314.07,1190.88 1317.24,1204.71 1326.5,1217C 1336.7,1224.76 1347.7,1226.09 1359.5,1221C 1365.83,1216.84 1369.5,1211.01 1370.5,1203.5C 1376.5,1203.5 1382.5,1203.5 1388.5,1203.5C 1386.69,1221.62 1377.03,1233.12 1359.5,1238C 1320.3,1243.3 1299.63,1226.14 1297.5,1186.5C 1296.96,1168.08 1303.63,1152.92 1317.5,1141C 1323.51,1137.32 1329.84,1134.82 1336.5,1133.5 Z"/></g>
<g><path style="opacity:0.955" fill="#243367" d="M -0.5,1134.5 C 26.5,1134.5 53.5,1134.5 80.5,1134.5C 80.5,1139.83 80.5,1145.17 80.5,1150.5C 69.8333,1150.5 59.1667,1150.5 48.5,1150.5C 48.5,1179.5 48.5,1208.5 48.5,1237.5C 42.5,1237.5 36.5,1237.5 30.5,1237.5C 30.5,1208.5 30.5,1179.5 30.5,1150.5C 20.1667,1150.5 9.83333,1150.5 -0.5,1150.5C -0.5,1145.17 -0.5,1139.83 -0.5,1134.5 Z"/></g>
<g><path style="opacity:0.945" fill="#243367" d="M 649.5,1134.5 C 655.509,1134.33 661.509,1134.5 667.5,1135C 683.333,1159.5 699.167,1184 715,1208.5C 715.5,1183.84 715.667,1159.17 715.5,1134.5C 721.167,1134.5 726.833,1134.5 732.5,1134.5C 732.5,1168.83 732.5,1203.17 732.5,1237.5C 725.91,1237.81 719.41,1237.48 713,1236.5C 697.667,1212.5 682.333,1188.5 667,1164.5C 666.5,1188.83 666.333,1213.16 666.5,1237.5C 660.833,1237.5 655.167,1237.5 649.5,1237.5C 649.5,1203.17 649.5,1168.83 649.5,1134.5 Z"/></g>
<g><path style="opacity:0.972" fill="#243367" d="M 1517.5,1134.5 C 1544.83,1134.5 1572.17,1134.5 1599.5,1134.5C 1599.5,1139.83 1599.5,1145.17 1599.5,1150.5C 1588.5,1150.5 1577.5,1150.5 1566.5,1150.5C 1566.5,1179.5 1566.5,1208.5 1566.5,1237.5C 1560.83,1237.5 1555.17,1237.5 1549.5,1237.5C 1549.5,1208.5 1549.5,1179.5 1549.5,1150.5C 1538.83,1150.5 1528.17,1150.5 1517.5,1150.5C 1517.5,1145.17 1517.5,1139.83 1517.5,1134.5 Z"/></g>
<g><path style="opacity:0.948" fill="#243367" d="M 224.5,1135.5 C 245.879,1135.06 267.212,1135.56 288.5,1137C 303.47,1142.08 309.97,1152.58 308,1168.5C 306.067,1180.43 299.234,1187.93 287.5,1191C 292.667,1193.5 296.5,1197.33 299,1202.5C 303.505,1214.02 308.005,1225.52 312.5,1237C 305.808,1237.83 299.142,1237.66 292.5,1236.5C 288.823,1225.64 284.657,1214.97 280,1204.5C 277.197,1200.35 273.364,1197.85 268.5,1197C 259.84,1196.5 251.173,1196.33 242.5,1196.5C 242.5,1210.17 242.5,1223.83 242.5,1237.5C 236.5,1237.5 230.5,1237.5 224.5,1237.5C 224.5,1203.5 224.5,1169.5 224.5,1135.5 Z M 242.5,1149.5 C 253.505,1149.33 264.505,1149.5 275.5,1150C 288.296,1152.98 292.463,1160.81 288,1173.5C 285.635,1176.87 282.468,1179.04 278.5,1180C 266.505,1180.5 254.505,1180.67 242.5,1180.5C 242.5,1170.17 242.5,1159.83 242.5,1149.5 Z"/></g>
<g><path style="opacity:0.954" fill="#243367" d="M 463.5,1135.5 C 470.422,1135.19 477.256,1135.52 484,1136.5C 496.556,1169.94 509.389,1203.28 522.5,1236.5C 516.167,1237.83 509.833,1237.83 503.5,1236.5C 499.97,1227.91 496.637,1219.25 493.5,1210.5C 480.513,1209.33 467.513,1209.17 454.5,1210C 451.073,1218.78 447.74,1227.61 444.5,1236.5C 438.537,1237.5 432.537,1237.83 426.5,1237.5C 438.437,1203.35 450.771,1169.35 463.5,1135.5 Z M 472.5,1154.5 C 473.79,1155.06 474.623,1156.06 475,1157.5C 479.205,1169.95 483.705,1182.28 488.5,1194.5C 478.856,1195.5 469.19,1195.83 459.5,1195.5C 464.031,1181.91 468.365,1168.24 472.5,1154.5 Z"/></g>
<g><path style="opacity:0.954" fill="#243367" d="M 1114.5,1135.5 C 1121.42,1135.19 1128.26,1135.52 1135,1136.5C 1147.56,1169.94 1160.39,1203.28 1173.5,1236.5C 1167.17,1237.83 1160.83,1237.83 1154.5,1236.5C 1150.97,1227.91 1147.64,1219.25 1144.5,1210.5C 1131.51,1209.33 1118.51,1209.17 1105.5,1210C 1102.07,1218.78 1098.74,1227.61 1095.5,1236.5C 1089.54,1237.5 1083.54,1237.83 1077.5,1237.5C 1089.44,1203.35 1101.77,1169.35 1114.5,1135.5 Z M 1123.5,1154.5 C 1124.79,1155.06 1125.62,1156.06 1126,1157.5C 1130.2,1169.95 1134.7,1182.28 1139.5,1194.5C 1129.86,1195.5 1120.19,1195.83 1110.5,1195.5C 1115.03,1181.91 1119.36,1168.24 1123.5,1154.5 Z"/></g>
</svg>
