<svg xmlns="http://www.w3.org/2000/svg" viewBox="0 0 268 100" fill="none">
    <path d="M1.4,12.8l34,30.6c4.7,4.2,11.7,4.2,16.4,0l33.8-30.6C92.4,6.4,73.3,0,43.6,0h-0.1h-0.1h-0.1h-0.1C13.7,0-5.5,6.4,1.4,12.8z M0,38.2l35.4,31.9c4.7,4.2,11.7,4.2,16.4,0L87,38.2V24.3L50,57.8c-3.6,3.3-9.2,3.3-12.8,0L0,24.3V38.2z M35.4,96.9L2,66.8c-1.3-1.2-2-2.8-2-4.6V51.1l37.2,33.5c3.6,3.3,9.2,3.3,12.8,0L87,51.1v11.2c0,1.7-0.7,3.4-2,4.5l-33.1,30C47.2,101,40.1,101.1,35.4,96.9z M171.9,25.7c-0.2-0.2-0.4-0.3-0.6-0.3c-0.1,0-0.3,0-0.4,0.1c-0.1,0.1-0.2,0.1-0.4,0.2c-0.3,0.3-0.7,0.6-1,0.8c-0.3,0.2-0.7,0.4-1,0.5c-0.4,0.1-0.8,0.2-1.2,0.3c-0.4,0.1-0.9,0.1-1.4,0.1c-0.9,0-1.7-0.2-2.5-0.5c-0.8-0.4-1.5-0.9-2-1.6c-0.6-0.7-1-1.5-1.4-2.5c-0.3-1-0.5-2.1-0.5-3.4c0-1.3,0.2-2.4,0.5-3.4c0.3-1,0.7-1.8,1.3-2.5c0.6-0.7,1.2-1.2,2-1.6c0.8-0.4,1.6-0.5,2.6-0.5c0.8,0,1.5,0.1,2.1,0.3c0.6,0.2,1,0.4,1.4,0.6c0.4,0.2,0.7,0.4,0.9,0.6c0.3,0.2,0.5,0.3,0.8,0.3c0.2,0,0.4-0.1,0.6-0.2c0.1-0.1,0.3-0.2,0.4-0.4l1.6-2.2c-0.4-0.5-0.9-0.9-1.5-1.2c-0.5-0.4-1.1-0.7-1.8-1c-0.6-0.3-1.3-0.5-2.1-0.6c-0.7-0.2-1.5-0.2-2.3-0.2c-1.1,0-2.1,0.1-3.1,0.4c-1,0.3-1.9,0.6-2.7,1.2c-0.8,0.5-1.6,1.1-2.2,1.8c-0.6,0.7-1.2,1.5-1.7,2.4c-0.5,0.9-0.8,1.9-1.1,2.9c-0.2,1-0.4,2.2-0.4,3.3c0,1.7,0.3,3.3,0.8,4.8c0.5,1.5,1.2,2.7,2.2,3.8c0.9,1.1,2.1,1.9,3.4,2.5c1.3,0.6,2.9,0.9,4.5,0.9c1.9,0,3.5-0.3,4.8-0.9c1.4-0.6,2.5-1.5,3.4-2.8L171.9,25.7z M144.5,7.7l-9,23.6h-4.2l-9-23.6h3.7c0.4,0,0.7,0.1,1,0.3c0.3,0.2,0.4,0.4,0.6,0.8l4.9,13.6c0.2,0.5,0.4,1.1,0.5,1.7c0.2,0.6,0.4,1.2,0.5,1.9c0.1-0.7,0.3-1.3,0.4-1.9c0.2-0.6,0.3-1.2,0.5-1.7l4.8-13.6c0.1-0.3,0.3-0.5,0.5-0.7c0.3-0.2,0.6-0.3,1-0.3H144.5z M151.2,31.2h-4.7V7.7h4.7V31.2z M192.2,11.6h-6.6v19.6H181V11.6h-6.6V7.7h17.8V11.6z M215.2,24.2c0.6-1.5,0.8-3.1,0.8-4.8c0-1.7-0.3-3.3-0.8-4.8c-0.5-1.5-1.3-2.7-2.3-3.8c-1-1.1-2.2-1.9-3.6-2.5c-1.4-0.6-3-0.9-4.7-0.9c-1.7,0-3.3,0.3-4.7,0.9c-1.4,0.6-2.6,1.4-3.6,2.5c-1,1.1-1.8,2.3-2.4,3.8c-0.5,1.5-0.8,3.1-0.8,4.8c0,1.7,0.3,3.3,0.8,4.8c0.6,1.5,1.3,2.7,2.4,3.8c1,1.1,2.2,1.9,3.6,2.5c1.4,0.6,3,0.9,4.7,0.9c1.7,0,3.3-0.3,4.7-0.9c1.4-0.6,2.6-1.5,3.6-2.5C213.9,27,214.6,25.7,215.2,24.2z M210.8,16.1c0.3,1,0.5,2.1,0.5,3.3c0,1.2-0.2,2.4-0.5,3.3c-0.3,1-0.8,1.8-1.3,2.5c-0.6,0.7-1.3,1.2-2.1,1.6c-0.8,0.4-1.8,0.5-2.8,0.5s-2-0.2-2.8-0.5c-0.8-0.4-1.5-0.9-2.1-1.6c-0.6-0.7-1-1.5-1.3-2.5c-0.3-1-0.5-2.1-0.5-3.3c0-1.2,0.2-2.3,0.5-3.3c0.3-1,0.8-1.8,1.3-2.5c0.6-0.7,1.3-1.2,2.1-1.6c0.8-0.4,1.8-0.6,2.8-0.6s2,0.2,2.8,0.6c0.8,0.4,1.5,0.9,2.1,1.6C210.1,14.3,210.5,15.1,210.8,16.1z M226.4,18.8c0.8,0,1.4-0.1,1.9-0.3c0.5-0.2,1-0.5,1.3-0.8c0.4-0.4,0.6-0.8,0.8-1.2c0.2-0.5,0.2-1,0.2-1.6c0-1.1-0.4-2-1.1-2.6c-0.7-0.6-1.8-0.9-3.2-0.9h-2.4v7.5H226.4z M237.3,31.2h-4.2c-0.8,0-1.4-0.3-1.7-0.9l-4.3-7.2c-0.2-0.3-0.4-0.5-0.6-0.6c-0.2-0.1-0.5-0.2-0.9-0.2h-1.6v9h-4.6V7.7h7.1c1.6,0,2.9,0.2,4,0.5c1.1,0.3,2,0.8,2.7,1.4c0.7,0.6,1.2,1.3,1.6,2.2c0.3,0.8,0.5,1.8,0.5,2.8c0,0.8-0.1,1.5-0.3,2.2c-0.2,0.7-0.5,1.3-0.9,1.9c-0.4,0.6-0.9,1.1-1.5,1.5c-0.6,0.4-1.3,0.8-2,1.1c0.3,0.2,0.6,0.4,0.8,0.6c0.3,0.2,0.5,0.5,0.7,0.9L237.3,31.2z M239.5,31.2h4.7V7.7h-4.7V31.2z M260.7,22.3l-2.4-7.2c-0.1-0.4-0.3-0.8-0.5-1.3c-0.2-0.5-0.3-1.1-0.4-1.7c-0.1,0.6-0.3,1.2-0.5,1.7c-0.2,0.5-0.3,1-0.4,1.3l-2.4,7.2H260.7zM268.5,31.2h-3.6c-0.4,0-0.7-0.1-1-0.3c-0.2-0.2-0.4-0.5-0.6-0.8l-1.5-4.5h-8.9l-1.5,4.5c-0.1,0.3-0.3,0.5-0.5,0.7c-0.3,0.2-0.6,0.3-1,0.3h-3.6L255,7.7h4.7L268.5,31.2z M232.6,61.9c0.2,0,0.3,0.1,0.4,0.2l1.2,1.3c-0.9,1-2,1.8-3.3,2.4c-1.3,0.6-2.8,0.9-4.6,0.9c-1.6,0-3-0.3-4.3-0.8c-1.3-0.5-2.4-1.3-3.3-2.3c-0.9-1-1.6-2.2-2.1-3.5c-0.5-1.4-0.7-2.9-0.7-4.5s0.3-3.1,0.8-4.5c0.5-1.4,1.2-2.5,2.2-3.5c0.9-1,2.1-1.7,3.4-2.3c1.3-0.5,2.8-0.8,4.3-0.8c1.6,0,2.9,0.2,4.1,0.7c1.2,0.5,2.2,1.2,3.1,2l-1,1.3c-0.1,0.1-0.1,0.2-0.2,0.3c-0.1,0.1-0.2,0.1-0.4,0.1c-0.2,0-0.4-0.1-0.7-0.3c-0.3-0.2-0.6-0.4-1-0.7c-0.4-0.2-1-0.5-1.6-0.7c-0.6-0.2-1.4-0.3-2.4-0.3c-1.1,0-2.2,0.2-3.1,0.6c-0.9,0.4-1.7,0.9-2.4,1.7c-0.7,0.7-1.2,1.6-1.6,2.7c-0.4,1.1-0.6,2.3-0.6,3.6c0,1.4,0.2,2.6,0.6,3.6c0.4,1.1,0.9,2,1.6,2.7c0.7,0.7,1.5,1.3,2.4,1.7c0.9,0.4,1.9,0.6,3,0.6c0.6,0,1.2,0,1.8-0.1c0.5-0.1,1-0.2,1.4-0.4c0.4-0.2,0.9-0.4,1.2-0.6c0.4-0.3,0.8-0.6,1.1-0.9C232.3,62,232.5,61.9,232.6,61.9zM148.6,44.7v21.7H146v-16c0-0.2,0-0.4,0-0.7c0-0.2,0-0.5,0.1-0.7l-7.5,13.6c-0.2,0.5-0.6,0.7-1.1,0.7h-0.4c-0.5,0-0.8-0.2-1.1-0.7L128.4,49c0.1,0.5,0.1,1,0.1,1.5v16h-2.6V44.7h2.2c0.3,0,0.5,0,0.6,0.1c0.1,0.1,0.3,0.2,0.4,0.4l7.5,13.4c0.1,0.2,0.2,0.5,0.3,0.8c0.1,0.3,0.2,0.5,0.3,0.8c0.1-0.3,0.2-0.5,0.3-0.8c0.1-0.3,0.2-0.5,0.4-0.8l7.4-13.4c0.1-0.2,0.3-0.4,0.4-0.4c0.2-0.1,0.4-0.1,0.6-0.1H148.6z M167.6,64l0,2.4h-13.4V44.7h13.4v2.4h-10.5v7.2h8.5v2.3h-8.5V64H167.6z M179.4,47.2h7.1v-2.5h-17.1v2.5h7.1v19.3h2.9V47.2z M195.8,55.2c0.9,0,1.6-0.1,2.3-0.3c0.7-0.2,1.2-0.5,1.6-0.9c0.4-0.4,0.8-0.8,1-1.4c0.2-0.5,0.3-1.1,0.3-1.7c0-1.3-0.4-2.3-1.3-2.9c-0.9-0.7-2.1-1-3.8-1h-3.2v8.2H195.8z M205.8,66.4h-2.6c-0.5,0-0.9-0.2-1.2-0.6l-5.7-7.8c-0.2-0.2-0.4-0.4-0.6-0.5c-0.2-0.1-0.5-0.2-0.9-0.2h-2.2v9.1h-2.9V44.7h6.2c1.4,0,2.6,0.1,3.6,0.4c1,0.3,1.8,0.7,2.5,1.2c0.7,0.5,1.1,1.2,1.5,1.9c0.3,0.7,0.5,1.6,0.5,2.5c0,0.8-0.1,1.5-0.4,2.2c-0.2,0.7-0.6,1.3-1.1,1.8c-0.5,0.5-1,1-1.7,1.3c-0.7,0.4-1.4,0.7-2.3,0.8c0.4,0.2,0.7,0.5,1,0.9L205.8,66.4z M208.8,66.4h2.9V44.7h-2.9V66.4z M248.5,48.4c0.1-0.1,0.2-0.2,0.3-0.3l0.7-1.4c-0.8-0.7-1.6-1.3-2.6-1.7c-1-0.4-2.1-0.6-3.3-0.6c-1.1,0-2,0.2-2.9,0.5c-0.8,0.3-1.5,0.8-2.1,1.3c-0.6,0.6-1,1.2-1.3,1.9c-0.3,0.7-0.4,1.5-0.4,2.2c0,1,0.1,1.8,0.4,2.4c0.3,0.6,0.7,1.2,1.2,1.6c0.5,0.4,1,0.8,1.7,1.1c0.6,0.3,1.3,0.5,1.9,0.7c0.6,0.2,1.3,0.4,1.9,0.6c0.6,0.2,1.2,0.4,1.7,0.7c0.5,0.3,0.9,0.6,1.2,1.1c0.3,0.4,0.5,1,0.5,1.6c0,0.6-0.1,1.1-0.3,1.6c-0.2,0.5-0.5,0.9-0.9,1.3c-0.4,0.3-0.8,0.6-1.4,0.8c-0.5,0.2-1.2,0.3-1.9,0.3c-0.6,0-1.1-0.1-1.5-0.2c-0.4-0.1-0.8-0.2-1.2-0.4c-0.3-0.2-0.7-0.3-0.9-0.5c-0.3-0.2-0.5-0.4-0.7-0.5c-0.2-0.2-0.4-0.3-0.6-0.4c-0.2-0.1-0.3-0.2-0.4-0.2c-0.1,0-0.3,0-0.4,0.1c-0.1,0.1-0.2,0.2-0.3,0.3l-0.9,1.4c0.8,0.9,1.8,1.6,3,2.1c1.2,0.5,2.4,0.8,3.9,0.8c1.2,0,2.2-0.2,3.1-0.5c0.9-0.4,1.7-0.8,2.3-1.5c0.6-0.6,1.1-1.3,1.4-2.2c0.3-0.8,0.5-1.7,0.5-2.7c0-0.9-0.2-1.7-0.5-2.3c-0.3-0.6-0.7-1.1-1.2-1.6c-0.5-0.4-1-0.8-1.7-1c-0.6-0.3-1.3-0.5-1.9-0.8c-0.6-0.2-1.3-0.4-1.9-0.6c-0.6-0.2-1.2-0.5-1.7-0.7c-0.5-0.3-0.9-0.6-1.2-1c-0.3-0.4-0.4-0.9-0.4-1.5c0-0.5,0.1-0.9,0.3-1.3c0.2-0.4,0.4-0.8,0.8-1.1c0.3-0.3,0.8-0.5,1.3-0.7c0.5-0.2,1.1-0.3,1.7-0.3c0.7,0,1.3,0.1,1.8,0.3c0.5,0.2,0.9,0.4,1.3,0.6c0.4,0.2,0.7,0.4,0.9,0.6c0.2,0.2,0.4,0.3,0.6,0.3C248.3,48.5,248.4,48.5,248.5,48.4z" fill="white"/>
</svg>