<svg id="Ebene_1" data-name="Ebene 1" xmlns="http://www.w3.org/2000/svg" viewBox="0 0 177.44 97.18">
  <title>WeAreDevelopers_Negativ</title>
  <g>
    <path d="M14.11,82.62,11,69H14l1.29,6.53L16,79.33H16l.85-3.78L18.38,69h3.24l1.52,6.53L24,79.33H24l.72-3.78L26.06,69h2.81l-3.16,13.6H22.34l-1.71-7.36-.67-3H19.9l-.68,3-1.71,7.36Z" fill="#fff"/>
    <path d="M33.59,82.86a5.48,5.48,0,0,1-2.09-.38A4.26,4.26,0,0,1,30,81.41,4.51,4.51,0,0,1,29,79.72a7,7,0,0,1-.32-2.22A7.11,7.11,0,0,1,29,75.31a4.53,4.53,0,0,1,.92-1.69,4.1,4.1,0,0,1,1.51-1.08,5.1,5.1,0,0,1,2-.38,5,5,0,0,1,2.17.43,4.09,4.09,0,0,1,1.49,1.15A4.55,4.55,0,0,1,38,75.4a7.17,7.17,0,0,1,.27,2v.86H31.66v.15a2,2,0,0,0,2.26,2.19,2.68,2.68,0,0,0,1.46-.36,5.34,5.34,0,0,0,1-.86l1.45,1.8a4.61,4.61,0,0,1-1.79,1.25A6.55,6.55,0,0,1,33.59,82.86Zm-.06-8.58a1.72,1.72,0,0,0-1.38.58,2.25,2.25,0,0,0-.49,1.53v.15h3.58v-.17a2.55,2.55,0,0,0-.41-1.51A1.5,1.5,0,0,0,33.53,74.28Z" fill="#fff"/>
    <path d="M48.42,82.62l-1-3.23H42.9l-1,3.23h-3L43.41,69h3.67l4.42,13.6ZM45.2,71.71h-.09l-1.5,5.16h3.11Z" fill="#fff"/>
    <path d="M52.46,82.62V72.39h2.88v2.22h.1a3,3,0,0,1,.27-.82,2.45,2.45,0,0,1,.52-.72,2.42,2.42,0,0,1,.77-.49,2.62,2.62,0,0,1,1-.19h.51v2.69h-.73a4.13,4.13,0,0,0-1.88.33,1.27,1.27,0,0,0-.61,1.23v6Z" fill="#fff"/>
    <path d="M64.11,82.86A5.43,5.43,0,0,1,62,82.48a4.18,4.18,0,0,1-1.55-1.07,4.52,4.52,0,0,1-1-1.69,7.3,7.3,0,0,1-.32-2.22,7.11,7.11,0,0,1,.31-2.19,4.7,4.7,0,0,1,.93-1.69A4,4,0,0,1,62,72.54a5.7,5.7,0,0,1,4.22,0,4.05,4.05,0,0,1,1.48,1.15,4.73,4.73,0,0,1,.84,1.66,7.57,7.57,0,0,1,.26,2v.86H62.18v.15a2,2,0,0,0,2.26,2.19,2.65,2.65,0,0,0,1.46-.36A5.71,5.71,0,0,0,67,79.36l1.44,1.8a4.65,4.65,0,0,1-1.78,1.25A6.61,6.61,0,0,1,64.11,82.86Zm-.06-8.58a1.7,1.7,0,0,0-1.37.58,2.25,2.25,0,0,0-.5,1.53v.15h3.59v-.17a2.48,2.48,0,0,0-.42-1.51A1.49,1.49,0,0,0,64.05,74.28Z" fill="#fff"/>
    <path d="M70.56,69h5.13a6.73,6.73,0,0,1,2.46.43A4.85,4.85,0,0,1,80,70.73a5.68,5.68,0,0,1,1.2,2.12,10.47,10.47,0,0,1,0,5.94A5.73,5.73,0,0,1,80,80.92a5.07,5.07,0,0,1-1.89,1.28,6.94,6.94,0,0,1-2.46.42H70.56Zm5.13,11a2.86,2.86,0,0,0,2.09-.74,3.22,3.22,0,0,0,.76-2.38v-2.1a3.25,3.25,0,0,0-.76-2.38,2.9,2.9,0,0,0-2.09-.74H73.53V80Z" fill="#fff"/>
    <path d="M87.48,82.86a5.43,5.43,0,0,1-2.08-.38,4.18,4.18,0,0,1-1.55-1.07,4.52,4.52,0,0,1-1-1.69,7.3,7.3,0,0,1-.32-2.22,7.11,7.11,0,0,1,.31-2.19,4.7,4.7,0,0,1,.93-1.69,4,4,0,0,1,1.51-1.08,5.08,5.08,0,0,1,2-.38,5,5,0,0,1,2.18.43A4.05,4.05,0,0,1,91,73.74a4.73,4.73,0,0,1,.84,1.66,7.57,7.57,0,0,1,.26,2v.86H85.55v.15a2,2,0,0,0,2.26,2.19,2.65,2.65,0,0,0,1.46-.36,5.71,5.71,0,0,0,1.06-.86l1.44,1.8A4.65,4.65,0,0,1,90,82.41,6.61,6.61,0,0,1,87.48,82.86Zm-.06-8.58a1.7,1.7,0,0,0-1.37.58,2.25,2.25,0,0,0-.5,1.53v.15h3.59v-.17a2.48,2.48,0,0,0-.42-1.51A1.49,1.49,0,0,0,87.42,74.28Z" fill="#fff"/>
    <path d="M95.84,82.62,92.49,72.39h2.85l1.26,4.13,1,3.71h.15l1-3.71,1.23-4.13h2.73L99.27,82.62Z" fill="#fff"/>
    <path d="M107.91,82.86a5.48,5.48,0,0,1-2.09-.38,4.35,4.35,0,0,1-1.55-1.07,4.51,4.51,0,0,1-1-1.69A7,7,0,0,1,103,77.5a7.11,7.11,0,0,1,.31-2.19,4.83,4.83,0,0,1,.92-1.69,4.06,4.06,0,0,1,1.52-1.08,5,5,0,0,1,2-.38,4.94,4.94,0,0,1,2.17.43,4.09,4.09,0,0,1,1.49,1.15,4.55,4.55,0,0,1,.83,1.66,7.17,7.17,0,0,1,.27,2v.86H106v.15a2,2,0,0,0,2.26,2.19,2.68,2.68,0,0,0,1.46-.36,5.34,5.34,0,0,0,1-.86l1.45,1.8a4.61,4.61,0,0,1-1.79,1.25A6.55,6.55,0,0,1,107.91,82.86Zm-.06-8.58a1.7,1.7,0,0,0-1.37.58,2.21,2.21,0,0,0-.5,1.53v.15h3.59v-.17a2.48,2.48,0,0,0-.42-1.51A1.49,1.49,0,0,0,107.85,74.28Z" fill="#fff"/>
    <path d="M114.2,82.62V68.2h2.89V82.62Z" fill="#fff"/>
    <path d="M123.36,82.86a5.13,5.13,0,0,1-2-.37,4.16,4.16,0,0,1-1.5-1.07,5.1,5.1,0,0,1-1-1.7,7.63,7.63,0,0,1,0-4.44,4.86,4.86,0,0,1,1-1.69,4,4,0,0,1,1.5-1.06,5.13,5.13,0,0,1,2-.37,5.19,5.19,0,0,1,2,.37,4,4,0,0,1,1.5,1.06,4.69,4.69,0,0,1,.94,1.69,7.63,7.63,0,0,1,0,4.44,4.92,4.92,0,0,1-.94,1.7,4.16,4.16,0,0,1-1.5,1.07A5.19,5.19,0,0,1,123.36,82.86Zm0-2.28a1.67,1.67,0,0,0,1.32-.53,2.14,2.14,0,0,0,.47-1.5V76.47a2.19,2.19,0,0,0-.47-1.51,1.67,1.67,0,0,0-1.32-.52A1.69,1.69,0,0,0,122,75a2.23,2.23,0,0,0-.46,1.51v2.08a2.19,2.19,0,0,0,.46,1.5A1.7,1.7,0,0,0,123.36,80.58Z" fill="#fff"/>
    <path d="M129.42,72.39h2.88v1.72h.1a2.4,2.4,0,0,1,1-1.41,3,3,0,0,1,1.76-.54,3.39,3.39,0,0,1,2.94,1.36,6.66,6.66,0,0,1,1,4,6.66,6.66,0,0,1-1,4,3.38,3.38,0,0,1-2.94,1.38,2.91,2.91,0,0,1-1-.15,2.58,2.58,0,0,1-.81-.41,2.58,2.58,0,0,1-1-1.39h-.1v5.61h-2.88Zm4.78,8.13a1.76,1.76,0,0,0,1.35-.58,2.15,2.15,0,0,0,.54-1.55V76.62a2.18,2.18,0,0,0-.54-1.55,1.78,1.78,0,0,0-1.35-.57,2.19,2.19,0,0,0-1.36.4,1.28,1.28,0,0,0-.54,1.1v3a1.29,1.29,0,0,0,.54,1.1A2.19,2.19,0,0,0,134.2,80.52Z" fill="#fff"/>
    <path d="M145.15,82.86a5.48,5.48,0,0,1-2.09-.38,4.35,4.35,0,0,1-1.55-1.07,4.51,4.51,0,0,1-.95-1.69,7.3,7.3,0,0,1-.32-2.22,7.11,7.11,0,0,1,.31-2.19,4.7,4.7,0,0,1,.93-1.69A4,4,0,0,1,143,72.54a5.7,5.7,0,0,1,4.22,0,4.14,4.14,0,0,1,1.48,1.15,4.73,4.73,0,0,1,.84,1.66,7.57,7.57,0,0,1,.26,2v.86h-6.57v.15a2,2,0,0,0,2.26,2.19,2.65,2.65,0,0,0,1.46-.36,5.71,5.71,0,0,0,1.06-.86l1.44,1.8a4.61,4.61,0,0,1-1.79,1.25A6.52,6.52,0,0,1,145.15,82.86Zm-.06-8.58a1.7,1.7,0,0,0-1.37.58,2.25,2.25,0,0,0-.5,1.53v.15h3.59v-.17a2.48,2.48,0,0,0-.42-1.51A1.49,1.49,0,0,0,145.09,74.28Z" fill="#fff"/>
    <path d="M151.45,82.62V72.39h2.88v2.22h.1a3,3,0,0,1,.27-.82,2.45,2.45,0,0,1,.52-.72,2.42,2.42,0,0,1,.77-.49,2.62,2.62,0,0,1,1-.19h.51v2.69h-.73a4.13,4.13,0,0,0-1.88.33,1.27,1.27,0,0,0-.61,1.23v6Z" fill="#fff"/>
    <path d="M162.4,82.86A5.37,5.37,0,0,1,158.09,81l1.7-1.72a4.42,4.42,0,0,0,1.21,1,3.19,3.19,0,0,0,1.5.35,2,2,0,0,0,1.19-.27.85.85,0,0,0,.33-.71c0-.48-.35-.76-1-.85l-1.11-.14q-3.45-.44-3.45-3.16a3.17,3.17,0,0,1,.29-1.35,3,3,0,0,1,.79-1.06,3.76,3.76,0,0,1,1.25-.68,5.3,5.3,0,0,1,1.65-.24,8.49,8.49,0,0,1,1.41.1,5,5,0,0,1,1.09.32,4,4,0,0,1,.88.5,9.84,9.84,0,0,1,.79.68l-1.66,1.69a3.83,3.83,0,0,0-1.1-.77,3,3,0,0,0-1.25-.28,1.87,1.87,0,0,0-1.06.23.75.75,0,0,0-.31.63.89.89,0,0,0,.22.63,1.55,1.55,0,0,0,.85.32l1.15.16c2.25.3,3.37,1.32,3.37,3.08a3,3,0,0,1-.31,1.36,3,3,0,0,1-.88,1.08,4.26,4.26,0,0,1-1.39.72A6.31,6.31,0,0,1,162.4,82.86Z" fill="#fff"/>
  </g>
  <g>
    <polygon points="95.37 10.65 83.96 10.65 83.96 10.65 71.36 43.5 58.76 10.65 58.76 10.65 47.35 10.65 47.35 10.65 47.35 10.65 47.35 10.65 34.75 43.5 22.14 10.65 10.74 10.65 29.05 58.36 40.45 58.36 40.45 58.36 40.45 58.36 53.05 25.51 65.66 58.36 65.66 58.36 65.66 58.36 77.06 58.36 77.06 58.36 77.06 58.36 89.67 25.51 102.27 58.36 113.67 58.36 95.37 10.65 95.37 10.65" fill="#ff164c"/>
    <polygon points="119.38 10.65 119.38 21.98 152.02 34.5 119.38 47.02 119.38 58.36 166.78 40.17 166.78 40.17 166.78 28.84 166.78 28.83 119.38 10.65" fill="#ff164c"/>
  </g>
</svg>
